<mxfile host="65bd71144e">
    <diagram id="fZFn7qD25xqSuIYXC2Pu" name="第 1 页">
        <mxGraphModel dx="1284" dy="869" grid="1" gridSize="10" guides="1" tooltips="1" connect="1" arrows="1" fold="1" page="1" pageScale="1" pageWidth="827" pageHeight="1169" math="0" shadow="0">
            <root>
                <mxCell id="0"/>
                <mxCell id="1" parent="0"/>
                <mxCell id="3" value="" style="shape=image;verticalLabelPosition=bottom;labelBackgroundColor=default;verticalAlign=top;aspect=fixed;imageAspect=0;image=data:image/png,iVBORw0KGgoAAAANSUhEUgAAAigAAAHmCAYAAABZB3XcAAAgAElEQVR4nOzdfXBUVZ74//d8RR66OwHy1DAhiXmAMBsIgWXIwKCAECEr35ldgdLVKQVneKqCKsKggmx2ys0iODhgFVQhOCNqrY5ToPvVn36BgQioIwvDF0KEHYGQmIQsdkICJN0JYqbm98fth9u3bz93p7vD51VFad8+fe7p7iTn0+fzObe/N3bc5L8hRMIw8vKW6Uy8WcPsLZZYD0YIIUK2aPl0Vow30vTJIZa8H+vRxJ8BsR6AEEIIcVeZkscHT47GhI2zbx1i3alYDyg+fU9WUIQQQggRb/5XrAcghBBCCKElAYoQQggh4o4EKEIIIYSIOwOGpWTEegxCCCGEEG5kBSWOVFVWRLR9sP0JcTfJzckM6niwbSPVT7B9CdFfyDbjPqQXMFRWbXf7/6rKCrdjwfYf6mOFuJs4JvzcnEwaGltiPBpoaGyJm7EIES8kQOlj6gAi0isc4QY4QvRn2lWIcIMBdZATif58nUcCF3E3StAAZRD/UljAuEHQ0niBX94KoYuhWbybk+y6fauZxxo7IzZCfxyBhF6Qoj0WTwHHjKcrmMOfqHw9lCsLJfOb4iwy+ZbzF+v492+D72G+uYCfmQc5b9ssdfzcEkJH4q6jnuT1UibaQCCQwCCcwMHbGAJpKwFLdA1MGUFm0j1w+yYNFlush+MhyZxJ2gAbLS03uRPJjk1p5KYOoPPaN7RHtOPQxFmAYg88bkcgWBiaxbs5g7xPhLeaeaxWdc7wzhYyR/AR6MqHNnhx3HY8NqrBTF45P8q0Ufu2JjgZlM7vCjO4GWqwqLI8p4hZg1v5j4ttfKRz/0eWOj6ygCPYGRbe6YSd4w/y7fYWrlk1d5rSyE0dRG9XK80d38VkfIExMjJnGIP5a0T+wPpKu/g67u22tn0iBhlJ5kzS8Jy0ozZhxquBw8gaaaRX7/fF6V5SMzNI7o3PICcRxFmAEqhv+feLF2I9iJCFk4bRpoh83Y60vPFZmKzN/L/6UHvo5Je1ifu+9Wd3OtrpHJJBcmoaSdbrdDnvuZfUoYOg14YljoOTJHMmaYO/pbPrrwxO0m/jLXjwFSjoBSmO295WNRz/VT8u2GLaYIIiEXl3Or6hoSPWoxAx2sWTxaKKCp77aVZsTh9hM56uoKqinLwA23tL7YQrrH5//BhVlY8xw2uDKcwpNtJ86gAhxydxRfkZrHp6SqwHEie+o/3Wt8AghqXc6zpsGkrygL/S2Ra/n4wHpoxQPtU3qgMrTw2NLc5/6tsQ3OSvDUTU/YRKOzYH2b0j7mZ9v4KSV85zT4zFZP2KvR80K8fsKQKjo82gLN4tdj3EVWfiqj1ReNYyLM8pYtZQ1+1xhUW862zuPXXgnf9zHn/9TxRW/pgllUM5UvUux4Pq38XfLh9fjwtn5WTG0xXMyYTmT7Z7H/uP88jiGkf+5DqkrQcx5qheazo5WtvMbsBVe6J3n979GfysOIOf2W+FVGei/ZnyeO+b2ffBV+Q98WOqKlLZu72/BF5hsF7nujGTtKShJHVcp8uxenL7piZdYl+6Vv31cE8N6S9tRysNcKfjGxqCaB/spC+rFkEaOIyskYPpvtYO6aqfE916Du3P0rdc1waa9hSjU6/6Z0hJ69F+E1KHMRjlZ9FqzCRtMPa0JKRmZmDouUn3kGEkD1COW0j1qDNx1p44TqVJa2rvH5CaSW6qZuz29I/zKQ0YRm6OKxmtTaMqq394vV/3NQDoJTSavjxTt73cueNIl3obk+ffAPd+7rW/5qrXGdB7f7WvqdPtm30coPz4MaoeHAktmiLLb9v4eW0b/mtQVKkde42J1u7GC8rE568GJSD2OgdLHY85JsihWbxbWMC/uPV7ij1V11hUsZA5lRUUfrKdPX/y1qdCb8eNNsgIZDXEXx++ZbGoYiHFJhu1b+9hn9cZOotFU5T3TR3AOOtB/NaguFI7SlDj/X5/NSgBcb73F5zv0fKcIn5WCKj7rT/AS1XtLKv8MUsqs/y8BneHrhs2ho00MizlXrruOFZP1JOK/Q/X7Zs0tNiPm9LITc0ka2C816i4U6dqvAUheveFkioKZCzRp550dAKBiLqH5JEZ3G5vocGK/WdkGCNNNtVEZx9Pr42WRlXAYTbS5RYwQOe1FnuQrEx8mTkD3MY/ODWJzmstWIdnMmzoCIb1tNLyXSqZSUNJ6lD+KA1IGsbA9hZaBo4gc0gq5t4uGtqHkJuaROpAG+131KkdZWzaCdJ5v68alDs3aW68if8aFNX9jfb7Bw4ja2QmI3H16/kaOIL9YN8T/VqzgSlppA68rvoQMoi0nAF0Xmvh2h37Y1JHkHrnG9X5U6GthQbHY0xp5KZmMPKO++sxICmDzNuO56e8pmk+31/V3xeLre9SPDOerqDqwZE0f7I9xB0gfW++OYPMb1v5T/Wn91utnP92ELnDtMFRM/u2b2dvrY2sB6OfvtIWx/pq5/jnJq+c5yoXUsxX7K3yMzHnjSPPZKP2WCK8b4P4lxHJ2CzNboHp7m9asQ0aSolHTHuKPVXbOdJipPiJCpb9uC/HGofu3MTS9VcGJKWSNXQQvV3tbqsnA1OSGMy3XFf/wbVe5/ptGDDEyMC+H3FQ1AFHqNce8ZUqcpxDvQU5kODDW4oncu4lNdP1iRgGkZY5LKrvl9unbmsPt4EBA13pwyTzMOVnyW1FzcY158+WkdSkezQ/g9/R3majl0GYTOqTdTnbDBjQy029QLnXRrtjPAOg+0aMC1dNQ0keoPldunOTm7dhsNGx9qv3GoRo4DDMSffQ29XqFkTc6biu6du9yPyO9Ta93MNA1Q9Ll0VThK7z/gKaVTMb1tvAgHudP3eD7r0Hem/T5ezLvU0frKAE+ik9/mQOHgSD3NMNToMHAZ5LM/Uf7KHy+mNUPbiQqryvIp46UAcm6qDD22qLbgDjbSXLixkzlZRc6MWxfWkQwweB0VzAux4rNTB8MHpvG8df307zT5ex5MEKqgpD3UbdP9zp6OJ20jAGD/iW65o/9IPuvQdud3l88u6yfUta6gAGQdzWqgQr1KLUYItk+8ZABmr/2g+I5ft1rzKe2z3eV3EG3ssA/kq3VRNs3LHR3WvEoJoMe79TPYveXr1fcej9jjtgnxx7ueO6ERMDBw4A7iEtJ5M07Z29ygR9x9trENIJBzCAv9IZkb40aSy7YLNO3373Vxg8mKSBOFdQTIOht8vGHfokQFFWFlqfrmDOExUMDyD9EVeCrFvJ++kylhQbsdbu5yVHjY2K+vonodSNeHuM3nGvKaI/vUvltXKeC6j+YgqFmdD8SWLVaARbt6Kuw0mon8+osGG9PYzB+Jg8EpBewKEXgISziuHtsf76jH4Ac4c7vTBY/Rff20Qu+lC0U21R4AhO3FZH9FNi/ty50wsMInlkJs6rkt2+SYP9g1GfpXiOv76dyk+ukfVg4uycaLn9LQwaTKB/OmY8XcGSYiPNn2zXDU5Av/YkJld/rT/AS1X7qWUsSyqXscjbFiR7cezFhJm0v+XGt2Ac7FmfpE/ZzTMn00bt2xKc+KN84hmCdidvknFQ3E94wQQewa6ehBtgeEvxRC7l8x3tLTe57bytTa0EQbVEr1BWQ3p7bEH09x13evX6UrnzHb3cg8GkSRsMNGIYAL13EqfeSY8yOQ9wS53ou0fT5l7P1bCATtjrkaoJiWMlJuwUmVKE39vV6vbzr67X6dttxn96l8q3v8Ka+WMv23K/pe02MHQoy8M91+3b2NCrFQncR5ZWWkhmVmE68322nMKyygrmZF7jSFVgBbLxQVnd8l5/oRTHWmv/5Htn0rffchPIHJbsq1VAlKBQr1YkUN/y7990wtAsfmf200kwdTgCcOSjB5FmNroOmtJIGwy3bzkmPM/JR7tTQS3JrNRpZKXcq9+gj4USnCTGTh8b15wTQWif2rtu2OgdYCRVVf8xMCWV5AHBpyEcfWWqf5bsRbKO8Vpvw4CkVFKdk+q9pKYbGaCuJ4mFO9/Ri7pWRI/990AnoAfAeovO3ntIHpmmfz/Y01kweKijXshz90zgY7bXt6SOUL2ejiLZYPrRBjruO36CNeBe7yfv+23G9Qd4qeo8iyoWsuin5z1WGnY31pFeWMCs4iJm2Y+5thlrt6OqthFrL1X/bRs/bxzMuzmqWgRVuka7Rda1tVm9jbiTX9Y285viLE0divtW4xlP/5gsa2j1Jt5WU3ytqkR6xeX469s5/uPHqHrwMWb8SbVN2l4cW/+l/mqQSye/vNjK7wrV28NVW4m1W34Z5Hx/tamYjyx1ZA4uYpZqe7i6jXYbOc5aE9X5bjXzWGOW+3sPmnRdFot+OhZTgHU4wu7OTZobv2Nkjnrr5F/ddhgAdFluYsoZRmaO8q73dtl3VQzx7FJZlbmHAc7tzUHSyYc7l4yDuFR5qLtxIhWcBHvV2pi4c5Pma5A1Umd7bSh9efwsKX05dFla+DZlBJnaFECUrszqEUgnZZCb5BqX6znauHbtXrJGeo5d/Tp0WVoZmJnhVmfiKh7+jvaWVtDc79nmJgNVv0u3nTuRgn9+eq9nb1crzcEspd25iaVrMJmqLda321vpHJqBIajRKAXPhpHu27AVymv5vR898A9/C6pPEbJAUzuBBCCRauPLjKcrmDM08oW+QrhTbTfto0ul6xWwRjoICDSw0I4l7oMUISLCXrficR0W11ZjCVCEF1NYVvljkKJREWU+vwdICNE/2Vc+0QYoquMSoAghYsOZmonMl/sJIRKM3hVycaW4EvTLAoUQCc95xU0hxF3Jel250rAXMfqyQCGEEEII7yRAEUIIIUTckQBFCCGEEHFnwM2O1liPQQghhBDCjaygCCGEECLuSIAihBBCiLgjAYoQQggh4k5UApS5azazY80s5+2KolkcnJLDgmicLEDxMAYhhBBCBCbyAUrhozyQ08XpA0cj3rUQQggh7g4RD1DGTM4nufMKJy5GumchhBBC3C2CC1DmrGTH9pXM9dpgFvMnJ9Hw2R+4FO7Ioq3wUTZt38zaObEeiBBCCCG0Av4unrlrNjM/Bxo+3sAhb43mjCWXJj46onOfrZv30sZxcFy6/UAbh46dZ7tbIwNbppRSYnDc7qbm1EnWd/tqA9aGkyxsdGsEbudydudy8Q+8eTqf1Q9vZpP5t2x8+4q3ZyWEEEKIPhbACko+T72wmfk5XZx+dQPb9IIPR7v7s6HxK/0AJn0cB/O6eO3YUeYdO0lNdzpz3YpW09kzs5QCy0nmHTuq/Dtvo2RKKVtUwUhF0Xg4f1TVpg1Tbil70lxtFuSUcnCckZpTrnaH2jyHdOntF1n9cRPJk3/BjhceZYz/F0MIIYQQfcB3gFL4KJu2/4LJ1LCj4kXe9FVXUjiZMck+imO763ntVCPvKTf4s6UbDElk2+9ekJNHdnc9v1evhFyvp6bbQEG6K0LZfkGzonLdQhOQYnS0SWdurgFrw5ealRcvjuxidcUfaUguYbXP9JUQQggh+or3FM+clex4OBsa/8jqV/zvyJlbXkJyZ03IxbHZJgMY8lg6M4+l2jtNRpz5GUMO+6fkYdI0cX5js8FACt3UtQUSnTgcZVtFE0+98Avmb99M0ce+VoqEEEIIEW3eA5Qju1jd/CibVjzEjhcy2PErX4WvsyjKgYaPwyyOdVtl0eEITtrOM++CI2eTzp6Z40gJ57zMYu32h5T6mYpd3mtshBBCCNEnfKd4Lv6BjRW/5TQlrN7+PE8VemlnL469EMaqQ5PVPeWjy5CEiW5qGnQKStwbkmJwv202emla+Cibtj9EbmcNOyQ4EUIIIeJCAEWyV3jzVxv4qDGJySv0tuUqxbGdp/8Y1uT+XmM9TWgLZzW6u7C6BR/K6olbUNPdRl03ZOc5+vHc9eMw5onn2bGiBE7/ltU+V4iEEEII0ZcCvg7KoVc2sPrjJnIf1hSS2otjL50Od5tuG8uOnafJkMfSmbM46Pyn2sXT3cjvG7rJHue4bxycP0mNW7lJN+tPqfspJaX+KK81aGpSCh/lqclJNHy8QbYYCyGEEHHme2PHTf5bOB3MXbOZ+cNr/NSoCCGEEEIELsxL3duLYxPhyrFCCCGESBhhr6AIIYQQQkRa5L/NWAghhBAiTBKgCCGEECLuSIAihBBCiLgjAYoQQggh4o4EKEIIIYSIOxKgCCGEECLuSIAihBBCiLgjAYoQQggh4k6YAYqBLVNmcbAoPTKj8eg+h/0zZ7EnLTrdCyGEECI+yQqKEEIIIeKOBChCCCGEiDvBBShzVrJj+0rmRmkwETNnJTu2P89ThbEeiBBCCCFCMSDQhnPXbGZ+DjR8vIFDmvusVhsLckpZmmuwH2nj0LHzbFc3ShvHwXGqWpXuel471ch7bj0Z2DKllBKD20E61Pfh+Tjl3DbXOY/s4qNxm5m/YjOpH29g25FAn6UQQggh4kEAKyj5PPXCZubndHH6Vf3J3pRbylJTPfOOHWXesZPUdKczV1U4uyCnlIPjjNScOupqQx5LZ46jwtkqnT0zSymxnbe3Ocq8U/VYnfd3s76+DQwj+KFbAGPgh2YD1oZ6t4Do0Csb2HG6i9yHN7NjzazAXxEhhBBCxJzvAKXwUTZt/wWTqWFHxYu8edFLu7bzzLvQZr9hDyTSzfbgI525uQasDV+yvhtXm/P1WEnnB/YdOgty8simjUPOfnRct9CEgZJc1UpMWh4lhm7q2ro9ml96+0VWv1pDZ85D7HjhUcb4fLJCCCGEiBfeA5Q5K9mxooTkxj+y+ld/4FIwvXZ3YcWI2QAYDKSgE0B0t1HXDSlGZTkk22SANot7WshDG4caulXBD1SY06GtXhX8aFz8Axsr/khDcgmrpS5FCCGESAjeA5Qju0JffTAkYQp7aPrea/tGtfKSzg/Su6lp8LHqUvgom7Y/RG6nn1UgIYQQQsQN3ymei39gY8VvOU1wqw8LjEbAhqUb6O6mAwMF6ZrKV0M6BQbosKmWPowGFri10Ql0uhv5Uxtkm9MhzUy2r9WTcFaBhBBCCBEzARTJXuHNX23go8YkJq/YzNo5fpobcvjnXHXRaht/aQNT7ni2OGMUA1vG5WHqrufQdeXIdksbGPKY67hqrHbXj8p2SxukK/c3WfRXT+au2cyOh7Np+HgDq1856v9pCiGEECJufG/suMl/C7j1nJXseBg+qtjl3GpcUTSLuZo4oun8UZZddz/mvg0ZTWGtTpvuel471c3cmePAoz/vW45d4xzO6VclpSOEEEIkouAClLihBCgFlpMsbPSW3xFCCCFEokrIS91XFCmrJ7+X4EQIIYTolwK+kmzspbNn5jiywctVaIUQQgjRXyRoikcIIYQQ/VlCpniEEEII0b9JgCKEEEKIuCMBihBCCCHijgQoQgghhIg7EqAIIYQQIu5IgCKEEEKIuBOH10FxXO+km5pTJ71/EaDoG1Py+ODJ0Zisl3l1vYXSLdOZaLJx9q3PWXcq1oPzxczenSVkY+HAqhpYP5fyUdD0ySGWvB9Kf0ZmbZ3GBBM0Vx/mvf3+H1G0sYyyYXW880wDrUGcaZ16rJRQ/aAZrtYwe4sllIHHpUXLp7NivDFxnlc0fw8KH2XTinwuyVdzCOFGVlD8MrBlyiwOFul/cWFQFk5gza5pzCoNv6s+c8pGB8BNG/uw8c1NL+2m5PHBzrnsfaSPxvVICdU7p/PyFG8NrLRbAWsnjUDjDVsfDSx8ylhttF8FrnZijfWA7gLr1s+leksei7w1CPT3IARzy0tIbjwhwYkQGnG4gtLGsmPy7cPxzco3cb164o190g/xsUefOUysfjKtN/pXmLJv9+fsi/UgwhaJ34NZFOVAw8fyN08IrRitoOTz1Aub2fREfmxOL0KWSCsRavvaEnSCd3xyF3ElUr8HY56YSm5nDR8dcT8+d81mdrzwKGMichYhElPfX+q+8FE2rSghubOGHb/6A5ecd6i+aweANg4dO8929WMNOeyfMoK6U1/CuFJKDI6m55l3oc3RyPlNx79nPEtzDbr9VRTNYq7R/Tt9FuSUsjTXprQz5LB/Sh4mL0+j6fxRll0P7CkXbSyjbJSXO61KjQIrp/F4MZx74wuOnlTdX5rLksUFdNrrHoo2llHGOV65OJI1szPsjWyej1PVTHhvEz5nLYEupf7jZdWYXt4ynYmqMalz+I7aC+uXn/PT3Y4JQL+WRJf1Mq+ur4/wJ/MgXseFE1TviWNMwdeg+GWvh+hwq6dRXqcUt9dO7/3RqZtw1Fc4x6x9HZW++eQQ/zdd3Z/2/fVPOx6rZrxg/zmghtmXRir1N3rjfqSE6gfhwKprFO0scf7dcOvvkRKqHzS5P87ttXP8bOnTG1tk5fPUC79gzKXfsvHtK5r7ZrF2+0Pk0sRHFbs4FMVRCBGv+jbFM2clOx7OhsY/svoV7ZKmK7WjBAreOjFQMqWUpvNHmXcdSBvHwXHj2JPmHjCYcktZ2l3Pa8caec8etMydkkNToF8y2N3IwmONOAKeEps6CArOhU2HuQD2CcyoP8HtqqN51wTum2SEk64/ihmTRjLUWsfH6qLMURNYM6qVwyuVfos2llG2eAKtJ88p5yGDBbsmkFz7Ba/ssve1cAJrFk8DIhukOJfqdSdNNdcEOls9gTw5nZdRJpCXtxxSApDxE3l5inJs3XpXcPIywJZDyn/1Jp+oUKV27O+fngxngHnY+foqRbLRHJsfj5SwYjycfeuQ99fI+ToecgsUV2wBNMFe9oNzWWG9zKur6tlnDzbL15t5OYgiV1dqx/7z4K3hqBKqh13m1VU1znNNfCSPRafcA6fynWaaPjnE7Pcdz2U6ex8JtBDawpJVh5zPuXxYNAJcH+Y8xOTkLk6f1gYnAEfZVtHEUy/8gvnbN1P08Qa2HdFpJkQ/1mcBytw1m5mfAw0R+EVzW724bqGJdFKMBriu2vLj9o3H3ayvb+PguBH80NDIe3G5M6iVr65CWXEBRbgCjfuLjdyqbdV8Am/l8EpHG7hwpI4piwsYuxAu7IeMlQVkWet4Z5fq09/+Os6VTnMFQDNXUfVQjv5Qus6yd/M71Efw2S1aPpps62VeVX8iff8yZ6dMZ/REI5xSjr+85XNGOCajUcmUj7Jx9q3gPqX3Pcf75Cv4K2DRhuUUJ+nf2/zHZ9hzLLKjWpRuwnedhJGXp5ixfuke5L38yWXuf/L7lE6pZ5/6sW47buyFosOMLILIT+puqzg2TjbYmDg+Ge1PrNuurPcvc3aKmYljzED87wyaO075sOa9OPYKb/5qAyeeeJ7VD29mk1lvpUWI/qsPAhRlGXNychen+3Ibna3bfaWkuwsr6aQYgLgMUDwDDRaOJItWDu/SLDNbO3Fbyzlpo3MxJKcbARvpKUYwFfD4rgLPk6QobTi2k8oIT4i+5Aw3gmk0K3aOZoX2zuEmZUwA2Fi3voa9O0tY8SAek2dcKjWSjI2vz/hKB9Sxb/MzfVoYum/3Zf5hZwnlO+dSrpfawUSqCUzjp1O90/PxqaMAVXttoe7LjtWsmNEWPUc5aIqkwkd5IMDi2Etvv8hqy0p2PPwLdozRpsaF6L/6IEBRPgV8s2Yz81dsJjWmS5XddMRpcALAyVa+XljAhMIMoJWiwgxu1X7hXCnxp7NNNUFGo/YhXIHWiEwxOpf+TW7BiwiOI4VhT5E8OZfqJz2vBRP9Wos+dtMW38EJMGZyPsmdNbwZwN/CMU88z+rJSXSelhUUcXfpsxTPoVc2cGjOSnY8vJkd4/RqUKLMkIQJG5Z4DlCwcfRkKxNmj6QIGDuqlVObApg4HJ/gm5WbbR02GJVMOngPUPo4xdN4QxmTlzOqmNn75GhMV2uY/YmRD54sCaKmIJaMpGQBJ123M9zqT/o+xeNiY916VaDiTIEo14rJ7jdBoJERw8DaEO87tvKZOiaJzkun/a6ERDI1LkSi6dsi2SO7WN38KJtWPMSOFzL6bqnSkMP+celYG046d/E0WbshPclZwa8U5hrw/EPdjcUGpJupoM19V1Gwmju5RYZHIayb/ddonj2Bsl0ZcPVcAAW9GSxYXMDQq+ec9Q+t9oLbsq25tHlbRYl0iueUjY4nIdtL/t+ZbtiSR6OPVRRnUay91uE/Jn6fFQ9O5+WrmvTE1U6smN3qV2LGsfJVmkvG/gZa1Tt/nHNlBFM89tc6xZ7Sc+10ws9F3ZSUjmsCt7HulIXqB0v4YHnir6KsWz+diSYLBxzPw/4z4kxVqXYrabduKwG0Tt1NNMx5iMnJTXzkczVEdvEI0ffbjAHd7XU+tvVaG06ysLHb2abDbYuvsj05xdHGsevG4N6H57ZgTbu288yzmDk4Ds/tzTp9BrPN2I12K6pOKibD25Zj9Lcs36r9gr3aOhX7Tp4st2PR2WrspN2u6rENVW9bp6M2wrUF2T0F4TiuU0PxSIlqGypR2mas9zraXT3HK5tadds1Vx/ms/RpPJ53LTqpNrfnbuPsW2fhkemMbnAFGut0tmTrpnO0ryNoXkv9Lcyh0BuTwvWzorejRtmebHX9PPkds/px6m3RyrZkdHabaccWrdTX3DWbmY/vVeS5azYzf7jUm4i7W4wClGgKf1twrGWs9D6xhfr9LkL0K322zTzC7NeBapeUjRB+yXfxxJuFE5TVk/0SgAjR3ziKY7VXjhVCeIrD7+K5O7lSN1FOwwgRYb6vJmwXlfRb4rn09ousjvUghEgQ/TDFI4QQQohEJykeIYQQQsQdCVCEEEIIEXckQBFCCCFE3JEARQghhBBxRwIUIYQQQsQdCVCEEEIIEXckQBFCCCFE3JEAJW0cB2fO4uCUHBbEeixCCCGEACRAiRADW6bM4mBReqwHIoQQQvQLcqn76+eZdyzWgxBCCCGEWoxWUPJ56oXNbHoiPzanj4G5azaz44VHGRPrgQghhBAJoO+/i8f+dePJnTXs+NUfuOR2Zzp7Zo4jW32o7TqKG3oAACAASURBVDzzLrS592HIYf+UPExe2izIKWWp+RteO9XNXFV/1oaTLGzsVm6kjePgOFVKRu88aeM4OA4OHbPwA71+tOPQaDp/lGXXHbdmsXb7Q+TSxEcVuzjk5TFCCCGE6OsAZc5KdjycDY1/ZPUrRzV3GtgypZQSm06goGYPLLTBxh7OO4OBBTmlLM01AKogIW0cB8cZqTl1kvXdAZ5XFcS495OuCT4CHDv5PPXCL5icDA0fb2CbfOW6EEIIoavPUjxz12xmx8PZNHy8QSc4ATCSYgCr1eajl3T2jEuHtvOu4ATg+nlVsODQTc0pVRDR3YUVAymG4MfuFoxcr6emG7LNoRTEXuHNX21gx+kuch++u1JcQgghRDD6IEBR6k3m53Rx+lVfqwZtHGroxpRbqmz71dsRYzCQAjRZfK1SONiwqFdKuhtZeOyoTiDjTzcd3e63LTbAaAh5W/Klt19k9cdNJE/+hdSlCCGEEDr6IEBRVg0+akxi8orNrJ3jveV7jSeZd+wo8863QXqcX5/E1s17IT50zBPPs+PhbDpP/5bVHnU4QgghhOizFM+hVzaw+uMmch/ezI41s3w3vn7eFagYRvBDR1qmu5sOIMUYQp4mYgyYjf5SUd7NXbOZ1ZOTaPh4AxvfvhLhsQkhhBD9Q99uMz6yi9Wv1tCZ81BAqY0FRiPuqRpXGmhPmqph2jj321FUUVRKiaGNPzW65Y+UtE+6mQqvj5zF2u2bmZ/TxEcVUiArhBBC+NL324wBx26WMZd+61pF0N2y28ahY+fZrn24ny3Cyi4em/5j3drorcR0u3b6aM8D0F3Pa6caddI79p08qi7VxbVz12xm/nC9rdVCCCGE0IpRgJIgvG5NFkIIIUQ0yXfxCCGEECLuSIAihBBCiLgjKR4hhBBCxB1ZQRFCCCFE3JEARQghhBBxRwIUIYQQQsSdqAcoqWlpDBgwINqnEUIIIUQ/IisocWrG7PKgjiei/vRchBBCRJYsbfQzgUz6x6sPRLS/QPoNJuAKZnxCCCH6p6hvM05NS+PWzZv09vZG8zQJL5zVBL0JfcbscrfjjtvezhOLoEA7RiGEEMKhH6ygmCmaPQlqD6D6Oh4PaePLKeIMx7+09N3QgqCdqL1N3uFO6o4gRRu89AW982iPScAihBAC+kGAYsgdQ5rtEn/2EZxgyCc3w0rDiVCDEyUISsNKw4nPaIrS9/KoAwdvgUS00jN9IdAgTAghhEjwAMVEmtlEt8WCr5jBYP4+Btv/cD2EwCJtfDlFGRYa6q2k5YU80ICogxJfk3egE3s4qySRSjn568fX/RK8CCHE3SuxA5T0MeQaLVxosPpoZCY3z8T12is+gxg9htz7lbRQtQVD7v3khjPWAPkLTgJtE4lxaIWyohNukCWEEOLulNABStoIM7Se4bqvRumZpGHxWZ/iTXfDZxwPdXAhCmQFBQJbXYi3FI+D3nOTgEUIIYRa4gYohnxyM+B6ra+6EhPZ+QEEMXEikOLVYLbleusr0FRSpKnHIMWxQgghfEnYAEWpK7nke2XEYMZstNLgM4iJD+pAwTF597dVBr3no3dcCCGESNArySp1Jf6KY9Pyx4RcHBuscNMp6uDEV/1HKOdxPGbG7PKQxxnJ4MgxjuPVB2Ky3VkIIUT8S8wVFEddiZ/iWHMGIRXHhkIdPIQ6kUciCNBLo+ilcqKV3vEVYAV6TFZUhBBCJGSAEu3i2FA5Jv1QJtlAtxX7CyyiEXhEor9ALzonqyhCCCEgEVM8jouuXfFfHNtdf6nPi2NDncgjGVAEusMnkJRRpFM7/u6T1RMhhBCQgCsoAV10zV4ca7H4SgEFcrJ8fjh1DAbVodyp5cr1UFq9XzY/3BSPtmBW21+4qySBrsgEej2WYM8ZjeckhBCif0mwLwtULjlvqP+MP/uoP0kbX06R8RJ//q++qT+JJH8TubYtBL9iEqmLsAUqmOueSJAihBACEi1ASZ/EjGK4UO2r/iSwLw8UQgghRPxKrABFCCGEEHeFxCuSFUIIIUS/JwGKEEIIIeKOBChCCCGEiDsSoAghhBAi7kiAIoQQQoi4IwGKEEIIIeKOBChCCCGEiDsSoAghhBAi7iTYd/FMIrXyZ2QmOW730PLaRtovx3JMDgUs2rCc4iRo/uMz7DkW6/H0F7NZ9uI8hp/dzUv76mI9GLu1FFaVM6RmNzXv7Y/1YERYjMzaOo0JJsdtG+fe+IKjJ2M5pv6laGMZZcPqeOeZBlr1GjzQwcnVN/jvHfks+dR1eN36uZSPgqZPDrGEEqofNMPVGmZv8fVFsYll0fLprBhvTJznNSWPD54cjcl6mVfXWyjdMp2JJhtn3/qcdadczaq2nuah6xMofenesE6XYAHKGdqrztAOMOuXFJenhNfd6KUULP0BPQfW0nI0EuOLJ/aA6cZBKl+tjvVgRMJbSOZzy8m+cYATe7bFejB29uDi5jle2aQ39WmDD5fm6sMosaWNo88c5ijAwgmsmW2M6ogjzj5mb0FV0cYyykZpDlp9BAteZbBg1wSydO5xvZahsPLR6no4PcEtOAFovGGDUdB+FaATK2Z03koRQevWz6V82GVeXV/PPr0Gp2x0PAmmmzb2YSPnJui9KZX/Xx4PrT7HyefCC1ISLECJZ3Xs2/yM/psqhIidq94CmLuEW0CiBBqPb7QF+Zq08t7Kw0oPK6fxeN61EIIcre/Y+/pX5H89lh8EOIlZb4T5DfVxZt/uz/vBnGHlm1OaQ5+mUJr7LX+Z38TeB/I9gs9ASQ2KEELcNVr5rNYGo0ZSFOORLHmuiR8lZbL/mQDWRU7Z6Ij+kESQGm/YvN/55kj2f32DHy3uYEmI/fffFZRZv6S4PNN1u+kYtTs/BGDgY5sYO2mI8y5D+TZSyx23Wqh/9jcEHqe7ak8UXdS+/m+4l0sobfLqdrOPx1ky0dG4kSPP7+R4wG1gxoqtzBl+lr2b36Hefixv0b+yZGKH0q7gcZ57eqJr1S1pHlUvznOOJJT6GKX/JNURneeoPW+X+xiZuYqqh+DI83+h8MV5zqViq05tyYwVW5mT7T6GWH9uSll2mELN+naPps2QBf9JSYnqj22zfjrEvS8rTW/8Ey1X7Dcf+B1Ty1Lcj+VvpWRxCT2Hy7j4qZJqSa87QFtBOdkm6KnZzUWeUM6tPecDv2NqmerF1NyfsuwwhRzgxFdFqnaqMdnP7fxtMZUztcr5y0LH4TIuBvnpSDftANyq/YK9u+x/8EpzWbK4gKHOl0m1CqC9zzSBNbtUTzGslIMPCyewZnaG67Z6ZWbhBNbMhsPVUDY7A2jl8MprjN01gSyPuhY/dS+luSxZPJKv3zgHC1XtVOfTvoYTFpcxYbH9RiApHGsnype921M3OqtMfmtHvNG+TqDzC/wdDxTeoPN0NpVeunFfXbCwZNUh9wb2eoiOTw6x5H3HQTN7d5aQ8uXn/HS3a/J01no4edZNOOsrnGPWpjqUvvnkEP83Xd2fhQOranjZy/PQox2PVTNesKdbqGH2pZFK/Y3euB8pofpBOLDqGkU7S8jW68/v62Rir+qxMJoVO0ezQnds7u+DvxUgJdVTz4KnUtj7pl6LWazd/hC5NPFRxS4073D/DFCUAKSD+mfX2n8vlOLa4lVQu/ND7ry7kdp3iVANiiq1M3MVVQ95r4sxTVzOkqaDVD5fjaP4c86K2RxX1YiYJi5nSddZ9j7/DvX2oGXOhsdpVk/2PofzDi89/w4Rq0GZuYolE6H29WfwWqNqf97qNjNWbGXJBtyDFHKY86LSbk+dI/B5nEVnHcGOfcw4nj84i2RDfwZhstdeUENN5TP2oMReJKtqpQQdTVys/Cf7Jz2lzdTnRlLzkuNx9r5MTVys/Lm93UIyl21lyJVnPAIeX4aUlGM6XEZN+n9SUvAEhTc+48ThIqaW3U9m/jZarjgCpg4uVpa5zvXccqYuwz2IySpn6vAaaip/To9jjAu30vHSM/RceYaaStXYw6xBUSbWVg6vPMcFcAYbqIMTZ13FYeekXbSxjMe3okyWJxvYe7IB/zUokZOxchqPF9s4vPKwMm77uddsVJ87g7LSOt5ZeY37dxUwZWsBX7/xBR0LpzFhTgZHT7biCAiSa7/gFfXzXTwNcA9iJiyeRnP1YV7Z73hNJrBgoRJ8XdhkH4efGhQPpbk8XGzkVm2rPehQVlQeLx5JEa3256Y8l7GjoLk6uOBEeZ3weO/KhmkaPtDF3yVB2zfhFVEG5JESVoyHs28dcg9ING2qHzS5tVm3fi4rtgCaeozsB+eywnqZV1fVsw8jL2+ZTvl6My8HUeTqmtjtgYK3hqNKqB52mVdX1TjPNfGRPBadcg+cyneaafrkELPfdzyX6ex9RB2Q+OIKOvzWoATr0yT+ezH83YjvgODf636Y4vkJ6ZOG0H5AvQpyhvbPWyB7dGyLrJrUwUI1F5uA4Wby1G3cVh7q2HeiEZIK+PuCPh6rXV56CtBBq9cNNAUsmpqD9ew7bgHM8SNnsXqM233lpf5sHVaSGO74JDhzHsVJXdTuCzAY88rAlimzODhT/9+etCC6eqCcbJOVpv0+Aoj8rWRnQcfhn6uWobdx8XATmApIyVeODFnwhNLXG+p2+2nZE1xwAoC1hibHyoUJ2qq1QcNasktMmjHtp+VEE2QVuf9BtNaogqj9dNRZwZTiFoBFhpGMYcDVa66J8GQrX1thaIrR2WZWaQa3as+5TbgXjtRxyzSSotIQTjtqAmt2lan+TWNWUP1kcH+xkebqc6oJ3KYEHJpUSfNJx4RuZOjNOo+gIWNlAVnWOj7epfq0vL+Oc1Yj901yL9B1Wwnaf41mIDk9hCJeUwGPO5774gKGXj3nCgaB1jPXuEUGU1a6+s5YWUAWrXwV1EqU8jpp3ztdud+STCZndT9VR9aidBO6dRJORl6eYsb65Vm3AOblTy5jNX2f0ima5ldrmO2cwG18cxMYZmRR5IeuWcWxcbLBBqZkcjTNmtSrI+9f5qwVsseYib17udoOyYVdXtI8R9lWsYHVOqsn0B9XUEabGYI2bePQw6DRYI2Lbcle3LC4T85XO7CSo0ziMdhlW7/vTzRPnMecF7cyRzd9lcPwJGXlp2qi5+ODGXdeegp01fH/wn6e3aw/FZltWUPSU8BaR8cVH40yUxhCkytgcPj0Ah1l5ZgygSswJNUE1hrffQXqxjV6wB5EdNBzBVBlNMkfyRBgSNlhppZpH2xlSL4ypr5lo/Um9knd/mm9NIP7TNB80vE53UiKCYYWT3NL2zikZAHBbgEOt0i21EgyMHR2GWtma++0kVGKPXCx0dHsuudWh2d+Pj3FaA8YdD5xpBgBHzn9ULmlfOwrP7tUq1gnGzg1p4CyvAwyaKAVI0V5SqBxwWfHGqVGkrHx9Rn/z2HJiG7AEMKTCd6+3Zf5h50llO+cS7leagcTqSYwjZ9O9U7Px6eOAlTttYW6L285FFR6J/Js9p1OrtvqoCmRi3D7X4Bi196vtg53ceOq/1bRUc2e56txpl+e3koxnrUserUkIvZCqRGJprYOG4zKoGxXGY646VbtFx41I271KHHCZ22L3v5bb0La5hspNo7ur+O+xQWMXQgX7M/nwsVWymaPpKi0gVYyuM/Uyqkovv57vzHwbNR613KkMOwpkifnUv2kZtUB/TqQhHbTFj/BSftA9obwsP4XoFy20MMPGGKeBJyJ9WjCNyoFk88US19x1NrYA5Wxs+FYNdDIjS7ISs0hIks8SSlkgWsVqcAcQv2JgS1TSinx8gGt6fxRll0Pojt7usOZhrGvTji1dNBDCekPQIc6GHigiBSsNLUoN3varZCl6StarlyjhxKGpC8E4uVico5Uia8iVhsdVsiK1mpCKE7a6FzsSK+ENyYlQEsmHWIUoDi4r/awv45zpdO4b5KRDEZCsKsnTkbNKpc9rafVMIhO6pn41EjogzSPwsa69apAZYwZsABW2q2QPdxE3PzMhcXIiGFgbYj11gKA7xiVCp0XB4X06H5Yg/IhbWd6MEz6GZmz/DS9bKEHSC36SV8MLHgFj/PcQzlYzx507uJpbu9yTuKgt8PGoY7WG0D2D5gR0UEpKR1re6PzPPtONEL2PJ5bFF6hjFKTksOPHP1odwYFTEnxzDum/y+Y4KSnpo4esslesFA5oN3VAnDlJG1WSCn7naq2Yy2FZdnQ/JlzN07Pe5/RQTaFz21VPd5eJOu42dJBDyYlLeTtfAHZRlONlSElyyl8IOgH69hPzw0861c8zGbZi1upenEry2bqt/BdR+Go7ZjAkpX+6i3UKaNoUgpJhxZPw/FjEHJPu+poJoOyrblk+G/uX3Mnt/CsX/HOyKyFBQy1XuOCW6rMxoV65Tk+XkxAaRoP9nqirFLHc/N+oTw+TeK/uyB/XBiTqH3rcYrz58ms2Y3ijZLScaVqbKw7ZYFRJXywPMEu1Kdj3frpTDRZ+MyxGhTE69R4wwZ6dTeh8lsMPYu12zezY/vzPFXoeW+CraD8hMxfzyRVdSRz6TYl9a7aRnzn3Y18xSbGautQVG0UH9LympkhS2dS/GvHX9Ngtxkru0zUK7yONIh7UWyAsn1vC67f9w61BcvtNSH2c/zxB1Q95NnV8Vd3k7FB1VanP390t/xq0znHdlLJKqoe0tShaLca+1P3Di/9MUXVTyNHnleeQ56/x0bLlWeoOfw7ppYtZ2rJcqCJi5W7GfLcctKdjfbT8tJ+epYdprDqsPNoT81uTrgtFWzjYmUTmc8tp8TZTtnS61xRufIMF2v+kxJn7UgTFysPkF7lUVDlV897/0QN6r7svGx/9qdjz26anlvu9hw9Ukg+V7xaea+6lTWzdepL1GmP/ed4hQme7XRSIxc2fUHG1mluKSOPFZpREzzO52rjeYVU55ZdVe1K664veGflNB7X1qEEXd/SynsrzykXS3OrQwnxEvsnG9iblez+WmlfJ23Ni5cxt+6qo3nXBLKuehb3er5Orj7dr8p7jhTVc2uuPsw76dN43OMX+F4+vTicH022sPcBU4gX8rKw5BML1Q86akeU+pL2R6YzWtXKccl8NY90zvs1zKZE1ZejYQR3tPgak7P+Jfgty2B0pq0AZcyr6t23aAfwOoGyuyhn/VzKVf2Fk/qq+t/1JHfl8arXVbIm2jshNzmJMZPz4aJ7Ydz3xo6b/LeQzhyg1LQ0bt28SW9vbzRP0w/IpelFP2ffUtypDSD0thqLGFCCEKJ1HRkP37H39XP8qH0sPwjkYm3Ck3N7tLbwNw48dY2/zO/mv3b4uZLsnJXseDibztO/ZePb7gFKP0zxCCHiUlay6+JqOsc72yQ4iR0js7YqF2zru++/vJclb+TRed9X/GVrPNRLiIh5oIOT81voPJ3tZ3Usn6fuzwaa+PRtz22FCZbiEZHgvW5FJdj0jBD+7D+nLPd7bNe1uV3YS/Qh9VV5Y/GdRZ+mUAqcXB1Oqic+eF6tVkeUUkbxpup/K18A6euLAueu2cz8HKCzhh0Vf+CSThtJ8QghhBAi7kiKRwghhBBxRwIUIYQQQsQdCVCEEEIIEXckQBFCCCFE3JEAJc7NmB38Bbqi2U+k+wq272ieWwghRPyQbcZx7nj1AWbMLud49YGI9xOJfvua9nn4C1gS7fkJIYRQSIASR3xNtr7u05uEoxV8OPoNpn+9sUdqbL76kdUWIYRIXP0gQDFTNHsS1B7gQpv3VmnjyyniDMe/tPTd0EIQ7MQdzCQcblCgDkqCDVK0KzfhnF9WRYQQov9L+ADFkDuGNNsl/uwjOMGQT26GlYYTIQQn6ZOYUWx23bZd4s//dYXu4HvyKZQVD1+P8RdABHs+vfbhpp+8BSqO4/76jebKjBBCiNhK8ADFRJrZRLfF4jNgMJi/j8H2P1wPNqow5PPDYiMNJw7Q1A2O1ZofjrdGfCUmlIm1rybjcAIhXyKRmorEyowQQoj4k9gBSvoYco0WLjT4+qIpM7l5Jq7XhrDq0X2FP1erv8DIQkO9lbS8TNKwcD34EfsVyZRNJAps9R6vPRapQl4hhBDCIaEDlLQRZmg94ztQSFeCCV/1KcEzYjBAxPM89E3BayD9BZpmcXAEKd4eI6sbQgghgpG4AYohn9wMuF7rK9ViIjs/gCAmmNOaTICF7igEJ9EQ6upGpFNO3lIxkVjhEUII0f8k7IXalLqSSzT4LI41YzZaabgSoXqR9EkUZUB3/aWopHccIj3pqlc34i0Vox5bqI+XnT1CCNH/JOgKilJX0l3vuzg2LX8MBtul4Itj9Rjy+WGxGWyXdGteoj3xh7tjRepEhBBCJJLEDFAcdSV+imPNGYRWHKtlyOeHU8dgwMIFL1uM/dVghCtS1zCJxyAl3sYjhBAi9hIyQOnb4lgzRY7gpNr3OR0BQLwFAeFcYC2SY0ikfoUQQsRW4gUoAV10TSmO7a7/LMxaERPZP5qkBDp+ghOHcGsqIr3SEY0LrIUiGtcriacgUAghRGQlXIAS0EXX7MWxFouvFFAA58qdSK4RlAu0aSbVVu+XzQ/nyqralQ71fd742tbr7wJr4Yw3UHoBklYkA6Z4W8ESQggRvAQLUPq2OLa74TOON4TXR6C8rXSE0k+gj9V+I3AsJ/VIrurEa62NEEKIwH1v7LjJf4vmCVLT0rh18ya9vb3hd5Y+iRnF+Em3BPblgUIIIYSIX4kVoAghhBDirpCwF2oTQgghRP8lAYoQQggh4o4EKEIIIYSIOxKgCCGEECLuSIAihBBCiLgjAYoQQggh4o4EKEIIIYSIOwl2JdlJpFb+jMwkx+0eWl7bSPvlWI4pOHmL/pUlE5Og6SCVr1bHejhCCCFEXEqwFZQztFetpfbZtdQeaAm/u9FLKfj1NjJnhd/VjBVbqdrwOHnhdyWEEELc9RJsBSXx1e/7Nyr3xXoUQgghRHxLsBUUIYQQQtwN+u8KyqxfUlye6brddIzanR8CMPCxTYydNMR5l6F8G6nljlst1D/7G6wBnWQ2y16cR5bz9kSWvDjRect6djcv7asDVLUnOvc57y+o40hdAXMmJkHXWfbug0VPT8REI0ee38lxR+OCx3nu6YmYHLe7zrJ38zvUe74IrN3+ELk08VHFLg4F9JyEEEKI2OuXAYoSgHRQ/+xae6ChFNcWr4LanR9y592N1L6LUoOy9Af0HFhLy9FQzlTNnueVQtcZK7YyZ7i3QEGd2lGCmuF63SVNZE7qQSpfN/Pc0wUsWtTBfz1/kMIX5/GjRQUc31cHM1dR9VAKta8/gyO+mbFiK0s24PXcQgghRKLphymen5A+aQjtB9SrIGdo/7wFske7Vh3iUhe1Rxw7e5Kg7qBr1QSAAhZNzcF69h1Uiy8cP3IWa1IBf1+g7e8o2yo2sFpWT4QQQiSY/reCMtrMELRpG4ceBo0Ga9xuS+6gtQ6wBxo32uqAHNX9OQxPAtPE5VRN9Hz08FFAnedxIYQQItH0vwDFrj3ktE3809avCCGEEP1N/0vxXLbQAwwxT4r1SKKgkRtdYErN8d9UCCGESGD9L0DhQ9rO9GCY9DP/F2CzBzOpRT8J+6zN7V2gWwcSSXXsO9EI2fN4blEgJ5rF2u2b2bH9eZ4qjOa4hBBCiMhKsBTPT8j89UxSVUcyl24jE9y2Ed95dyNfsYmx2joUVRvFh7S8ZmbI0pkU/3qm/Vgw24xd6vf9G0dStzLn6a0U24+pUzEzVmxlTrbqAc46EmULcXOgJzq2k0pWUfWQpg5Fd6txE+2dkJucxJjJ+XDxSpDPSgghhIiN740dN/lv0TxBaloat27epLe3N5qnEd7MWcmOh7PpPP1bNr4tAYoQQojE0A9TPMIln6fuzwaa+FSCEyGEEAkkwVI8IlBz12xmfg7QWcOOij9wKdYDEkIIIYIgKR4hhBBCxB1J8QghhBAi7kiAIoQQQoi4IwGKEEIIIeKOBChCCCGEiDsSoCSoGbM9vgkx4HaBPjbQtsH0F85j/D0uGn32dX/eHhvpMQohRLyTACWOzJhd7vHPX/tENGN2OcerD0Slz1Bek1AfJ4QQInrkOihxRj1xqydN9f872jgmVn+TfSCrKL76cLRVT+TaSV19PJBxeAsIQglc1K9BoK+J3nmDeVw4wWMw54h0ICeEEImiHwQoZopmT4LaA1xo894qbXw5RZzh+JeWvhtaBIU7cQdyPJBza4MUdX+BrEJoAzBvAZnemLX/7y2oCDVICYa/QCyS75cQQtyNEj5AMeSOIc12iT/7CE4w5JObYaXhRLDBiRL8pKkPtUY/yAlmoormhOZrHNpgwnE72LEH2l4bDKn/Xy+w0QukoiGYmpFQgxa9/5dARgjR3yV4gGIizWyi22Kh20crg/n7GGz/w3VfjXRZuOA2ESgBy4zxfbsS428S9LZKEujtQNMy3gIKdaCgd5+v29pjvsal7V+d1tETzCTu6zn442+cjmP+zu+rD1ldEULcbRI7QEkfQ67RwoUGq49GZnLzTFyvveIziAmMhYZ6K2l5maRh4XrY/QXG1+pBKP2o+Qp+/E3YwdaU+BtzoM9J+zqEer5ICXenlBBCCE8JHaCkjTBD6xnfgUK6Ekz4qk8Jmu1WBIKd6PGW+ghm0vQVzDj6DydYCvYxvtprg5W+XG2IRI2P9v2S1RIhhEjkAMWQT24GXK/1lWoxkZ0fQBATxDmLIrYaE7hgd5cEk/IIpIZCryjWXxt/41KvzgSzcuKtv3CEswso3BoUb0W+Qghxt0vYAEWpK7nke2XEYMZstNLgM4jxR1Mo23rGd0FulPmbPAOtJ/EnkLRSoCso3u4PJigIdfdPtAUadASzrTrQoEcCGSFEf5agAYpSV9Jd77s4Ni1/DAbbpRCKY9XcC2XTxpczY7aFC9XuqzJ9tSwfzjmCmQz9CaboNtAtyMHsutGueuiNKRChblMO5ToogT6/SKSN47qNUwAAIABJREFUhBAi0SVmgOKoK/FTHGvOIOLpmOtfnuH67Enk5pq4rjp/JLa1RnupP9yVBn+7eAJ5vF57X0Wv6jZ6fcVKsCtGEmAIIURwEjJAiVlxrEq31TM4ckzg4UxGodRlhHPNlECDllhPsNqaFbVwVoF81esE8pyDqUERQggRuMQLUAK66JpSHNtd/1mEtwKbyP7RJJ8Xhgs0neFPuKsVkaQNmrzVokRboLt4Ih3YBTumWAdzQgjRHyRcgBLQRdfsxbEWi68UUADSJzGj2Ox2qLv+M477TC2FPmF72+ni7z5/fer9v16bQFcT/J3bWwGrr7EEsyPIn0hdbyWUHT0SmAghRGQkWIDSl8WxQNsZjleH2UeAfO108XefL+FOmNpC1GD77asJW1uk6+01CzaICKa2KNiARgghhHffGztu8t+ieYLUtDRu3bxJb29v+J2lT2JGMR47aNwF9uWBQgghhIhfiRWgCCGEEOKu8L9iPQAhhBBCCC0JUIQQQggRdyRAEUIIIUTckQBFCCGEEHFHAhQhhBBCxB0JUIQQQggRdyRAEUIIIUTckQBFCCGEEHEnwS5177CQzOeWk22CjsNlXPw01uPpL9ZSWFXOkJrd1Ly3P/qnK81lyeICOqsP4/10GSzYNYHk2i/Yu8sW/THFDeV5Z2Hj3BtfcPRkrMcTQ09d4y/zYf+ikVQ6D5rZu7OEbCwcWFUD6+dSPgqaPjnEkvftTabk8cGTo+lQH0sQi5ZPZ8V4I9YvP+enZ8188ORoTNbLvLq+nn1RPfNPyPz1TFKdt3toeW0j7ZejetIwTSK18mdkJkH7gbW0HI31eNw9Pf4t/pED/OTL36uOTuVfp64k5cqTrGmN1JmUPicbAds5fnPiNxyPVNcxkqABSryxB0w3DnBiz7ZYD6bfy1g5jceLjZ53XD3HK5si9tsevIUTWDPb6COgUIIOfAZkfT2mOPdAByfnt3Dlo8mq4ATASrsVsumkEeCGDUbp/EwkqH1tVlZgpKPNBqdsdDwJpqifdRKplTNJbTpG7c4Po342/+yBx414GU/wZuS+yj+aG/k/R36vuecE/3blH/iw+C1eqY1MkPL0+JVM5hy/OZL4gYlDggYo+2l5aT8tsR6GiKFWDq88x4VYDyNqWnlv5eFYDyLGrHy0uh5OT2D+m4G0t9F+NdpjiqGbtuiunoz+e4Yn9dDybqIFA2dorzpDe6yHoZVRxS/z4fSJSl7Xu7+1kt9ceZVfFlfx9BEvbQL2zxSbob62/wQnIDUoQog4VbX1K/K78nj1pXv9tt3XZu2DEcWKsloUdaOSMfTBae4O/8wrxTnYrrzJv/nITB9veJPTthz+cfw/993QEkiCraC4ak8UVpre+Cdarni2Sa/bzUWeoKTE0biJi5U/p8N+K2XZYQo5wImviphalq3f3wO/Y2pZivux/K2ULC6h53AZF1uU/x/iOLWpnKlV5c6RhFIfM2TBf6rG7OU55mvOa62h5qVn6HHcfuB3TC2Di5UXSK8qJ8V+uEentiRl2WEKs9zH0EMIFk5gzewM1QG9FQ4js7ZOY4JmrbpT01XRxjLKRrkfuxXMWLzWttjrOtxSQdoxaWo+SnNZsngkX79xDhaq2qn60I53wuIyJiy237DW8c4zDQS+guuoPXHwtlKk81qqzhXUmOyv11CdfpzPj3O8cnGk6j3Wq43x81ra77+v/gv2thX46cvKxPvgykcp7NV9nWysW3/IdfP9GmYHUGeyzl6rgqaew3ncTl3LotSDwNm3PmfdKVVnmhqXdevnUj7MvV/lsVYOrKrhZYBHSqh+EA6sukbRzhKcf3m+/Jyf7lbNZG7PR/NcY2H0UgqW/oAetxoPpV5lyJn/oO7dMzhSMsMv/wdNLGDsJMdfqBbqn/0N2hjLtGobeY4XQF3rYj+XM1hKmknxr2c6H+eqM3HVnnj0oTHwsU2q8QCaNJZp1TbyOEbthdEUl2f67c+vjL8jj0b+T8MJPw0dqZ4Z/Gv9730GM3ejBAtQVKkde/DgzZCS5ZQ0H+BE5TYcxZ+Fy9a614hklTM1q4mLlWV0YJ+sF/+OHlUg49OVZ6iphIjVoDzwO0pKoOmNMk3Q5d5GCZpcbVKWHabkua3uQQrZFFYp7S5ecQQ+T5BZs9/+OPuYqaGm0vE4e5FssOMuzWVJ4TVeWXnOfkCZiMq25tLmnOhUwcEzra7HLS5QdWSf4KjjnZXuj0sOZjwnW/l6YQETSnPJ2K+aiBeOVIpOjziOuApwX3EU4C6cwJrF0wD3iXXC4mk0Vx/mlf32NrMnsGChEgBd2HRYCSAiUu/hSu0otTb6rYo2al8ndwGPyXn/Yef9RRvLeHwr7kHMqAmsGVbHOyvP0ep4nxbmcuGk5n3y+1rC0OJprKGVwyuVMRZtLKPMrS/gqS7yGc5/NQT2qgVCCUJsmkDDyMtbpjPxZg2zV1mUQ1Py+ODJuexFCTz27b7MP+wsYfREI5xyzSCLJn4fk/Uy/xF0Aa6Z8p1mmj45pAQhj5RQ/eB09j4Si2JebVEsZC7dhmOK1k7kgTBM+hljm45R++yHzv7zVv1E1Y8jsFAHLpNIXbWUgZdf487l16h7VtXOaw2KKrUz65cUl+vPB0ogpD6XMqbiSjNfVb3GHUfD7JkUD/8LXz37G+44zv3YUrrUbQL0tDkHbOfw9mfcTet/U085KUZAAhQ3/TfF06wOFrbR1gwMH6mZfN1XVTqqa+ghm/QH+nKgLkPSU4AOerz+VC8kc2o2PTVvuwUwHdU19JgKSMlXt3VfeempqaMHEybHX54Hysk2WWna/0xoKyZqJxvY61acauNCvQ1MyaTbj2SsLCCLVg77KmJdWMAEk41z+wNZccigbFcZa1T/lqx0FEnaOHqyFUwjKSp1PaKoMAOs17hwUjUmax0fq3cH7a/jnNXIfZPcCy6b1asx+6/RDCSnx6oo00jGMOCmLYiVGf1+ZpVmcKv2nFsAceFIHbc0r537qoqX9zfA1xKrEug4VoXaOtz7Algyohu6hvNpRHboGXl5y1zKR1k4sEqzCvLIaCaaLBzYYnEdO1XPZ1che4zZfsDChatgGj+adc5GZv5hvBFrgyWkuhC33UbvX+asVX2+vvQhLc+upfbZtdQeaEFZNbDffnZtaMWpbkHNh9xqAoabGWg/MvCxBWQm9dDymnpV5QztO4MPBPwavZQR2dB+QH2uD2k50AJJ95E0WtW26y+qgOUMXZd7ICnZOe7ATWWUCWzffBFgPcjXdNggzxxGmse+YlMbwz0C0ZBgKygRZu1wn5yvXKOHEoakLwT6apuFS897n9FRUk5h1WH001fZmEzK6tDUkuUejzdlQmAhuz0YstbREWB7f/TSMuqPA+kpRrha57OoNSPd6BZA+OanSHb/NZpnT1Amx5M2IIOxo6C52hX8pKcYwVTA47sKPB8f1x9nlABswuwJrNlFCGkkByMpJvuKxi7Pe1OygABXgoJ6LTWBVeuuL3hF85C8tBvA8MBO7kf2g9PJxsbZt+xpFpVF6SbASPnOuZRrH2g1sgjYB7z8yWXuf3I0RY8A7wOPjFS2OO8O5WdEW8xr45ubwDDX+fqzgWlDoOsvdPXF1uVRyRho4Rvt1uOjl2kvn8ngUUDEx3Gf8iPfFzKq+LA4BywH+InHTqHEd3cHKF70tPV9cKLYxsXKbTjTL4sPk41nLYteLUksKcGJex2Br/RE32jls1obj+dlkEEDrQtHKis42pct5Mk9xvafU9JN9jSZEhiEtrPpVqSuMRPB17L++nDc8g5haPrkc9qnTGfikyWsO+UZpGC/lorncZVTFi4/MpqJY8yAhXVjzFi//Nz3Y4IV7V06oo8oKyLBrofZrF8Hf6rWSn5yBCVQmfMqp0+s6Fd1LP03xROK/JEMwYo15vuX99PyUhknKnfTZIWUsWvtx5uwWmFIarbPRwfMlOKe8srXpsACYU83XK3zX3cxzIi6jJasZFdhpnNM7kv9lBqDqz9RaT1zzZmqKCrM4Fat+wqOXmoh4ZxsYO/Kw7zyRh23yGDswmAebKPDCkMj8HEv0q/l3m8MkHSDByKSbrWxbn0NTZgp35LHItU9yu4fEyOmBNDHKQuMGsk6zBSNsvBZSKsneoyMGAbWG/15J5LLneuhpk5CcLWTbjIZOktzfNZoUunhdlS2pZ/gqhWMI6YxI6D2yoqLxeavoNaH1v+mHkPfrdz0EQlQnNZSuLiEIc2fudIqLR3udRva3TNO++m5AWQV4b1sNxRKSqenvcl5npYTTZBVTsmCoGYiD0pNSjbZjn68PjfFjBVbqXpxK1UrZmvusdFqX552BB96F1K7cLEVTAXc7xi2x64fe0BBBlMctSTa3SXBOtnK11Yj903KZewoG1+fcZ9QWnfV0UwGZVtz3QOnUDV3cgudmou+kJXMUGx0NAczJnutzqgJqvqd0ET8tXwziSvc4O+mfheJ3gALS966jNU0mhXqIOX9y5y1GpXVFX9dvH9NCXJ2lpB99f9v7+7jorrORY//2o9aYQYUhCGGgAITwWpBDMZoE18CWL21L+eKx9TaRmijIR89tfEaGw05PaGaJtxYe5NPjGmrSWs9ScF72hx7tSLxJa2GakVobdQgCEgNLwLKjBjDJ71/zAyz533PGzPI8/2nnT1r77VmJOyH9Txr7asOsydN3aYgbYL5tWU3WE/+1w8eJFvre8Bj+W9z41In6bVA+bCNPiAiYbr5gGNxrVq336rmGomkljymCFLMRbI2Lc/wcTeQfK/vm9R9+Be6e2HcovWKa3yVxEWJ0FwdtB1yd7U1geZe5qr5z0r3eVK5SdcdNPMRKEMsxWNaZaIMAixpENuiWJW005hWat0Mq+/sTk4qUyeXNnDh7H8xLb+SWflgKqo9QHypQ7aartd30rxxtbl+xHzMy2XGTpf82qdzjn+Hk/yCWfl2dSj2S409ubSBs5XK6zRzoWQnERtXO/krWI/OTTnAuS21ZOzIstYfGOrZWxXNcmUsU1HL3vjZLM/NZ12uuU3xVR7akWVtU93I7qRo1uVaaiLaqSw+ga5sNhMdejUVyeYrDznsJGu6Aa/L1TPmSi37HGZ42tlXXMsS5djN5/m0Esdh/DhNeyRZvgNn/TkEZZqBz2lNxdgvRXYzZk9jqqhlO1m277sYt3sB/i7RUnMZCnI6KWW83S6yPvpzA1+7J5qqh+/l8VeimbDmLP8bI//rB3/kf//4QYc6lGaHLfLb+H9/NZqWHL/bhr3ynTXMVF7nylly3x1P1cP2LTVkf/tLVH3b/NLwIa+t8X0L+5ZrvZAchTZ7IXPLXwnSRl3v0HrgXjIXrSBz+gpMxbR7aH1khQ+VQu/Q+tQVbpWsIONFy+9s05Je+yJZwyt7aC1ZQeqL1t/t1mXGblYgDRTqmlb6fLxmm801bp7ZQ91bZ7weuWrmlTk5qd+Av7qrDZnFs2mmGpI7KTUTKJ/JmJrzz2B2MC4ujus9PfT39wezG6/FrqokPcbLm7oQYhAZ2F9+nvjTWcxUsVnbYFi6+kEeT/mH78/E+Z/TqHpY67inil9yWbV1IUm9Nex+fi8Ngbqs8I+ulHcy493WhcxNeY31aR38NgA7yW7PWwQB2jY/XEiKRwgRprQs3p9IdE4t1RsDlerxw/+cZpo9+b/BfmCfd1KXfpEkoOWkBCdhpb2E37ZFkjPrNZ51lurRlbI+LZKGOn+DExhYqpy2XmXdy9AwxFI8Q4/jzrBOeJueEWK4eHM8k4EPFgcw1eMl6y6z9pu8hZh+ORuLstHSS92uDZTXh3pAwt6uv34b+CVfd0j1mFI7DQGb8TjJcycnsj1vEevzfsn6O+RpxsM2xSOEEEKI8CUpHiGEEEKEHQlQhBBCCBF2JEARQgghRNiRAEUIIYQQYUcCFCGEED6bm+u4ceVgXd/X93ztz59rBPt7uhPJMmMhhBBes9xwj1UdsPn/as5xx9M11I7NMi5vr+freSLwJEARQgihmrNgxPL/PQUq9seDEQgorxnKIEXNLIoEQe4N3wBl/noyFyVaXw88u+FOYN76euB1E4c3BesZHaEzsAmeL89hEi6ZvtcuLpR8h65QDGDeGkoXTLC+bj5IyWtVoRiJ3yJTHmJGwj849f4lbrpslMaMWXfTdvI9ml02Ci3ljdVy83Y1G6KcUbG8dnVNX96zH4/9TI79eYM9I+KqL5mV8d7wDVCOvETdEYDpjCtZQaKn9h5o12wjNeYDzpf+zOGBV4Ovitc3mX6hpy59lsLsEA9nuJjzC2blx9L8xr9Yn4gtvHf0FUqOAuhZ+vRqMkM9Hp8lkJKqpbPOTXACxKVNIrL9jF/BSWTKQ8xI1YLxovtgyEfObvretLdnf7P29uatnLGx///OAidv0lAifAzfAEUMeX37/oWT+0I9CiFciE8kjjbOdbhrlECCDjrrHJ+OrJ4pEBos/taRBGqWw769Mq3j7ZhcXduXMal9LYGSZxKgCCFEwGlJTkvgZsN7dLppFZkyiTjjRU65DWLci/vCdOKMFznXdjdTEny/jjfUpl9cveeqjS9pEPtZFFfjDFWKxVW6R3gmAYpH5hRQlOV1H60/28y1DwG+SuKL8xg30HYyGS9aayFuntlD/Vtn1HVjfvBX96ENvH5U+Ya5nkSZh7fP0ftSY+K0P1NfMTU7eUH55LEwqwmwfwBj39mdnN1XYdMmdlUl6Rzg5PkpzMpPNh812KZf5vyCWflwoeQc8aWLiHV2vbQypq2cRl9lPheOW67+JOmli4gwt4tdVUm6teCH5JWVWHr07UGQpuvHKg85qbOx77fLZowFJG5cTXz9Ti7wTcX31exYW2L+jBE2V/eu+mTu42XkxdSw+3nbJ+paUox1u54beJid6ViUtVGv43kezVtD6YJYm+s6/5k2p4kGuuu1PWdAGo/+x3fJie7l9GtbefOCN4NxIjKBBI2BtjaDm0Za4hK03Gxr8z0lE5lGig5TGkl7t69X8ZqvN1hPRbJqr+su2LAPVgYrMHGVYpJgxHcSoLhlCkAizuyhzhJozF9P5mNb4GebufbhO7Q+9Q6tBKAGpf7PNPRmkzlrOalHFb+s500miV7qDpsDAv1yNmZ8QMmmV8wNTL+A855eTou3v+RVMN1Muji8aYM5ADL1V/o4IQtSrKkdc6DgqmHSImbFnOVsyXfoM9+wkwvK6LIJGJJJL02mqzKfk8cxBy2rSe+oUNzs3et6PZ+TEKAalAISNy4i1m3hr/mzdB/gZIm5TVoZ01ZWkk6+zbgjpq1mWoulnen7Sl/1pPXac37BrHzT5z9rPs8UAHo36mPnm8hbkE3evL02wcF9+ihoPmgNCOatYSl7KdlkOWAKigsfbwvCz5M14C6xDGDeGkqLngWnQUrgxKVNItJ4kU53kUf8JFI0BhrdBjHuaEnONNWvnOqAyEHK8nibvgnUtZ31Fah+7a/r7SogNQGTfXvhmQQobox6ZCbjej/gvHIW5MgRWh9cQcx907n2ocrZEVXqKT/ZROYCPffpocH8y3NuxgToreEvll+m9Xt5od72vL/U95KZHUsSBDhAySUvO4qWQ88pZmcs45zMXKpUz9osmTCTx1Iinb/Z8TcWuk/U+8Zm9qKCrvpvkjwtlgiwmdGwmXk4foDmWatJzngSjodiZVAyWi301Te7bjJnEcnaZi68oBjfpQ00t1SSbj9um0BnGx0ti4iNGW/+DgpInJUMLQdUB2MuHT1I3azVZGbkwlFLMH0/qVHQclIReBx9hRdsTqziQvNCkmISSCWwP7+pS79IUm8Nu5WRiHmcqdl6qFf+h3SJN//9ad4MSM+WuhIPxbF3JYA/xbGWAMev+hXvubu5DlYKxV3qJhQ3f19TXsI9CVDcGBUXAVG2aZsBcfcAgQxQgKMf0LJgoeKXZy7pydByyHZmZO7jZeQl258chAWh+gRiAO2CMkoX2L/Zi04PqPwrdF9TNfuaAju8wDBgaFW+rqCvezUM3MQH2zaazz7EtGmrmTVttdPUTkR8LKAlvbTS8XSDN+M2BUNdJwMRiFkCZWvgmpqtR9tbQ7lNytI+5WLWG4Ah2EkaFwVR2RRudbKMbdwEVP/weikyZZLn4tiB1IyvwUUCUzJNNS5qApxAzjD4u5dJMApH7Wc9nPXj7XWUY/Ln+5MZFN9JgOJJ72AuHa7icM0XKdTfTyr1NMybTBJNHFb8gjcFJ71OcvrBG1WLQ13MMNB9NQTBiclACmvOL5iVv4hZpYuc1LI4qSUJsYbyP9GSvZD0eXDsqCm9Y6j/syK4tgQntjVTpvqVIA3Kl/oWv5jrShpq3BfHJtxNpPGihxU+bs63BEGN6tJDgVpm66641VmfrsaiPM+X8QylDc8kGPGdBChu3O7sg+RoRsGg7W3SUFOPIduU5knKmIChZqcijaJHFwM0/ymo+fMB9W10AzHxXkyVuBCSFI9PCoiI8ZBiGSzHv6Ooi9ETmwatl6CvowuIJSINCMB+KxHxBYC1yDhinBbfZuRM6Zq8jFy4kkBqVBPv2/ygTiAmCgw1Bwdl08CWa72QHIzUpxuDUhxrOh+0THG4+U1iRu4kp/uhKDdYC/RsQKADBDX7rAS6KNVTHYmvn1NmUHwnAYobt9+q5tr0eaSWPOZxFsUUzEwk6l7MK3x8ZC6WTc1eTkxyLw2Hlb/g62nvBhT5euuKCC9vKA7Bh3X3WeuvVvOMTvZqVnX4N4sSvikeW7GrVpvqOyyreC5dpY9pipu4dYWNwwxLaxd9JBM/rYDWSxX27/rMlNLpos8SjFjqZFb+gj6/ZlFMNSnp0xYRu6+CLhxXBtkwr5LRulwJYymWnczS7Fi0zX+yC0Sa6O6FJEV6ZSBd6W2K50oXBiYQc4/5UgNjg25zE8uMjroCcssqHmj8/dNsO+zleMxUbboWP4kUjfrZD0cGmt8/gH0IrWbXWlcbmanhy4P51NzQfZ0NUbuKR+0YwnkWZrgatgHKqEe2kDFdsf4jah6ZL87DdhnxO7Q+Bbw4z64ORdnG5PZbm2mI20bqY9sGdqX1apnxAFMRaumCbLTNB3nd7iZw7LWDpG9daM2r99aw+1AshcoaEcUva/OHI29rGXmAYWAJcRWvH5pM6YLVlGaDafnlTrqXriZVcamG8ufYzbMU2tehhHCpscNN1FKv4VPaQ+u4LLhEmUrZxoXKKczKt/RhoPmNnRgKVhNvf6lLGzhb+QtFW7xfZux0ya/956qg9QVg42qHOhTbpcaedb2+k2bFdfrO7uTk+UXMynfS+J5YPC4UsRTLZvdSt8v+56Oe8vIaUosWUrp1ofmjHWR3zRcp1FtbOSxDjrK0VwRG9Xspr9Erfi6bOLzJ9N+GVRWvb8K0SsimDsVZgHWJj7qBaEiZOh8OH/H0SZ1Qt+mapTjWXQoomAI5ewLe3dy9SQUFKmhQs22+mn68mUVxthW/qzYSGLn2mYypOf8MZgfj4uK43tNDf39/MLsRwnuyNb1QSl/GlsenEd10iLXbvQ9QTNvNGzlX5Sb4iExjxqxJ3Kw74HP9STjx5SbrbUDjzRJf+7SPsy3xfR2L8hzltQNxTeGcBChi+JIARSh8ad3zLJ7g60ZtWpIfeIiEtvc45SZ1o+rhgUIIYBineIQYPE52hnXC2/SMCIxJ39zE2pwooJn939/BH3y6ivO6EHs3G9/jWKNPHQgx7MgMihBCCCHCzmdDPQAhhBBCCHsSoAghhBAi7EiAIoQQQoiwIwGKEEIIIcKOBChCiCHN086oanZODdbW48He0ly2TBd3MllmLIQY0vx92qz9NdTc9L3Zjj2UG3e527nVm11dhQgFCVCEEHcsb4IDSzs1O5d6c9zTe/b9BTpwsH96sNr3hAg1CVDc0rFkRxbWx760U1lcy7kQjsg7lvEbqX3jBEeqQz2eIMn8Dd35EPXSv/r4A215UKLrh+AFSn/BKW51/RTtu3uC14kbcV9YxBTOcOyvrp8XMxR3O/X04Dh33AUx3s5++LpturvrSOAghisJUNxqZ1+x6SFquuLZLM8M8XAKsliXq3P9/pVatm9pH7zxBMmUzfnkj61n74ZGPH6ahFcx5KcQUTnD8YfZ/NDE7kP+PYk5kEa8dwpWfA8DDH6QEplGis5A40l3D7NLICVVS2edt8GJaav3FI398Tb3z6bxkzc372CmL3x9pou3z7Bxd9xdkOXtNYUIBxKgDCUVtWyvsLwwzY5QVcm+ClcnWAOsO9Mz3FoxA2p+yug6f65TxeubBunJzG1PoK38Dd35Rdw+t4dR7h98G1CRCXcTafwHne4ij/hE4mjz+UF2NxvcP4sm0AL1ADjLeZ6O+zNT4+85vnxWd+eEuj5GCE8kQBFDVn/B1+i7fooxIUqX+KzuX4madIrer7zKiJ8/MUhL6dTMjGhJTkvgZsN7QZvxCGeBCHbCZUbHmzFIkCLC1bAPUKZszif/Hssr32s1bK8DLQ4zGxrml80mS2s9cr3uBLt3GAde64pnszz1Kns3GHlIUfti384zT7UzprFMbKjlcmoWWVpTH78ni+WZGsdUkX1qyVkqyb6NwS5FU5DFulyN7fc7M4XClXpuVFWyr8J+zHqW79C7/K7gGfonQESl4w0+demzFGZHDbzWLiijdIHlVROHN73CMcBae+LsPdMYlj69mtT6gzToF5IZBYaanZSz3HT95oOUvKaYeZm3htIFE6yv7d9XGPHeKUaumMHtTFzM/sznyZ8sIMWvB9gpqJkZiUwgQWOgrW3wZkDCmS/pj0DN6PibevF26bWaWSIhBtswDlAsAYPy5q1h/uYUdNUqah/sr9NTy/Zi81kzUyhcmc8SrEHKlM1ZUFHJdsvNuSCLdbmzWVJgF8ho9SzfYQpwtldY2mUxf6Y3gZO62pkxmVnEVlWyN342y1Oz+HJPPdurxrMuV8/8me0cqbacb6SyuNL6HZUVAz2TAAAgAElEQVTNZt1ma5Bi6aP2jUrzGE1tlu+I9qKo2DpmVTUomZn00YvGSYqkofw5SspRUYNiTe2YghrnXWmzFxJzaAO745+lUL+cpd1/ouTQZEoXfJGl+irK6y3nd3F40wZzgGMKbkofx3mQ0naCUddncDtuBRDsGSDTzAjt7mtB4tImEWm86D4F5EFk6kPMTbW8Cl79iT97n3hTOBuqGg1XRbJqgx1PRb8yayKGgmEboOiKs8jSGql9Q3kDNXJki5fPQi/Qm4KcDYpbaXUjf87Tk5+uA/Mt9tyWE7Y36oqrtOTqiI7XAMqZAbtZnJYbXEdHbBIQ6FU4hnreqwCKAS1crmiHpPGKBjoeytTQUnXC9juqbicrdzxTaOecuc31OmUAZeRIRT0TV+rJKIBzLmtkfPdpXBxcP8+Iwajh6K3h8FFgKRAFDeVVcM9kRYNc8rKjaDn0nGL2pZ7yk01kLpjMXKoUxy328Nme7/FJ6mw+fXePkzTPEbZ9/0hgxm+eGWmsc18cm6DDh+JYCwPN7x+gWXEk7guLmJL7EI0n36M5wMuB3N1c/b35hvp8d3wNLuwLaZXBlwQqIlwN2wAlPlYDhnrO+XnT18VrAA35O/LJt3/ToGEgRDGnM8bYNbnucEUj7coxVTeyu9rLoEmtHiPtgE7Zb5Li/ZkaooExufmsy3Ucp24mnENDNEYun7FLQVW3c7lAz0SHACwwPo2N8twoULrbaABMEwNdtNcDinQe+gRisE8lWfSi0wNBXLrsiZqZkciUSX4VxzrT+dczdOZOJyFBS7Nd4WywbuL+zhAEc1z2BiMwcBeE2G/YJoGKCDfDNkAJLA/7o1iCE5vaDVPNRfQgjdAfjvU0CjMHdSgDPtvVC2ND07crLb4sZ+75R5CLZNXMjGiJS9Bys6EmKOmYSK0GsA1QwvEv+GDPfAzmtbz5biVQEeFq2AYoHV1GuCeaePCi3sRRe4cR0JhmE1zNxiRFMwYjtYeH2B4l1UZurMRJGsq+jYaJ0zVQrWgzU8dELdzoCPzsCcBnOzshO4P+BAZ1qa5T9W10AzHx3kyVrODTsTCy4XIQB0Zoi2MjtUQCnR85/weyBCmBCgyU1/FlFsW+7iOUN2p/a1/UbGcvW92LcDdsHxbYvqOeFnTkl6VgXXtiLpL15kIV9dQaNGStzGKKqzYtN7iOxlRHAjiusglX7bxXZ2RM5myWFLhuc/6KqeB2/sBsiob5BXrGWGpcwPE7cJHyAnPwqB3PFHezM3V1RBDF7SkrXLcxBw5JGQ75qQCr4nBNL9rs1ayap/KUhNncHgMjOl0VyM7nyZ88z8s/2cSj6b6Oy7Js+KLn4tj2iwGuE0lgyixTaqnRTXAUqBuis4DCnyJXf2o9AlFca9mnJBDfj7trBbIfIQJt2M6gmFaNnDCvNrEsZzUVqA7MczjcRK21JtZlr0aObDgBZbMd6lAGUiPVjfx++niWK2o5WqpOUDtzNhOD8dE8jlv9pdp3nGBv8WybsQM2S43Pbamko3g2y1fmk7XS8X3AyXdgSotl7Mhy2mfl5nzyFddzXGb8I0Y0fY2+7K/S/+4eFz/IVby+K4GNRQsp3brQfEyxlNi8yse68juKvK1l5GFaTvxCueqviYby59jNsxTa16G4WGrc/9AMPrl+ikiXG8w1c+0GpERHMSknDS5cUj8YC1UzI5YUkL/TUAlMyZ1OnOJIZ90BjqmoafG3INXdNfxJJTl7Ro7a4lz7IMWbVUWeXqsZixB3gs9kTM35ZzA7GBcXx/WeHvr7+4PZjRiWnuHW+q/RXxO6Z9v4JPM3dOfHodnzsPv0VF4xL385mRunf87mX3sfoMR9YRFTNBfdPlMnMuUhZqQag7odfTD4EnS4Osebm72rtqEIGNT0KSkeMZRJgCKGtszf0J2fwsihEqQkvIrBvD2/+/Gm8eh/fJecaF83ajPNaFB3wE39ien5OQltg7s9vRBCqCEBihj6/H6a8eBR8zTjL617nsUTgBtnefnf3+bi4A1PCCHChgQoQgghhAg7w3YVjxBCCCHClwQoQgghhAg7EqAIIYQQIuxIgCKEEEKIsCMBihBCCCHCjgQoQgghhAg7EqCoksuqrWWUbn2WpXrPrYW/NMwvy2fdjnw3zwC6AyS8imH9u9xOcNfoE3bvOk31xk9sD8/porr8KqXBHF+wPXqVD8pP80H5afY/GurBCCHCTbjvaxVc5mexdB/awOtHQz2YIc78/J8blucP2fD0cETTc3nOBXWAg6Agi3W5GmrfOMERV0+2HvAMt8w7yrrb7r60rJYHSOXFF0bavnE8lkNfOU1BObB0PCV+Dn3QzemienErl/bnsPjNUA9GCBGOhneAoloVr29yfOCbUKudfcWVA6+mbM4nH7uHCdowcmRDJUcGZ3AhsILb3/0afU2/I8bNjrKFGy9RMDGRiqWx7HbyfsmGLO7ZVUtBWRQlG7ROWoSvwlndRPem8poEJ0IIFyTFI8Qg+/ThIoxjGomq+JHrRnO6eDynm0v73c2OjKTwjVRuTDwf5BTJdMaVbCNzzVeD2YkQQtgYljMoqUufpTA7auC1dkEZpQssr5o4vOkVjgGm2pOFitSE8j0APUufXk1q/UEa9AvJjAJDzU7KWW66fvNBSl6zzrzMfbyMvGTrOFpCnlrSML9sNlnKP74N9ezd0IjN3EZBFutyddbXV6yzH7ri2SzP1Ay8NSY3n3W5llfepm7sx2N0SJfoimezPPUqlQ3jyc/UmMZbAV9eqWeMfX/mtNMYd5/NIf1k16fT1JXpnOi6E+zeYTTNCN1jvWLWynyyVrrqcwX9qVGMrNnl9j8+1TMMx2M59JUGCuZ2Ufim85kW/53h2lv3EfPYPDJLEjhf+jNuB6UfIYSwGpYBSkP5c5SUo6IGxZraMQU1zq+nzV5IzKEN7I5/lkL9cpZ2/4mSQ5MpXfBFluqrKK83BTKZ3QcpsaSK9MvZWFTGKkIXpEzZPJss6tlbbH/TtjIFIEYqiyvNN35TELFusylIad9xgu3goQZFLUVqx1zP4ZRWT35sLdvf0FC4cjxfLjDy5+JaMnZkcX+xhnM7jIp6kMqBYGPK5nyWl2ENGMxjpu4E23cYrZ93ZT6xSeo/x7kt5u9GTQ1Kwmxuj4ERne6eZPwJc9K74VqCqoCj5G+JFCz+mFR1w/XNhz+j/qmvkvjiPDJe3ELrzzZz7cNgdiiEGO6GZYAScL01HD4KLAWioKG8Cu6ZbH1/3kIyo5o4/LyijqV+L+83Z5OXkQtH1da3RPLj+2cyLdL5u81/O8KqTrWD1qAbC/QYXQYnoOOhTA0tVScUsyBGjlS3k5U7nim0h6iw1Ujt4XYgBdBAQy3n0JAx8L6G+TN1XK+zDRTOHa7n/pXjmTKzkfZqmJKnZ4yhnr3m4ASgfUcttWWzyUrXgZtvxmcJcXxCI6Pr3DX6mPgouHRMZV1J4+e4QQPZj44Hr2o6pjOuZAWJUc7fvXbgSVptCoHeofWpd7i+Zhupj21jtMP7apkCsBsXkoM04yOEuBNIgBII3W00gPkv2C7a6wHFlH9qfCwQRd7WMvLsz+1NIBVoUNXRTX7w50CVjloCjSzW7cB5+mOmhmjs0zbW83Uz4ZzH1SrBYKS9GphpenWjwwgoZ1s0xGphTOZs02ezE5sEVJsCtOsN7XZhiJFzDUayUjUEI0T5NC4O8BBFzrlNPNAR4L4dneFa6RmueXmW4ZUnOf/IFjIWbWPclKPUvfKOyjM/YfeuWh6IiuH9l3OYedzb8QohhhMJUAaNff1KGKioZXsFA6mO5Tv0OKsbafErbRM61801IuHks50qpriOj6JjrbdXjqGj0ZcReU+7Zhupyc5mWDwZSWFRDpa9XT74SgaTh9jqIyHE4JEAZRA0dHQBsej0QL0/VwpkikehupHd1Y0DgUpGAZyrAKqN3FgJ0fEaILxu9O4Z6TJAUqy7cRtp74GsVB06lDNHGqakajykvvzQ1slIZtCfCSNcpnk+R0cvPDDVAKi4gad8TDSRXPF6RsLbFI+lfZ+fNSgjOX4hhgfSb1MIkuYRQjg1vAOU+ja6gSSv6kB8cPQgdbNWk1m0hna/ZlECmeJxIimaMRi53GI50M57dUaWZ85mSYGHWRRzMJMUrNoNr1jTV4XFrmdRzl1oJz9Xz5eL2wfa6IqzyNIaqa0wfwaHIM266ue6/QVbbnAdHROna6DaRWDUdoJR12dgnPQMo+tcLTM238BzeilF63ETttKprdCbqjJNqORFiufex9A/NpnI3g84/5Ss4hFCBN/wDlCo4vVdCWwsWkjp1oXmY4pUjHmVj/VvWGsdiaFmJy+Uq+2nnvLnd8LTqx3qUEK31NjZ7q6Oy3rbd5xgb/FsltvXoVyx32itnX1v1FO4MktR9+HtMmPHMQ0s2XXoz4OKWraTxbpcuzoUZa1NRS3bW1IoXDnbzZjb2VfVrriO6TvqKpjNRPs+qxvZnRRt26dDbc8eRjQUQfbD3E74kctdZHefjOHxnAYWbIyjxH4XWaU5XSyYCJf2B2uJMcB0xj0ymchmb+pNhBDCP5/JmJrzz2B2MC4ujus9PfT39wezGyGGkBXc/u73MPb8jhg3m7UVbrzEUzmRVLjcyt5cdHpt6NVyFG68xFPpMbxYFMzASggxlMlOskIMuj2M+u9TjJzwNboLnnHZavcLybzf20qBi4cClpbV8kBUIhVDLDgB2P1RJEQ1sEQeEiiEcEECFCFCoe0JtHtOMXLCw26eZjySwqIs3u9tZYGTpxkvmJjoZnYlzL05nhdPx5C2WJ5mLIRwTlI8QgghhAg7MoMihBBCiLAjAYoQQgghwo4EKEIIIYQIO8MyQBkXF8eIEcN8CxghhBAijA3LAEV4b27uolAPwS1/xufqXG+uGYhr+HPOYAr1+AL5Xfsr1N+FJ6H+78JV+3D/3kR4kGkEoZraXyrHqg74dJ6/13L1nv01nJ0zN3eR23ah4u7zBnu8rr6TY1UHvPq+fP25UTOWcP1385Xlu7qTPpMQvpIARXjk701AzY1FbR+B+MVtf8MMp5uB/fcQyrHZByL235va79HTZ1Dzb+8sKAq34ERNIOYp4Lb/fGquoWyv5vtw187Tv7Gz42r79HQsnP4tRXiQACUoEpiSOx3qDnCuw582whVfbgbOjrv6xRmKG2G43XCdUXtjU8ubz2zfzlXg66lNsDgLPvwNugM5G6mGmp97b2fPhsPMlwgOCVCCIDJlEnHGi5xyE3ioaeO+kzRmzJpEpOV1+xmO/dXFk+f8YPlF4k9AECxqUjeB6sfZL1RXf23af19q/tq0n6kIl1/e/o5D+fPjLDC0/8xqvmf7Y4M9u+Lu310IETgSoASclrgELTfb2rjpVxvXIlMeYkYqNJ48QLMvF1DJm3SDp4BAzRSvt3/9+vNXu7PXnv6Sdfd9uHrPXYrE/vpDga/fubvvz1Mw4SqICVUgF85ppkALZJGtu9d38ncofCcBSqDFTyJF08a5RoN/bVyeO90cnLwX1OAE/M91u7uep794Pf1iDFRNTLjVNagNaCyCMVZ3gaK/37uv37ezdqEMUgLJ2b+zr58p0Ctm1KTRQnk9cWeTACXA4u5KgPYzdPrZxtO5wQ5O3AnljcGfv+D9vZa/BYhqznXXn6drB+rG4S5Q9HcWSE0diT13nzscZlTAv3/3QI1Zba3HYAQErlLDEowIb0iAEkiRaaTooLPOTS2ImjYuaYnUwM02SH5gESkay/E2zlX5FvC4480Urf3rYN4ovL22mvSTpxucmhuQP3Uk3tT6uDJYN2dnQYHacfsyg+Kpva/FqYEy1GZxvP259JangDIQfYjhQQKUAIpMuJtI40W3q3LUtHFNQ5QGIlMnwckDHDPPosR9YRFTcqcHPEjx5mbrS2W/tzUFngIIZ+P3tIogEH99O6th8eemHY4CEUD5mqYJ19qF4VAc60tAMVjF6+LOJwFKwCSQkqrlZoO7wlc1bTy72VBjk+LpvHSRm7pJJMRDpyLwCdaNL1jX9XSzcleb4c1fbN5yF+RY+nAXIHky1G5wls9k/7+ezlGTpnH1vrNrOEuJDUaw5+nfPRR8nbEbbDKDIrwhAUqgxCcSh6fiWBVtfHHTwE0gUquFDuu1lb9AA/nLyJ8bgfI8X6/jbErfm6BFTZrA3flq3w+H2ohAcLb6xtsUj6fZuEDO0Hni738Twfq3dDUzNFg/R94U2Hqql/KmDyFckQAlQIJdHGvSRls7TNFqAEWQE6klErhpcAx8LL/Y/P3lpuaXl5pf/N7WE6gdizefLdR/aQ61gEXtv6faawUiuHVV/DkUA0JP/90M1mcajO9MZlCENyRACYTINFJ0BhpPeiqO9dBGhc6P2iBzOlPiLTvQaknOnOS2rmUwii8DMRPi63muZlAsbQNxQ/Tn3KF0s1TLXarFm3O9PScQM4LhlJpR+zlC8TPkqX5LiGCTACUATIWv/6DTTWGJmjaqdJzhWN105mYuYq7lmIpdZINZixLo6XdfiuwC+fm8uQm6+0venq83xlDdEJz9+/qangnUeCz9uVsN5OlnMhDfZ7Cv7wu16Ri11wrUjI6yf09jlMBHKEmA4rfBK44d0HGGY1WBuJB/gjH1rLZg0l4gboK+/JK0H6+n78OXICUUaQtnN3w1fEnZ2ffr6pinOhj7fn2td1HD0/UH+98rEN+z8j019VdqP6MEHcJXn8mYmvPPYHYwLi6O6z099Pf3B7MbrwR0TPHTmZuJ+yW+atoIIYQQYoAEKEIIIYQIO58N9QCEEEIIIexJgCKEEEKIsCMBihBCCCHCjgQoQgghhAg7EqAIIYQQIuxIgCKEEEKIsCMBihBCCCHCjgQoQgghhAg7stX9HUBXPJvlmUYqi2s557TFLJ6dVczkj3bwjcaTgR/AvDWULphgfd18kJLXgrkXv+nzxF76Nuvag9iNEEKIkJEZlGGg6AvF5FDLa8EITgCOvkLJpg2UbNpJXW9wurB1kucuNZGa+Uu26wajPyGEEINNApQ73NyU1/h6QhO/PfkSx0I9mEBqL+GlSzdJzSylKNRjEUIIEXASoNzJNOt5PC2ShroSdoV6LEFwrPFNThsn8PUvfCPUQxFCCBFgUoMSEBrml80mS6s4ZKhn74ZGlCUSUzbnk3+P9XVLVSX7KmyvMbHhBL8ni+WZGvPxdsfakpkpFK7UM8ZmDEaHUc3V3YvGWMt/OanTmPt4GXkxNex+fi8NiuOpS5+lMBvqdj1Heb3yWJS1Ua/jeR7NW0Ppglib66JfzsaibLoPbeD1o3ZjS7a+brF73+okz136H7yTOZdnG/6T5xy/Asgr5uUvJ0PTIdZuP+LNiIUQQoSQBCgBMGXzbLKoZ2+xbUBiZQ5gemrZXmxuMTOFwpX5LEEZpMCYzNksv2Jpp2PJjizyN+s4t8V8XkEW63J1tFRVstt8nqlI1r7PWcy9KxIM/3Ca2jl2vom8BdnkzduruPnruU8fBc0HrUHEvDUsZS8lmywHclm1dSGFj7cFoRBWz9KnV5PZfZCSTeZr65ezsaiMVbgIUtr/TgOLiNXgLEYTQggxREmKx28adGOBHqOL4AQo0JOlbadyi6JFdSN/vgJJ6XZVnldq2T7Qrp3zV4CxGnTmvubP1MGVWpugxrmJxGqgoe0/nb999CB1vZCUkWs9pr+f1ChoOa8IPI6+wgsD0QpAFReagZgEUj0NwVvzFpIZ1cRhZeBTv5f3m+3GaeMyXUZITXCR5jm8g7Xff1pmT4QQYoiRGRS/GTlS3U5WbhbrduA0taOL1wAa8nfkk29/usEUfKhbLashVgst1Spaa+4mAWhz2aCev9T3kpk9mblUcQxIzdaj7a2h3GamwjyrEWV3ehBW66TGxwJR5G0tI8/+zV5TQORVWkkIIcSQJQFKIFTUsr2CgdqQ5Tv0ONaOOKklCSbjP2gjy22ThvI/0ZK9kPR5cOyoKb1jqP+zIgiwBCdNHN70ykCqyFS/EqyB2/alltFwOSijEUIIERqS4gmk6kZ2F1ey/Y16rqMjo8B0uL3DCGjQzQxMN9HxGpvX8bEaJ608pD4AS7omKSPXnN5p4n2bdM4EYqLAUHNwUJYoN3R0AbHo9N6cZUpltRmDtMeLEEKIkJAAJRiSohmDka4W8+uKemoNGrJWZjHFrwubalLGZOoHrmO/MsjqJMc+ugkJn3e7T8ix802QPJml2Xq0zR/YBSJNdPeCdpx1l1j7FTaqXenCQBQxlrGaV/AoFz6Z6mKiyCxaw1y119V9nlRu0uWqQDavmJd/8jwv/8cyJvkwbCGEEKEhKR6/mVbaJNkcM1L7xgmOVFtfH9lwAspmO9Sh2C419uzclhPoFNe5XneC7Rf0rHNSQ3qs/UMeT8siP2UWu1ztInv0IHWzVpOZ3UvdLvtVOfWUl9eQWrSQ0q0LTYeaD7K75osUKmY5HJYhR1na91qXFdfvpbxGT+GCMkoXgCmVc5B0y3Ut/T2/E55e7VCH4nyp8SyeTZsAbQecLzEGaOniBslER6cxKx0uXnDRTgghRFj5TMbUnH8Gs4NxcXFc7+mhv78/mN14JRzHFCxzU15jfVoHvz18523WpvazfWnd8yye0Mvp17bypgQoQggxJEiK5w43sNtq3h22JbyulPVqdslNX8acCUDTSQlOhBBiCJEUzx3vJM+dhGdnFbtP9QwpptROQ527pxnP58mfLCAFuHH656z99aVBHJ8QQgh/SYpHCCGEEGFHUjxCCCGECDsSoAghhBAi7EiAIoQQQoiwMyyLZK91doZ6CEIIIYRwQ2ZQhBBCCBF2JEARQgghRNiRAEUIIYQQYWf4BihzuqguP80H5aep3vhJqEcTeAmvYlj/G2SnFyGEEEPRsNyozcacLqrXNtCxP4fFbwazowdZN28tmYrH9zafXsYPP7Jrpv0Br8zLJtLy+up+iv7yKw/XauQP+3/A23at+gtO0TuhkaiX/nV4VkMLIYQYsobvDIrF8VgOXYa0qYagdrPsvrVk9u6naP8yivYv4/ULRpJzdrFOEbBYgpPO08vM7fbTPH4xu+77lqKROThRXOsPV1P40uIfs8yuzxEVP0VzPYXegmeC+tmEEEKIQJMAZZC8/ZdlNjMh7394hGY06Mc/aD7yIOtysom8ul8xq/Irfni6EcbPHwhkHri3iExtI39QXOvtv+ynmRQeuvdBbO1h1H+fYuSEr3ErM1ifTAghhAg8CVBCLDI6xfz/UhirheZW23TOssQUUAQyE6I1cPWcbTrnrikkA5GJD/KAfQdtTzC6Cfruf5VPXYxh0jc38fJPnmfLN9P8/ThCCCFEQEiAEiraROKAmzcaFa+N9Axkmh5k3by3eejGfuoMlkDmQcZHKc4BHrh3F7syevjDBSNoxzLBSVcjLjbCmDiXAYoQQggRbiRAAUr+lggT29g9Z7B6NKdzaOS9D/9oOqQday2M5Vv8cPFaxp5fxpoPGxXnmWZZLJbd9zaroo9QdPTHNLnrrq2TkaTQ7yLNc/HXW1n7/afZ/OtLvn4gIYQQIqAkQAF4czyTlyYQv/Y0H5RfpTTI3S27z7QCp/m0YuWNoYebYCqUXTyfnqO2K3xMsyaN5hmWFPPsysu2K3wMPe4DFSGEEGKIkNWnQOHGSzyVE0nF0hwWB7mvZfe9zZfGw80LL9suMTa00kk2mTlj+cP+IkWNiXLW5I9c7V1LZvpixp5exhrF+ROiNR567uWzbQH6EEIIIUSQyQwKkBrXDZejKAlyPw/cu2sgOFljSe0MMM+OOC2ANVJ/1dS+6YYRaOQDm/1TvsXk8XCz9Y+876zjhDg+oVMCFCGEEEOGBChq6JezcWsZpVvXMNfXa9z1Y1ala1wEJwB/ZPv5Rhi/mB/eZTn2LX6YkwJXj7DdXDxrWp6cwpcUe6Msu28xycp6Fjv9k1LgeqfLf2zLKp6X18339dMJIYQQASUpHjXq2+gGtEzggaV6jpXXe3kBc6ABRKavZVf6WsV7RuqOFpkCkI9+QNHpH7Mr5212md+9eeFlimwCj1/xw/3ww8WL2bXYnJAy1PD6/h+7mD15lVsTIKLyCZcBysW2biAKJmTwJY7wBy8/nRBCCBFoEqCoUsXhmi9SmB1Fd4e3wQmYggr77epd+OgHFO0P1PVWcPsrM/ik6Xdo69w0O3yI0w99l5xodUMUQgghgk1SPBjIngg3Oj/npk0uedlR0FvD4aODNjC/9Rd8D+OYRqIqfuS+Yd4CcqLhxulDMnsihBAiLAzfGRTzQwKjAS5nMPmFkU6bzX28jLxkoPkgJa9VDeYI/ZPwKrc8PSgwfRlbHp9GNND4+6fZdngQxyeEEEK4IU8zFkIIIUTYkRSPEEIIIcKOBChCCCGECDsSoAghhBAi7EiAIoQQQoiwIwGKEEIIIcKOBChCCCGECDsSoAghhBAi7AzfjdqU5q8nc1Gi9XXvB5wv/Rm3QzcizyxjHgpjHQRTNueTP7aevRsaaXfWIOFVDCsyGLXnYUYF86nOU1N5++HR1Lz1d37sdCABkvAqhhVxjHa3EZ9P15zBJ8DImp+ifXdPoK4shBBekwDl3sfQL0rk2oEnaT0S6sFgDjxiaf3ZZq59GOrB3Cme4daKGVDz0+AGJ8CD40YDt2gNZnAC0PYEo5tO0bv+N+53C1bN+h3FSGAihAgDwz5AGXXfRCJ7P6A5HIITbxx5ibqhNuaQWMHt736NvqbfDcqNNyVmNNzoojHoPcGIip+i+e736C14hhhPz1vyJDOTPhqJkuBECBEmhn0Nyqi4iFAPQQTRpw8XqXtgYkCMZWoyGBt7+OMg9AZ7GPXfpxg54WvcyhyUDoUQYtAM+xkUt5ylW+59DP1jk+mzpITufQz9YxPp/tk+eGQFiVHmds1HqXvlHdvrmc+NxLGNds02UpOtTRMf28ZAVYyyzsS+XsZZPxJsKWwAABI5SURBVAB8lcQX5zFu4HWfk8+hctxqFGSxLldnc6ilqpJ9FcojGuaXzSZLa3ltpPaNExypNr+cmULhyvFcfqMWChTtrtSyfYtdzsRJfxjsB7WC/tQoRtbscv6DrruLXY/cTce7Z9j4N+vhB+d+nrVZ2NaRmNtqbC5wy67NaOKBjmu3nPUGjOWFf0slvvbvFB2ztvnW16ezmAaW/bbHYWzW/nrY/38a+JX9JS2pnvtfZVTdE/IXhxDijjE8AxT7mzyTyXhx28Ar7+tRIkh8bAXXDjxpSrvMX0/monkkzn/Heh1znzfP7KHurTMDxxLnQ+sRMLzyJHUD7dzUoAykdqYzrmQFiU6aWAIhFH2NemQLGY9tY7TNZ1MxbjVmplCYq3MSkCjpWLIji+i6E2zfYTQdKshi3crZgCJIQUPWytm0VFWyvcLcJjeLJQXWa+uKZ7M8E2rfqBw4z1Qka9dlwmxuj4ERnS7SFu236ADizXUjFikxo4GegToSU8AymsvvnqHob8pjdrUmukg03OKiq/oTpwGMedal1nrMGiCdGQh+vvX16SxeeReNb3zkMDsz4mIj5MfxKTIlKoS4cwzP32dHXqLuqSepe+pJGpoxzVCYX9c95VuxrE1Qc+RDrgERCdPNB75K4qJEaD5KvSU4MY8jGIW52i9NNtXVKPq6/dY+Wnth3JSvejFulZKiGYORrhbXTXTFepIM9fzeEpwAVNRTa9AwcbrtvIRNoFNxlRYgOt7SRsdDmRqu19UqghoXEuL4hEZG1LlqcIvuG6CJGa04NprEsUBzl2m2QncXRebgRDnLYqo1uWlTa+KxQFYXiYYe/vY35TG7oEV3F0X2szfmIIaeW85TR22djCSFfj/SPP2TUqCpbpj+xSKECEfy+2gw3JtABHDtnA+pE69N53MxcPPDv9gtPT5D74dL4N4ERkFglyVX1FM7czZZK/PJWukstQPxsRrQ6lm+Q+94fqwGMDoed2amhmiMXD7juf2ncXFAp5sWt2jtgeyxo3kQTDd/3VgmRd+i5v+Z0i0PTo5FQw9HlEGFJYixCxg8Fch+Sz8WbvzD9n1z0GK5vqm/0WQ/Mp23Fc2MtX9n2TFXqSPf9ReconcCRFTOIMZlICeEEINPAhQRAEaObKjkCOZUS24+63Lhet0JditnTAxu9ikJgs92ugtOTH5V38PihyNJwRSgfGv23WiaGwZmL1JiRkPzP2xrP6beTXY0XD6tqBkZSNW4KpB1FtSM5gc5yqBlNA+mjIZmu3oUVXr5rA9LqEdUzCAGU6DSff8pxvxc6liEEOFBfhcNhg/b6MOH1IlPzvBxN0Teex+jbI5PJ+reCOhuC+qmbue2VLK9uJLKKzAmVYeljLWjywjaaOID0ouG2CTb1zr7+hNQl/pov4mR0STqAN1dzE/uYb/b4MAcVHCLbieRlusC2dHERIOxW/G+OdBxmbpRKyGOT+j0KUCxGHGxEcaY6liEECIcSIDizpUb3CSC0feYX9uvwlHtHTrO9BE5fQWJ8xWHzUWyzvqMuc/3YMZwrhWiJpP8iPUaox5ZQmJUH61/GIw0kzlg6DEOzJa076inBR35ZSno3J3qSXU7lw2QNNNyHfuVQQptJxh1HfomPeP6eu236GA0MbqxvPBILBffcrJSJjmWbwEwmh+s/DyTenpcJqRMBbcm3/r6dF6Y6qLh1FTefhguNysP3uKPjbcg+W5+4MWX1D8pBa53yn/MQog7iqR43PnwZzSf2ULGom2MWwTQSsNTRxnz4jyvL3X7rc3Uta0nc+BamJf0OvZZf2A9mYtWkDl9hemYYpnxqEe2kDFdsXdL1DwyX5yHzTLiIy9Rd+Ux9I8prkErDU+95LgSNwBMq2psC10dlwa3s6+4liU7suzqUOyWGntk5MiGWmIV12mpqmRv/GyWp9q33cOIhiLIfpjbCT9ysYusqVA2++FULr97xmF7+l/9toGp/5bK4n+bzmJMtSBF1+7m7WT7Ytge/rv2FmuzPs/bWeaR1v59YNWP4/s97P8//yBx5VjiG62zKn889ndSYqaz2K4GxWXaJ+FVbk2AiEpJzQgh7iyfyZia889gdjAuLo7rPT309/cHsxshXFjB7e9+D2PP7/zfbTXsBPCzZf6G7nwCtG2+EEL4T/7oEnc4626r3QVuUj1DUH/B9wK3S665XufWwys8txVCiEEgAYq487U9gXbPKUZOeJjbCaEeTIAkvMqtCY2Bm/FoewJtZSOfZH+P7vWnMEigIoQIMUnxCCGEECLsyAyKEEIIIcKOBChCCCGECDvDMkAZFxfHiBGyVkEIIYQIV8MyQBFCCCFEeJMARQghhBBhRwIUIYQQQoQdKcQYtgpI3Lia5IFn2BhofuNfaL0UrP50LNmRhfUZf+1UFtdyLljd2ZvTRfXabv7+chqFxwN/+dSlz1KYHTXw2lCzkxfK6wPfkcWcLqrXfsyhpeMpCV4vQggRMhKgDFsVtL5QQSvAnF8wKz82yP21s6+4ErA8uyfI3dkwsH9tA5zOCkpwAtBQ/hwl5QC5rNq6kJjgdGN1PJZDXzlNQTkgQYoQ4g4kKR5xh/uE3bvOk3Y5g5kvjAz1YAKqZEMW7/e2UlAWjEdACiFEaEmAIu5ohRubeSAqkYoNWs+Nh5yRFL6Ryo2J59n/aKjHIoQQgSUpnkBJK2PaymlEWF63HODk69sUDexrPqCrMp8Lx23fj6/fyQW+ybRplobNXCj5Dl3Kvub8gln5yTbd214L4EnSSxdhTdz4UWNi35/DZwskDfPLZpOl+J5aqirZV2HbasrmfPLvcTz7et0Jdu8wml99wpz0bm6cTnaSAtGz9OnVZHYfpOS1Kpt35j5eRl5yE4c3vcIxZVtriYlPNSZzHy8jL6aG3c/vpcF8zFS70qXoy1l/vdTteg6n3R2P5dBXGiiY20Xhm7HsdtJk0jc3sTYnihunf87mXwetyEgIIQJKApRAMN/A+87u5KTlTjrnF6TPwRw0mIOFlgOcfGGb4pxKpsXv5Kzi7hsxbTXTWg5wsmTbwHnpq560BgRpZUzLT3YSkCiYgyUU44lY8l9MW1mJ1t15TkQs+S+mTeviQkm+OUgyBVKzVhGEIMVcSHullu0b2k2HCrJYl5tPYbw18DAFJ4oi25kpFK7Ug01wAszp5fNR0PGRs9ROPX+p7yUz+4ss1Vcpbv65pCeDoebgQMAw9/HlUL6BEkubeWsoXbCaVR0beP1ogL8CSw1LzU5KLIOat4bSomfBRZBS8rdEChZ/TGqghyKEECEkKR6/PUl6fjK0HLAJNDj+nYFAIGLJQ8TSzAXlDf34d7jQAhH6mdZZF7CbndhGRwsQM97aJjGWCAwYWl2PKDZ3GhGGs1xQjKdv369pNkBsxpNefbbkaVq6KpUzOBW0nmyGpCkEuqxWV6wniXYqt7RbD1bUUnkFxqTq0AGgQTcWuHLVugKoup3LBhgTq7G9YMrHRJNIzZvO+2so/xMtRJGarbcenDeZJHppqLFGAsdeswsMjn5ACxATrzgvQFKXfpGk3hrKlR0ePUhdr904lRo/xw1ayXaR5rn4662s/f7TMnsihBhSZAbFX2mm4KHrvOvZhIhxWmh5zzZNA3Sdb4b8WCKAPrX9HT9A86zVJK+sJBlnqZ0CImKgr77a7poVdNV/k2T9ePX9mT9bRH4ls/Lt3zQQkQYE8J4XH6uBK/UOS4/PXWgnPzeaeKAdI+09wD3jmUK7eQZFx0QttFS325xXeNdNINJNj1VcaF5Inv5+UqmnAZibMQGaD9oGJPrlbCzKxr6KJRilqUnjoiAqm8Kt2Y5vjpsABHHpshBChBEJUIYc6/Lg2FWVpJuDh76ztqmiQHKbTgqBji4j3KMjf0c+lrjpet0JhzqV3R9F8pSHax07XMMDRXru00NDvSm903JIUZNiCU6albUqQV5K3Gtbp6JODB2NQRqPEEKEgAQo/rp0lT6mERFfADgPEPquGWCaKSWinEWJzUgGw1n1syd2ul7P5yTmQEU/kwgq6KOCvu7V5tRRheLaBcTqtdB9VX1/Kj5bIHV0GSFTMTNiNiVdB4Z6OgDQ8VCmxmnhrIPGz3GDBrIfHQ8u0jzU/5mG3mxT+uSeyST11rBbWVdyTyxaeqk7XOXiAoHVcq0XkmNJAvUBSsrHRBPJlTAKIoUQwl9Sg+K3bTSfNRAxbTXpcxSHzUWyAH1n6+kjmfRVT9q+nwRdJzf4HKCYmFI6ysCj63wzaKeRvqRgoFXEkm+SrDXQXOVNYauLz+ZC6tJnKd1aRunTy30q2Gw/c5Xr6MjfrLMeLMgi/x5oqW5EmcCJjtc4nO/geBR/74W0qe6SMaZiWa3+fpZmTMBQ/2fbwOBKFwaiiBlYMWSaPUlyvJBHLdd6ISp24Fz73WfBUhczgTwvvsPSqa3Q+zmXAc2kb27i5Z88z8vr5vswaiGECI3PZEzN+WcwOxgXF8f1nh76+/uD2Y1XgjImj0txPS37NS9D7rY9L3ZVJekxZzn7gimQMa2qsauGcLbs137Zs8NyZfvxuL6e2j5Ny3NxnqIwr7QZ46Q726XB9lviG6l94wRHqhUnFGSxLleHA0M9ezfYBjKFGy/xVA6873aLe0vQ0WS33NfEPpBoObST7lmrSa23LjUe+OwO3CxXbj5IyfnJlC7Arl9nQZCLpcZzuqhe20DH/hwWu5olyivm5S8nA83s//4O/uDqaxBCiDAiAYoYWsyBzg37FI+rpcZ8wu5dtTxwLYPJd9xmbWo/WxqP/sd3yYmWAEUIMXRIikcMLUnRTmdhLMdvdBjt3rDutvrBHbYlfGlZrbpdcvMWkBMNN04fkuBECDFkyAyKGHJMDxu0r0FxkgpSCvLTjAedmqcZpy9jy+PTiAYaf/802w4P4viEEMJPEqAIIYQQIuxIikcIIYQQYUcCFCGEEEKEHQlQhBBCCBF2huVOstc6O0M9BCGEEEK4ITMoQgghhAg7EqAIIYQQIuxIgCKEEEKIsDMsa1AASHgVw4oZfAKMrPkp2nf3hHpEQgghhDAbvjMobU+gfWkGMXtOQfb3uJUZ6gEJIYQQwmL4BigWbU8wugn6Jj0T6pEIIYQQwkwCFCGEEEKEHQlQhBBCCBF2JEARQgghRNiRAAUYcbERJjzM7YRQj0QIIYQQIAGKSd2/EvPSu3y64hTd639Df6jHI4QQQgxzw3cfFIVPH36X69mdRL00g5hQD0YIIYQQMoMC8GlsFDTVSbQmhBBChAkJUIQQQggRdiRAEUIIIUTYkQBFCCGEEGFHAhSeoX8CjOy6HOqBCCGEEMJs+NaFKp5mTNPviJGnGQshhBBh4zMZU3P+GcwOxsXFcb2nh/5+2V1ECCGEEOpIikcIIYQQYUcCFCGEEEKEHQlQhBBCCBF2JEARQgghRNiRAEUIIYQQYUcCFCGEEEKEHQlQhBBCCBF2hlyAUvSFX/JO3i95J6+UIpetPmH3rtPsf3QQByaEEEKIgBlyAcquv36brx7+Nr9tm8DXZ61nrtNWIyk8lkjaYglShBBCiKFoyAUoFrsaajFq7mWuxkWDN8fz4ukY0hZfpXRQRyaEEEIIfw3ZAEWN3S8k835vKwVlhlAPRQghhBBeuKMDFEuqh4lt7J7jokleMS//5HleXjd/UEcmhBBCCNfu8AAFeDOKS3QTnxLqgQghhBBCrRGhHoDPjCf4wJhFTuo34K//6abh5+johQemGgCt49uHd7D2cLAGKYQQQghfDOEZlJM8d/LbvGSYyzt5v+Q/U2aFekBCCCGECJChO4PCN9iet4iESzv46uGTHlvf6PzcIIxJCCGEEIEwdGdQNHeTwE0+aPcUnHxMfBR0fDRyUIYlhBBCCP8N4RkUlR7tJY0Y3m908X5eMS9/ORlunOXlf3+bi4M6OCGEEEI4M3RnUFT5hN1zW+FyAoXHXTRp6eIGQHQas9IHcWhCCCGEcOmODlAKNzbzQFQiFRucrN6xuPA2x5sGb0xCCCGE8GzIBihzdfeioYMrRhcNHr3KUzndXNo/nhJ3F0pfxpwJQNNJ3rwQ+HEKIYQQwntDrgal6Au/5OsJADc5fbKEXU5bmVI7l/bnsPhNV1eaz5M/WUAKcOP0z1n760vBGbAQQgghvPaZjKk5/wxmB+Pi4rje00N/f38wuxFCCCHEHWTIpniEEEIIceeSAEUIIYQQYUcCFCGEEEKEnaAXyV7r7Ax2F0IIIYS4w/x/Y2iTKo3qm4AAAAAASUVORK5CYII=;" parent="1" vertex="1">
                    <mxGeometry x="125.5" width="552" height="486" as="geometry"/>
                </mxCell>
                <mxCell id="5" value="" style="shape=image;verticalLabelPosition=bottom;labelBackgroundColor=default;verticalAlign=top;aspect=fixed;imageAspect=0;image=data:image/png,iVBORw0KGgoAAAANSUhEUgAAAjMAAAJbCAYAAAAR9RX1AAAAAXNSR0IArs4c6QAAAARnQU1BAACxjwv8YQUAAAAJcEhZcwAADsMAAA7DAcdvqGQAAHO8SURBVHhe7d3frx3Vned9/gVuh+mbXCVKniQ8MNA8/cQmHmbSxtAx7cg2GSn8CozlY8BKh5E1HR3ZiJHJWMRJY0YEGckELIzAiMY9kOGglmdQLoie5CbpCG4ymgtuIyW3uVhPrV9Va636rqpVe9feZ9fe74uXfHatH1W1f9T6eK06Z9/wf331L9UXvnQrAADAJBFmAADApBFmAADApBFmAADApBFmAADApBFmAADApBFmAADApBFmAADApBFmAADApBFmAADApBFmAADApI0bZh6/oh5976PGi0/L9VbN6QfVxY+21IlHhLKVtl9tf/RUdezeg+qwWG+VPab2vRG8Zyr3PC7VWy03P/PB6r7Hz92k/vy7m9QbUlnt36qrP31Y/X+1Q+ppsd60Pf331bmdu1s9IpR12ne3+l/V83L1iFA2qq+oX3x8g/r0nFQ2K9vnn39X+fhz6lmxDrBeFjQz4waoOS/0d7xY9fHGT9XNQtkgjxxSz1WD/fZpoUzbjTBTss++4w7sfWFrkmFmtNd4JKXHs7Jh5vjn1B+qQaxzcHQD9f86/ldy+dr4K/XyuSrM/P2/Fcp6HDlUBbz/oF7eJ5SNzYTP8QLNG+8RYrB5CDMaYWaXPK3uWbGZmFULV8N8Xn1aDYp/ePUrQllj5tmKybGzT7OEtkeO/4elzlY9++qNBbNpJex7YNyZHmD1EWY0wszuuO+n6ihhZjRl/yOfY7ZiamZeKtqN58gtDb33eaFsCMIMNtMuhZn0PokP1L77fJn933pTFjv6zGNBP93sAB/eUxIKBn4TLPTj+B6UOETsUSfef0o998IeV9/XaweS1n5f31+XHX492J56/5DaK7WPyIGlL8yk+y0JSAvXGWbk91AaNsxjXSe6Xyt8PwWSe7qa91L5e65eXhLKIun9Y2lAMuVX1B3Jvoe8v2Olg5idrcgN8OKsjVlyaWYpTB090Luw4O+7EftM6ix0Rijdl9FeKjLHH9Rpz9wUzuiY5yXuq3meMn10LV+Z5aYb1S+OC2XFCDPYTLsQZuzFO7pomwt7ewBa7syMHuSbYGLDQRhUbJhJA4UJCS6E1I+jUOECUlDHWNrMjDvuIFAN6Xd8aZBN1K/3gDAjtUveNz6EhMHp5meuzPGeE97Hjt1X+H7256zDi9tWh52mXrvdAJ0DoZtpaA28nh+A5RmJOODYOv/r7w9VwaEZlKUQZENDPHDr5ZtF3FRrl4XiQGW2RcfkbnoOz0+avSmY0ZHOTXqe0ueye/lqjCBCmMFmWnqYMRfs1mBh66cDw3LDTBIsWm1cKEhCSRQicvuR+l9WmDH7aW83oSsMOL32qDcf+r76ZEv24Z1Smx5jzcyIwSUIDm4/JbMe84eZzPb0XKUAP8eym7nnouCmz+7BVJq1SQdlFwiEkBIFh2XeQJsJHyZcBGEifazZ5yM5zr5jF8vb4SUON3Kd2AhLTUW/yQasn6WHGTNYVBdsUc/ANbMxw0xXAMgEBz87E+1/SWHGbq+OW5LOFi3bssJMZuZPMneYMeck7SsJ7COHmdLfYGkPsAFxkE4DjjC70Rqk+wbtcckBzR5ns8zjQ1iqHey6A1/uOUz3VzHPZ9BPb8CbI8y434ia/54bYJp2J8wUBhTCzFhhRjqmFUCYGS3MlM3MdIcMaRBvzVx0BJ40OPTeczISacbFHmcQwnqDhNcXxGx5em7iDI+ZMfLbSp4TG2b6fhut0yj33QDTszvLTOFA02FyYSa3H6n/JYWZov0Umf4yU0lImDvM7NIyU9kgZgfU3L0g7RkHWz8MOOKsRWuZZ7fDjAskvSFMIoeV7vL28xRu18+Led56Z6q4ZwaY1a7dAFwyYNhBqex/1N3cTbi5IDJWmPF1olCR2bfr3/x2VLg90nPcgfwMjHRMK6Jn8BaDS/LeKQozFds2fi9JNwCXv+dyYUbal/s8hMc5dphxg1jn/+p7BvQ4zLiB+O91m2aQFpdYTL/xQG7qtbalg7114Mw19da719VbF061ykrE+3Jh41waulzg6A0ULggF9XQQacKLK+95nqK6YtARjDKrQpjBZho1zNiBQF/IU+ng4AJNZx2rHsAcafAo4sJDc89IMLiPFmas9Negs4HF7DeoK93D0nXcrbJGvE8faGIlMz4L1Tt4x+8T/dqb99gMYabZ3v9e6nrPpWWNeH+tz0Ia7EcPM+6+mY6bP8VZlZCbYfH3k9QzCvXALc1KZAJONJA3/YXtaidesWHm3Wtq+6BQ3svPjFjm+ISAlZ6fJYQ70zaokwag3uepYZ/zjnOv8XdmgHksaGYGwPJ1z87IoWMVHFXbl3WYeUUdE8unSg5/Ev4CMDAfwgywTtxvtaSBpnyGYBe4mZlLZ47K5ZPkZqZ6l7Uq7jUbJ4C4GR6+mwkbhjADrBszOOr/5YdLPSU3vy7bKXXeLC9dV+dPSOUTFCxRlQVHGz7GnUmxszN8azY2CWEGAABMGmEGAABMGmEGAABMGmEGAABM2mhh5v+9868VwQgAACwbYabDsSe3xe1jWXT/AABsAsJMj0UGjr6+dXmqpAwAgE1CmHGkcFCipJ+0jtdVpqXl4eOuMgAANsmEwsw96lvVgP2tr0tlja/dXwWI++8Ry7rMEgakNkNCRt8+u/oash8AANbZZMLMLfd+Tx377lF1i1BWu+2o+s6T31PfuE0o6zBLEMi1yYUM/W+XsI3XVa+rDACATTKRMHOn+sZ3t9V37r1TKGsUBZ4FS0NFV8iYJYCEbQgwAABMJcx8/bFq4H5MfU0qq5UtQ3XR4aCU1F5Ly4bULTGkfwAANsEkwkzRfTBFgWe4oWFB109J9bRcWdp+CKk/AADW2eqHGXMfTN+Mi12GmuXG3z5DA0JaP3zcVVbC1x/aDgCAdbbyYWaRN/5KxgocJY9L+9b1pH5K2wMAsM5WPMzY+2D6bvw1y1Aj3fibCw2psE4oLet63NWPpsvHqAMAwDpb7TCzpBt/Q2kwGBoUhrTPlents+x3aBsAANbBSoeZ3bjxNw0Es4aKkFRP6yrT0n7C+l1lAABsktUNM0X3wZT9/ZlSPhCEwWBoSEjrd7Xv67urryH7AQBgna1smFmFG39LhG1K+XZ97dPy8HFXGQAAm2RFw8xyb/zdjSBQsk9dJ1VSBgDAJlnNMLMLN/4CAIBpWukbgAEAAPoQZgAAwKQRZgAAwKQRZgAAwKQRZgAAwKQRZgAAwKQRZgAAwKQRZgAAwKStaJh5TO174yP16HveB2rffVK91XXgzDX11rvX1VsXTonl6HfzMx8E74GP1NFnHmvXe/xKVOfRF59u1wEArLXVn5kxg9WcYea+n6qj1UB3z+NC2UDHLlQB5fJ5dUAoCxFmxvS0uicXZmouABNmAGDjEGYGKg0zGBNhBgCQR5gZiDCzGwgzAIC86YeZjnsm0nsuYlfUHWE/nU6p83rJKOPSmaN13Xp5SSiry6swdMzX08Ho4Hl1ydR/RR0L6n6h3u60QpQ9rvMn0v0m/SyTeT30c2sDiH++oyAihsuuwDJWmHlKvbSzo3Z2XlZPiuUAgCmadJixYSUMJZkBbVdmZmzQEMOMDhz6XhoTVq6pS5d1+Ejqn3ilqndNbR9s2rb3HYSsevtRtX3Z9V/XW6I6XDavmX2dgteQMAMAGNGEw4wd4FoBpZ4ZCLatXJhxIcXNvNg6YX0bSNK2Pvw0AceFmSS4DF8K268+3Pq++kR0XL15m9QmQ3q90ud/18IMAGAdTTfMuAGxWTYK9QymcxgnzLhlIBdm9DJRXN+FlAxbP23jt+0ywgwAYMkmH2aKAspEw0x/SCHMNAgzALCpJr/M1D3AOZMLM6X3vYwVZlhmAgBM1xrcAFwSUuxgOMZAF93zIpQ35gkz1WNzA3BfUBkrzIyoJMy0wol7faJtobHCjL8B+G119pBUDgCYohUNM83g1pIMVuKvX0sDmhtQm3pDfjU7ZmZnqhDhhWEiLWvYAFMcZjQXaCLRrNBUw0zF1POvha5vw0gYWO54MXy9Qs1rl//1eykAH1Fnr+ows6Ounj2SlAEApmr1Z2aAMZ18mTADAGuGMIMN4mdm+DszALBOCDPYCE9etMtLO1fPqW8K5QCA6SLMAACASSPMAACASSPMAACASSPMAACASSPMAACASSPMAACASSPMAACASSPMAACASVvRMOO+NLDze3awCPa7o64XfGM31t8T6mePfqI+vveJePvtV9THJ3+uzobbAGAXrf7MTMe3ZheTvuhwkcwXRJZ8s/YYjqrty7nw4crCL6qMtI9xHcPM3uf/qB5/J/H8FbFuka3fVH18pu5eyuu7e87e/4n67aPV5y9XRqABsCIIM4uwMmEmZoJK9K3bm8GEmSi8/FDd/ZoONb9Re4N6xTYgzDx67697woqdtfnt/T8SygBguQgzi0CYWSntMKNdUUdmnaFZ9zBjlpE+Udf2CWWh0noAsGDTDzOmPLi/5sWn67Kbn/kgLotcUXeE/RQRlm2CcHDsQlIWSkJEvZyTKbeB6BV1LN2nDy0Hz6tLYfvE+RNBX05XmEmP59KZo3EdfzzmX11HH9spdd78nAa39HlaVrCTyWHGLz+FszN+xqbx8OkfJvUzXruubq37qRy8rh7uKi/xyCH13Edb6sQje9SJ959SFz9yXt/fqrv3ha2mPKljyt4/JM9CnX6wqv+gOhxsM7MymeWlVNdSlPbNs2+bL/i8evaIWA4AY5h0mLFhJQwl7sbhINAYI83MmLBSMrPRNzNTlcdhwYWCcHalDg1BsHABJg4qY8/M2GORw4w/f13nmrp0WZ9jun+hfd/zsWC5MHPr6c+qoNHMsOx9PpltMTMwf1RHtoJt9faOmRmh3BzD0EBjwowNJ9un3TYTPoLHlcOv6zphINmvtnU7F2Bs0IkDi9cOOgOXj/b9vHM5ijADYBkmHGaeVvdIAcXUT2ZdRgkz5aFhlsG7FZRceIiDixQ0lhtm7PHYOnaf8f7lfdg6rT477Vcfbn1ffSI6rt68TWojKw0zbXYpKpydMTrDjJ3dabUxMzVd+xK4MBMGFx9UnnthT0edigk9elbH/+zDjG3v65sgFM30/EhdG7J0xFITgBUw3TDjAoq8hJTUH+ueGT87oXWFgt4w4wKA70vqszgQLTPM+OMJ68T771xqKzjGRegOM8EyU7o05AwLM+5enIzWLE+XkjAjLBOF9Uzbermq+tnN7PgAo8NM3Zc2NJwQZgCsgMmHmaKAMlaY8aL7VfS9I0l5ZxDxQSZuJ8/MTDTM9O5juXJhJlr68UEmqjfLzEymzSzGCjPBz3pZafu0fqzb2HtxojAz08zMr9XPbhfKAGBJJr/MdPSZx5LtgrHDjCfew1LpDCJyWFiXMGP2IQW8wRa8zOTCSx06xIAy+zKTFJ4GG2uZyYWW7dP6Xxt89IyMDTVp23HvmQGAZViDG4BLQooNPq0bg+eVCxwu5LQCgdEOH/XSzExhxrfvDxDLCDO+bJVmZ1phxs/ChDfkum3NMlCzXNQKM2kQSpmwUzg7U8/yCa91SZhxQUW8ATi4F8YsJ72/1WzTYad6XC8/1W1L/sZMo/S3mXYuPiWWA8AYVjTMuPAhSQKJ+OvXUmhp3WMz9Fez3SAd6QgbZvAP6oaDe7RMVamCQCtoDAgzdaAI+hz6q9l1oGpxIak4zDTlcT+l5zI+E2ZcMPGke1fsPTRhnczNvJoLLLX0N5XScqmOVr9PZg0zlv2NpkZa7n91u+nLBR5picrdB9P6GoNUyf0yJ1+2YWbnZfWkVA4AI1j9mRkASzfeXwA+os5eJcwAWCzCDACBCyuZQFP83UxuZoa/MwNgkQgzADJsoJnpW7MPnVNXzfLSjnrppFAOACMizAAAgEkjzAAAgEkjzAAAgEkjzAAAgEkjzAAAgEkjzAAAgEkjzAAAgEkjzAAAgEkjzEyB+bLN4Hul3vipulmqt1L892vJXxK6u+b4Y3BDue8v+m3Jdx0BAGayGWHmtkPqV1vfVx/eKZStOvcFmf3fDL4kxcezumGm65uei/9Mf5EfqWuEGABYOMLMijPfCr5KMzGrFq4GGu8LFAvs+/mIwQgAkEOYWXF3vLhiy0pTDjNuyefaPqEsVFqvD2EGAJZiRcPMHvXmQ99XvzqwR33hzgfUJ1UQsY6rN29L6kbllcP767JTB47HZZEH1IWoj6TvVgDarz50j+N+g35MG92PPf66TnBMQ3WGGXMvTbKMk4YN81jXeUzte0Mv+zgvPt20qSV13rui7nBlZoao3p5q6jXLS1JZKN1XGpBs+dFnHkv2neuvn5mVySwvpbqWoooRZgBgKVY6zKRh4cLh6vFDh9Qp99iGiiBM+HZpeOibmRkQZswx1ceQ7M+10XXqdi5sZfctSW/4TdSDfnGYkdql4cGFkCg4VdvS0DNgZsaGECl8uH2Ffbtj0uHFbgvCTl1PaFds4PLRGEGEMAMAS7HaYSYILlocXpqZkqitCQ9hwKmMGWaSoBQFLHE/tp2ZZaq3lRtnZkYOLk1wcPspmfUYIczktsfn6sJMElxmX3azN+MWLx2NsNRkZnfGuPcGANBptcNM1/JMMAvS1hdMEgPCTGcomWyYkYODaIQwY85J2pc5H19/5DAzNJzMEWbsb0SNcM8NAKDI5MNMNqCECDOEmZlmZn6tfna7UFZolPtuAAC9phtmhoQEwkxPmBkQEkYIM7uzzMQ9MwCwriYcZprfKsqGlJoNFNn+0hDiHsd9r2CYyQSX6ObewjBTt43CQ1WvNYNi25bM4uRCi7gvE8zC4xw7zJT8jZkGv80EANMx6TCjib9+LbULAooV3yTc/nVrG0JWOsxUbGCo6hg6ONiwMTjMBNvj/sJyJwhNrXqtska8v3RfyQzTAsKMvw+m9y/yjnDzr0GYAYClWNEwAywGfwEYANYPYQYbxoWVTMiwv4k0UgApnQkCAMyFMIMNZAPNUr4128zO6IBEqAGARSHMAACASSPMAACASSPMAACASSPMAACASVu5MEMoAgAAQxBmAADApBFmAADApBFmAADApK1/mHFfYFgr+ILETXbgzDX11rvX1VsXTonl2CQ/Vl/9iVK3P/HjePtdv1S3X/q9+nK4DQB20QbNzMhfXDjUXF90uHRH1fblKpjocCK6prYPxm3WMczsff6P6vF3Es9fEesW2fpN1cdn6u7kuVs3Xz6j1J6f/FJ9MVdGoAGwIggzA00rzMRMULl8Xh0QytaZCTNRePmhuvs1HWp+o/YG9YptQJj54hN/6gkrdtZmz5l3hDIAWC7CzECEmelphxntijoy6wzNuocZs4yk1C3fFspCpfUAYMEIM2l5fX/NB2rffb7saXVPeN9N4ugzjwX9lDt2Ib/kY8qS4GGXgF5Rx+ptp9T5qu35E8HykBHWaXSFmbj9dXXpzNG4zolXbL/mX78Pu//2clW6vNVezlomOcz45adwdsbP2DQePv3DpH7Ga9fVrXU/lYPX1cNd5SUeOaSe+2hLnXhkjzrx/lPq4kfO6/tbdfe+sNWUJ3VM2fuH5Fmo0w9W9R9Uh4NtZlYms7yU6lqK0r559m21s7Ojrp49IpYDwBgIM4YNK1EoMTcOh4HGGmdmxg/2Yeiotl1ogsaQMGMCQ13X9S3c89IVZhq2TznM+P3oOtfUpcs6pKT7E9qbtrsXaHJh5tbTn1VBo5lh2ft8MttiZmD+qI5sBdvq7R0zM0K5OYahgcaEGRtOtk+7bSZ8BI8rh1/XdcJAsl9t63YuwNigEwcWrx10Bi4fffv3nctRhBkAy0CYqdz8zAdCQLH101mXMcKMDSXdg/ugMJMEF6mtNkaY0bNA8X7jMCPvw9Zp9dlpv/pw6/vqE9Fx9eZtUhtZaZhps0tR4eyM0Rlm7OxOq42Zqenal8CFmTC4+KDy3At7OupUTOjRszr+Zx9mbHtf3wShaKbnHXXLkKUjlpoArADCTMUElGTpqJbUHyPM5MJGaEiYKQ0J84cZH8DCOnGYMcetg44kCV3L0h1mgmWmdGnIGRZm3L04Ga1Zni4lYUZYJgrrmbb1clX1s5vZ8QFGh5m6L21oOCHMAFgBhJnKkIBCmEnrCGGmdx/LlQsz0dKPDzJRvVlmZjJtZjFWmAl+1stK26f1Y93G3osThZmZZmb+pL56l1AGAEtCmKmYZab3rqg7ku2S8ZaZwlDSNtUwU3JuZRa8zOTCSx06xIAy+zKTFJ4GG2uZyYWW7dP6Xxt89IyMDTVp23HvmQGAZSDMGO63lQpCig0+7RuDh7FhIA4WVSgIbgBOQ4F9XLVZ8TAjn9vuaoUZPwsT3pDrtjXLQM1yUSvMpEEoZcJO4ezMwfPqknldhXuoSsKMCyriDcDBvTBmOen9rWabDjvV43r5qW5b8jdmGqW/zbRz8SmxHADGsPZhxoaPKqi0pIFE+vVrObSk99jM9qvZLgSYgUwazJJyHRZMoFhMmMnf6+L2VxxmmvK4H2GwXhITZlww8aR7V+w9NGGdzM28mgsstfQ3ldJyqY5mntfM81MUZiz7G02NtNz/6nbTlws80hKVuw+m9TUGqZL7ZU6+bMPMzsvqSakcAEawQTMzAEqN9xeAj6izVwkzABaLMANA4MJKJtAUfzeTm5nh78wAWCTCDIAMG2hm+tbsQ+fUVbO8tKNeOimUA8CICDMAAGDSCDMAAGDSCDMAAGDSCDMAAGDSCDMAAGDSCDMTc+zJbXF7iVzbefrM6etzEfucx6zHs8jzmNpzCAC7hTCzRHrwyZHqS4bUTeXaztNnTkmfYR39c5ew3VAl7Wfdx7zH1mXoceufu4TtAGCdEGZGJg0imi9L63dtT5XWk3S1HbL/lFRP6yrzSupopfW69PUx6z6GttP1U1I9ravMK6mjldYDgCnayDBzy73fU8e+e1TdIpTVbjuqvvPk99Q3Bnw7cyodQHIDirRdb5tVaV9d5WH7sF7X49CsZZKh9SW+D/1vibT9kLaa1F5Ly4bUDXWVSYbWB4Ap2cAwc4/6VnVh/9bXpbLG1+6vBqX77xHLSnUNXLmfc+YZjKS2fltXWd/2sI8uYZuwXfg4lZaHjxdh1n0MbZc7N/1vl7BN2C58nErLw8cAsE42L8x8/bHqwv6Y+ppUVisLPH26BpTczzlSnZJ2WlfbIf2m23P1tCFlQx8vwqz7GNpuyLkNKRv6GADWyYaFmTvVN767rb5z751CWaNoGapA14CS+1mSK+9r50n19Lah/abbc/W0IWVDH5fS7ULh9rBebluJoe3S+l3th5QNfQwA62SzwkzRfTBlgaeLHjhSfntYR/o5FbaXyqTtKaleuC0t79pfSqqnDSkb+ngWi9rH0Ha6fkqqpw0pG/oYANbJRoUZcx9M34yLWYaa78Zfr2tAyf0c8tvDf/uE7T2pnpbWkX4ODWmT60OT6qbS8vDxLPr67NqHLpuV1FfucVdZSqqbSsvDxwCwTjYozCzvxl8vN6Dk/g2F26Tyru2pvv7Tx6X7m6UPbUg/0uNZ9PUxyz7GaNP1uKv/If1IjwFgnWxMmDH3wfTd+GuWoea/8dfLDSB+e+kA09dPH6leV9vS/XU9HtL/0MeGmUFLZiM6QqjYR6CvXDJGm67HXf0P6Ud6DADrZEPCzHJv/PWkASTcVjrA5OrN076rben+ZulD6+tnyH5K5frw24fuY9ZjStt19TOkbOhjAFgnmxFmlnTjb0oPIF64Tfq5S67ePO272nbtLyXV04aUhf15aXn4eBZdfQztP1e/pB9dJyXV04aUhf15aXn4GADWyUaEmaL7YIr+/ky/3GDiy3KPpfperqyrTUjXk0h1tVxZun2WPrSuMsnQ+infft5+tL4+hpZ31Z+1TDK0PgBMyQaEmd2/8bdkW9dgo8uGkNr3bfOPpbpDlPRTuo8xjiltqx+XCNsMbatJ7Uv59l39lO6jpC8AmLq1DzO7ceNvqm9Q8qRybVkD0Vj76etnyH6Wde5jGuOYN/05BIAh1jzM7M6NvwAAYHk24wZgAACwtggzAABg0ggzAABg0ggzAABg0ggzAABg0ggzAABg0ggzAABg0ggzAABg0tY/zDx+RT363keNF5+W68E4cOaaeuvd6+qtC6fE8nKn1Hndz7vX1PZBqXx9HLtQnefl8+qAUJbnnx/vFXVMrLcmvv17tefS79WXpbJVdOIV+7oMfl2x28a7hvW465fq9im9p9fcBs3MPKb2vTF/mLnjxaqPN36qbhbK1gFhZrjZwkzDPudrHGbMRV+pW74tlC1J/b7OuHTmaNxmw8PMvO/pYY6q7cvV/sRrjitLXq9G+/qytDBT+fIZNa2QvsYIMwOte5jBcISZLu+oW6ogc/sTPxbKdsnB8+rSBoTseaxOmImZz8pKBcwfq6/+pAo0Z94RyrBMhJmBCDNIEWbyzP9cf/JL9UWhbNcQZnoRZgZYgZlHEGYCrry+v+YDte8+X/a0uie87yZx9JnHgn4KmClsPXglU6jph9lcdIPy6ENsl3HOn2juvTh/wl2Eqp/jafP2VG06rV5PzWbKNdO3PkY/BW+kg0LBvSD1YNJz/hV/Pinp+JYmOn8nvcB2vnax7jDT/drZtsLA7Pav3xPR9qWyszJ9F/n4NU7OxTzXybbWudnnyDwvne9Np37/CWXpa9t6T87zucvsc6na76fmvZl+dmPpZy69ZrTe4+a57LjOpZ+RhPTe7Qozvdcwfzz1a6yPzZ9z+toMe+36Qvs3z76tdnZ21NWzR8RyzI8wY9iwEoUSc+NwGGisUWZmggtm/YFLL9CmTvwBMhfM1oXH1tFlly5fM/2lg+OxC8kH0e1fHuhsv60LQaUedOpjcB/4zouLMEgHF7H4fONjsvsL2rt20rEtiz2nrtel0vvaxbLPU6X/tZNfL9NnZn9LY276/ZP66l1CmeEHjPDcq20Xup/L1mclGnjC933mOTftkz5bXJ+ZMNP/uRNeF+lclqzrfRjqrVedS/yec89L+Hy596pW1229dlruuW4re19nrmH+eEx7Xad63arXrv5PVb3/GV67nhvcCTOLR5ip3PzMB0JAsfXTWZcxw0z8gQ4/QPbD1fowRhfh+OJhLj7uQto1OFqZD3tPmXSB69pXtky8oKX7lS5w5Re90KkDx9UnW9+XHd4vtpHJz038vJS8drH+1yvUPobwtc/V2Q1ffOJPnf9btefdM7hLg0jr/ePeF6XvzY7XopF7r9nntu9zZ35Ojif73lia8s+P9Fnv02rTe53z28qPS35eU5n3f3Q84esY73+m146lpl1HmKmYgJIsHdWS+uOFma6LqfugZYQfRv/hCi8krYu4u/in/cgfzMyFoCJd4Fr7KikrCjPxQJFvt0SZQTB+Xkpeu1jXc1j02qXPi3l/ZfrrIQW/Xx3YI9bt0zf1Lr2fWoaEmYLB0Mi8jrFcn2WfO/vezSg9ztoe9eZD8WvyydZx9eZtUt0ebkA3Op77/tfGPT/heaV99l7nvPLXzzzHfe+Z3DUsOp6wTrz/mV47wsyuI8xUhgSUZYaZ1ocxUnZRrQfD6EPY1X++TLrAdQ3E2bLWYKS192vbu4uI0/2cLFhmEIyfl5LXLtb3PPW/du2L8a4+T07fzIz0fmqZcpjpO7fd5N9bRvu913387rlJ2rXaTDnMDH3tTJjpWlLFohFmKmaZ6b0r6o5ku2Q5Yabkw112UZX3lfmw95RJH/LsQNxV1hqMtHS/9nFcZzajLTOJx+1eq/p5Kb8we9nnachrZ+rqPnS5/HosXc89M13vnZr0HEwgzBSd2yoQ39N9A7r8Hmy16b3OeeWvn3les8fldX1G/PGEdeL9z/TaTe2PQq4hwozhflupIKTY4NO+MXiQkg+5qSN8IGtlF9X2xcq2y/eduRBUdiPM5M9/N7iLXv0cuMfVcbYv4uXHXv48db12TdmQILVYfX9jxh1z9J6qntPwBuD0OXCP9Xk2z0v5YGiYPhYbZuRzW0GZa5E9l9xz1H5uzPOQnm/Jdc6x7eXrSMgcV+9zGr9Gteh4wjrp+Qx/7Up/m2nn4lNiOea39mHGho8qqLSkgUT69Ws5tKT32Mz2q9kFH3I3KEbqD1jpRdU/bvo4f8J+eMMPe30xamn6Cffh26X7CgebVL2/1iCtCRcg6fy1AReZ8bkLnaPPQbzAdr52lZLnqVLy2sV1ywaPZen/C6luIKnPsX388XOg32v2NVhEmEmf74Y0CHZ/7tL3StzPbhh2POk1IXrPpe/f6rk35x++x0uvc0b6PkivD1ZrH4Hea1h0POHrKL1/BjxXJffLnHzZhpmdl9WTUjnmtkEzM5gUMfA026XBfNN1Xeh3zwr+BWBgNKV/AfiIOnuVMLNIhBmsJjez0Qozue2bbtD/gpfM3E9AoMH66Z95dNzMDH9nZnEIM1hZ8pT/ig7Yu6SZWl/x54UbJLFuzPJSz3v60Dl11Swv7aiXTgrlGA1hBgAATBphBgAATBphBgAATBphBgAATBphBgAATBphZiKOPbk9aPsiLepYxjiXVenDG7MvAICMMLMgehArIbX1wvKSn3N0nVnk+pJ+LnncZ2h9yRh9aIs4lrGODQAQI8zsktKBzddL/03Lx9DXl1Qebsv9XMLXL22n681K6k8ypG4q13aePgEAso0MM7fc+z117LtH1S1CWe22o+o7T35PfeM2oWxOswxoXYNjSqpXoqttuo9UWidt3yWtP7S9N2u7nHmOo4/UDgAwmw0MM/eob1WDybe+LpU1vnZ/Nejcf49Y1scPVumglQ5kuXp+WxepXfo4Fbb30vLwcSnfbpb2uTZj9jWrMfob+5gAAG2bF2a+/lg1wDymviaV1coCT044gA39OeXL0n/Tn6XHqb76fe37SO1zfertffsrqeP5ujlSmy6+zZC24f5KSf0AAIbZsDBzp/rGd7fVd+69UyhrFC1DdUgHKf84/TctT4XbpZ9L+/H66pe0l4TlYX1pm9QmJ9dG0lXe11bi28zSVsu1m7U/AEDeZoWZovtgygJPl6EDmbQ93ZZ7HG6X+gmV9pkjlUt9pMLyRejbzyzH4NvM0za3bZY+AQB5GxVmzH0wfTMuZhlqvht/08HKP07/TctzuspzfUr69tvXh1Rest9F8vvX/3ZJ23VJ6w9pL7WV2g/pEwDQbYPCzOJv/PXCgWroz+G2nLRe+G+XXNvc45Qul4Tlaf3wcbh9qFw/0s+prjJJWr+kva4T1ksf+23p43QbAGC4jQkz5j6Yvht/zTLU7Df+en6AKhnMpO2hvj5y2yS6XiotDx+npPJwW+7nEvPW72o/pO9c3aHHF9Jt52kPAOi2IWFmOTf+eunA5R/nBrQh20u3SdJ6fY9TffvWP3thnT5D60vCfUukNpJc3SF9eLl9z9IXACBvM8LMkm789YYOYLkyvT0s6+o318cQfX3ocklYHtYvkWsztK+u+qV99dUb0k+ubmkfAIByGxFmiu6DKfr7M2WGDlh99UsGx6H7lJQcR9e2vvLULPvLmWc/2lh1cnTbedoDAPI2IMws78Zfzw9cQ0j9aGF5Wq/vcalc/6mwXGojtc/1qbeXktqnpHp+W18fpfvQhtb1pHIAwDjWPsws88bfWUmDXW4Q9NtyA2Rue5+SdmkdqY3elkrreF1lXkkdLVevr31p/yHdRmrnt+fKAQCLseZhZrk3/gIAgOXbjBuAAQDA2iLMAACASSPMAACASSPMAACASSPMAACASSPMAACASSPMAACASSPMAACASSPMAACASVv/MPP4FfXoex81XnxarofNdtsh9aut76sP7xTKBKcOHFefVPU/ObxfLAcALM8Gzcw8pva9MX+YuePFqo83fqpuFspW2bEL19Vbl8+rA0LZ+I6q7cvV/i6cEsp2yx715kMd4YMwAwCTRZgZiDBTYv3DDABgdRBmBiLMlCDMAACWhzCTltf313yg9t3ny55W94T33SSOPvNY0E85EzDe9a6p7YNJnROvBOWVNIyY8lfUsS+dUueDepfOHHV14u2ppl7YX1AnDCMHz6tLZrveX9PmwJlrTV91Hdn5E027pXEhxSwJCerwYuodV2/e5kKPK//VgT1Rf/XyUqa8ducDUT1NDkpPqZd2dtTOzsvqyVYZAKAEYcawYSUKJebG4TDQWOPMzLiZiygYVNsuNGHFhoQw4Aht6vDR1Gu3s/pmZmy75HjS2RUfVvw297gViiY8MxOFDhdI5BCyX31YlYlhZtAsD2EGAOZFmKnc/MwHQkCx9dNZlzHCTC5wNOyMSiskuPBQz3CYMJP0k9ZxusOM3V9r5qSe+Um36bpdgWWMMGPDQjiz0dAzKFKbLrMsM3UElq4yE4JmOUYAwCwIMxUTUJKlo1pSf4ww03v/igkkUtixIaEOOWOFGdcmXBJqtI/DLy21gk5tujMzo4QZv6+qXCuboQEAzIowUxkSUNY5zLRmZjJMX5mgY216mGlcONyEmr66AIDZEGYqZpnpvSvqjmS7ZLxlptyshrY7y0zte1/awiWyfJ8bvswkMKHmoUPqlFAGAJgPYcZwv61UEFJs8GnfGDyM+y2jKAhUASC4AdjOfoRBxQWEsM2AMNN3n45fOuqcnXF9N6HHnYcQWuzxdwW25bOzJA+oC0LZYsNMV5DyNwC/rc4eSssAACXWPszY8FEFlZY0kEi/fi2HlvQem9l+NduFEx0GjHbQaO5NcdLQMCDMaM3ykJXOxLT2p/l9mn1Vj9OZGL+9FWjS8+sJSksR38ui1eGlMMyEy0axJiSlv75t5GaEvnREnb2qw8yOunr2iFAOAOizQTMzwIo6+TJhBgDmQJgBdpWfmXmZvzMDADMizAC75MmLdnlp5+o59U2hHABQhjADAAAmjTADAAAmjTADAAAmjTADAAAmjTADAAAmjTADAAAmjTADAAAmjTADAAAmbf3DzONXou9Rkr9oEgAATNUGzcx0fWt2OfMlkwXfrg306/o2bQBAKcLMQIQZjIcwAwBjIMwMRJjBeAgzADAGwkxaXt9f84Had58ve1rdE953kzj6zGNBP4VOvKLeevd64BV1rFWutx1V25eDehdOxf0cPK8uRf14YX9JH9rl8+pA2M/SuYF8q/GrA3uiOqcOHFefPHRInfrSfvVhX72gvOZDwp0PVI+Pqzdva9p84bZD6ldVnQ/v1I/tsfzqwP76mPQ+6n7TsGH6E/bjXDjstkX1gv27fUd9BOwxee3nyT4nYR3rm2ffNl9cefXskVYZAKwzwoxhw0oUSsyNw2GgsUaZmdEBJAolLmyEASMIO5fOHG3aVY/Pn3B13OO6vHLsgm4TByOzbdfDS+zC4SRcuIE/HMjDkFJvT4KJrRP25YJPGDAKw4zfjw1Rx9Wv6kCS7u8BdcH3I8yumDCjj6EOHa5OK4S026ZMX5nwkiLMANhUhJnKzc98IAQUWz+ddVnUMtOBM9fiEOLCTB1cjFPqfBheTJ1ravtgUKe1zQWldEZnMGGGIBDPJszChpBw1qUdVCpRCJEH+9a20jDj2kT7jdraY2ydq6nTBBzpmNohSOsLM/1hBwBAmDFMQEmWjmpJ/bHCjJ1BSaVhJgkqqdzMTDoLE8zyrMwMTWappR1m0gAQaweedigqDjMuNET7Ddtmjtlq+h8vzFTM/t0+kj4BABZhpjIkoIwRZmyQiYOKPDPTE2bcTE02EKWi+2s66i2aDwXRIJ6bmekOM9Fg76XhYOQw05qZSYwaZrwoSPU8JwCwYQgzFbPM9N4VdUeyXTJ/mJGXfWYJM6bNLDMt6b03RdzAWw+osb4BPiKFi5nCjD2maBZGMlaYkWZ9BAsJM15hoAKATUKYMdxvKxWEFBt82jcGD5EuBdkgk8yWlIaZWWZYimZ9Fqg1INuQoEPRLGGmNwyk+wtmOYaFGV/WHSbKw4yr23mOCTEIWv4G4J2LT7XKAGCdrX2YseGjCiotaSCRfv1aDi3pPTbDfzU7WR7SwcYEjGFhRvyVa6eZdZGWonYxyDg+FHgf3tmeZekPM5UgmMTidvH+dJkNUEPDTLsvJwhUQ8JMve+gLynkNeQgY5x82YaZnZfVk1I5AKypDZqZWT+5X7m29+Ts4j0xS5Nb9nEhYMjyzVo4os5eJcwA2DyEmckS/jZN5/Y15GZlWmEmt33duZkZ/s4MgE1DmJk0aQmpMvfflJkQswyULsV039Oydg6dU1fN8tKOeumkUA4Aa44wAwAAJo0wAwAAJo0wAwAAJo0wAwAAJo0wAwAAJo0wAwAAJo0wAwAAJo0wAwAAJo0wY+xX2x89pS7WHlSHxXqryh//ljrxiFS+Jr79e7Xn0u/Vl6WyIv6PDO7+d1MZ+nx+8kv1RakMAFCMMJPY+8LW7oeZ0w8GwUrwevqdQ9MMM4dfr475/UNqr1DWctcv1e2XlLrl20LZwfPqUhVSmi/XzFmxMPOlH6uv/kQRaABgToSZxEqEmYgNKtunpbJpKw8z76hbqiBz+xM/FsoqxWFmFfWcGwCgF2EmQZhZntIw8+UzPbMXkw4zFbN89if11buEMgBAr40JM2bg9Ms0HcsxfWEm7kcKGXvUiffjOs+9EH97s9mHGcTje3XSelZXmInbt4/bHstzL+yvj0nvw55j9ThdrkqXt1rLWUKdNIyY8uT5feSQeq6qa88hPeZY+zmwMxfS8tKBM9fiL9iMvKKO1XXTL+QMyzT7TeOXzpyy3zhe1bl05mjTf/rFnSdeCfrKlet9uG8wz9WrueWmM+8IZdoRdfaq/iLJt9XZQ1I5AGy2DQgzPlyEA3217XV5RiAfZlw/4QAfDdLW4deTgdwN/mGdOkyE26UQYJTNzMjH3QQr3d6GqC31nD6HZH/t9u3ztXXCYxSe294w0yiamSmZtRgwM2MDihxmdODQfZg6l6+pSzp8mGDS3GPTbu/ahkElCDs6FJltPcf4xSf+1DH7RJgBgC5rH2baA3A3ORRUzCDd3m4GZGkGo2bDSDjjIB5TZsAfJcy4wBDtNwodmX1E59w+DyM97pHDTPcg74wVZi6fVwfqOi7ARGHGzvC09lPPxISP03q2bR1uUiw1AcDM1j7MFP3vP5ALM3Z71Zck7N8N3GmddpgRApNohDDjwlZUJwwdmWO2wjpJSAn2UZ/fyGGm934Zbaww42ZXojphmHH78bMuseA3pKIAVIgwAwAzI8wkusNMTwDxoSCaqcnNzKxemOncxy6FmaXOzBSGmd79zBxm5vkbOgCwuTZkmak0OHTUlwbplFhnAmFGOMa2TJ00qIwcZpZ6z0xfmOlbKvJmCDNFoQ0AINqAG4DtIBwPmtUgP+sNwF0hpDVou31XVjvM+LLu/ZjwEQUV13/43KbPgXss9W33mYa/VMnfYXG/rRTehJsxX5jxZT3BaXCYKf1tph310kmpHAA22waEGc0HEU+eOWjKG/FMRNqPFQ7SPhQ0ZbbNQsJM73GXh5mmPOkrWjIT6iTl7Tp6f/lzsAGp0Zr5qZj7ZvqWYFr3swSBpeNeFzvLUh5mmvKkrzBIDQ0zBbNPT160YWbn4lNiOQBssg0JM5i2df4ruYXnduicukqYAQARYQbTYGYv1i3QlH83k52Z4e/MAICEMIPpWLff+NHn0xNkvnn2bbu8tPOyelIoBwAQZgAAwMQRZgAAwKQRZgAAwKQRZgAAwKQRZgAAwKQRZgAAwKQRZgAAwKRtTpi58wH1ydb31ScPHVKnpPLafvWhrlc7rt68TapXaGJ/G6X+U/0F33PUzX1f0sAvXNwoBX9nZjD3xwW1W74tlAPAGiLMRPaoNx+q6hxuf9/QTO76pbp9YoMKYWYkf3lVvX/qf6v/6T3wD0K98r8AXGSC7zcAGAPLTKHbDqlfzTsTU1vn7xNCJxdkXqu/OPIf1GvZQDPe++SLT/xp/JkeAJgAwkzIzN6ME2bMNz0zsKysUweOFyw5zuKkeuGEEFzu+mf1P0/9Vr3wl8E2zywNdX9rdgnCDIBNtf5hxi8veV1LSKOFGfu/7ex0/4lX1FvvvqKOfemo2r6sl2Kc1tJOUh4t2dhlnPMn/HKO/vlWdeyC/fnSmaMd/aTlwfJSplwzfetjNMfv66bLSM3xWPo8w/LKwfPqkmnXd/7N+aSk4yvjlhJHm4FL2VmYZlbG+sEDdrnp/ftORtstt9x05h2hrBxhBsCm2qCZmdz9MOkNv4lZ7p/p+592EAbqQdkM8DaQ2Ho2FESDtmnnw0N8T4oe9C9dvmbq22DShIhjF5LA4fbf7Csk7Nepg8Xl8+qA2ebCSP04lh5HzZ1rdAzCMdn9Be1du9mDjH+tH1AXxPIRmCWmcAbGztS8f98/yDM2zhhBhDADYFMRZkIjzcz0DipimIhDhAkCrZBgw4Ot48KMm80IB/5siKjlA0tvmEmOqWtffWGm6/zroBTN1kjbCvkZutzrn87ghYYsR0XLSeEsTWb5yZt7qcnO7nCPFoBNRJgJjRRmeu+XiWZYZPUsiMQM5vHgHwaNVogIZkJCqx1m4oCWb9fP3B9ThZJfHdgjlo/Kz8zclZuhkZaZKjOHGbdENcI9NwAwVYSZ0FJnZgrCTGb5xioMMz7IRLMZ+cCySmHGtteBpiEfc4G+mZnRuN9cOvXP6gfC9u4wM8/fIxrnvhsAmCLCTGikMFN2z0x3mOkKCVZhmBH3NYUwYx8PnYXp1nHPzFjLTLP8NlOFe2YAYHaEmdBYYabvb4cUhBk/mOdnZ+LBv29mpgkFrt+gbSwNFY3dCDPyMc7DvQ9GeZ0zTHAp/TszGr/NBADzWPsw4++XaBMGs9HCjLtvJrdsUBRmtCZ4NHy7eLDPhpn6cdPH+RPhjcS2jmkf1Gk0/RSFGb+sJaj3V7jMZJ8noa9swCu3uL8z47hA42WXl7S5b/61CDMANtUGzcwsG38BeC5i4Gm2jz9js1v4C8AAMC/CzCKZ/3ETaGbiZmVaYSa3fZLc8tJYAcS93/huJgCbhjCzaHP/lsrmSpfHrJLluYnQ742RZ1LM7EwVaAg1ADYJYQYAAEwaYQYAAEwaYQYAAEwaYQYAAEzaWocZghEAAOuPMDMRx57c7nxcItdmzL52yxjnNubzs2rScxjjnMZ8Xmbtq6/dkH7DumOe21Al+/Z1dvM4gVVCmJmI9KKlH6fCckmuTknbVNjG718StglJdSVSWy8sL/m5T67ukD5WVXoO857rPM+J1LZ0m6Sr3pDjDOsOaefpNqWk9l5fuRbWKakPrDvCzET0XbyGXgBLtucMrT+L0n34eum/aXmfrnqlfayyrudF/+yFdXJK63VJ+5D6nPd4hh5nWH9oW01qU7otVLLvWY4PWGeEmbnco75VXVS+9XWpzCupIwsvWP5n6SJWemHL1Sttrw2pO6tZ9tF1bqmSOlpXedi+2Ncfq9p+T32j6Lu/7lTf+K7d1yzvnVR6zEPPJaxfSuonFNZJ63e19/3PQupPS8vSdqmwbthm1m2hsFz/XCJsD2wiwswcbrn3e+rYd4+qW4Qyr6ROF3+hSi9Yue0pXS7pK5OEZV31+vi2aR/6sbSPtJ7f1kVqlz7u2p7rI7fNuO2o+k5Vlg0fSw4zuq3El6X1Pamsq76kpH5YJ/fzskj7H3ocUv3SbaGS/Q49NmDdEWZmZgeb79x7p1DmldTp5i9as1wUU7n64fbSPofuO5TbX8nPKV+W/pv+LD3u2i71l5a1jBpmxpUec/YcKoPOOWPR9TXdJpWrJ2330rb+5752Kd9PidL2Uj2tqwzYRISZWZmB6TH1NanMK6lTKL14hY9LL2y5ekP7Suv3Cdv6NtLj9N+0PBVul36epZ9w25D6xoTCjN+WI9VNH6fS8vBxuH0IqQ8vLQ8f536W6HJfZ0i7lFS/dFsoLdePQ2md8GdgUxFmZvS1+6sLy/33iGVeSZ1S4UUsvXiVXszCPqTtUllKl3fV6Wuv5eoM2Z5uyz0Ot0v95LZ3tUsfm6XEapssCLN1uLX3Ufk6cfhplpesfPhp7zdfV5eH/w6Vthv6eBZ9fXTtM/dzypdJdfS2VFonJJWXbgul5eFj/7O0DdhkhJlZ9P0PXCupU0hfrLouWKUXs7Qf/7O0TSLVT3WVeWmdtN9ceU5Xea7PkC6TpHWknyNFMzO67yZ02ECSCSFdMzkDZ3nSc/KPJWG7sP48j2fR14cuT4Vl0s+hvjq5djmlffT1m5aHj/3P0jZgkxFmZrCMG3+99OKl/+0TtvdyZen2rvbSz6muMi/XV8nP4bactF74r0Qqy/UjldVmWWbqatMRWGwIKlvC1MfbdT6zbB/6eBZ9fXTtM/dzjlSnpF1I1y8ltffS8vCx/zn9F9h0hJnB7BJB9029JXW66YuUdBGT9JX58ly9cHtXX15XnSHt07q5x1199vWR2xYa2iZbtsQw499j+lhydWyZPdb0mHPnULp96OOQLisltffS8vBx7uccqU5Ju1BpH339puX6cSis4/8FNh1hZigzwCzvxl8vvGilF7DSC5pUz29L/+3SVWeW9n37HrK9dFtoaJts2VLDjBffY5Pbd3rMvr4krBfWTx+n0vLw8Sz6+gj37YVl0s85Uh3fZyqt50llpdtCfj8l9aTtwCYizAy07Bt/vfTCFT4uvahJ9fy23L+SWcs8qc4sfertYVlXv7k+tK52kmzZroQZz4WazPsuPebcOZRuH/p4Fn19lO6z5FikOiXtQqV95PrV272S8vRfYJMRZoYwA0/P4FJSZwZdF6zSi1laT2rnt826v64yr6ROqK++Ls/V8du7+vDtU1JdLV/mln5yQXahYaZ7aTM95tw5DN2eM7S+pK+PtHyeY5fqlLTzhuy7q9+0TD/2pO3+57AM2ESEmQGWeeNvSrpglV7MpHpdbXRZX3luW1c7z/c/hNSPFpan9foed23Ptc31UXPhRNez0l/N7gsz4b0wiSAkmdm/pFwKMnp7+G+4PSesF9aXtqd8va5+hpD68Hx5+m+uvItUp6Sdl6sbbvc/D+lXS+unfQ7tD1hHhJliJTf1ltSZTe6CVXohSy+AYZmkq868xzKU1K/eltse/pvKbS8xT9vd1PU8zbtdMtbz1NdPWD7vcUv15mmbM6SuZJ7jBNYZYaaU+V/18m/8BQAA3QgzAABg0ggzAABg0ggzAABg0ggzAABg0ggzAABg0ggzAABg0ggzAABg0ggzAABg0ggzAABg0ggza++H6u7X/qgef8f7TN19UKo3lv1q+6On1MXag+qwWG9Bjn9O/eF3N6pfHBfKMKqXXvtP6v9c31L/+LBcDm2v+sd/0s/TQ+olqdy8X29Sb0hlAIoRZjbJ1m+WEGYae1/YWnKY+bz69Hc3qD+8+hWhbMkOnleX3r2uzp8QyhbhxCvqrXevqe0lvbbaaoUZFxpe2y+ULcDD31L/cv0/qY+2hbJIT5ipvPHeDerPBBpgLoSZTbLWYeYr6hcfV4PCe58XynYBYWbJphtmVu69C0wQYWaTrHGYefbVG1frf7cbEGZ+8PxWzyC9TKsaZlzo+6dvqR8IZTWz3HSD+vScUAagF2FmqIPX1cP1/SeV568kddJ7VP6ojmy1yx8+/UN16+nPgnq/UXujfiomfHT1pV1RR6I6HWGlL8yk+2ud2zDdYWaPOvF+eG/NU2r7dLve4dfjOt5zL+wJ6tn/2fYuL5kB/3rt0pmjSZ2javtyU67FYcSW63YHzlwL6r2ijrk68fZUU0/eXxxGjl2w2+PjPKXOB335OqLL59WBut1u8LMSnhB8th8KyivpoG/Kdbv96qOg3r88v9eWu1AR9RFIw4adTcqU+2NJjsG30XVtgIv7aMwX7Mxy08efU88KZdo3z76tdnZ21NWzR8RyYJMRZoZwg70OIuG2JmC4YBGGgFabIOzU9YR2LjS1w0vA1QmPxwcksV1HmLHtwkDljnOOQJMPM+4m4deD/0WffrAVUmyQCdo/ckg91woylYL/1fqQEYaTA2deCcKDCwkXTtXlPvw0YSIIH3U9oZ3WOzNj20VBRZhdsWGl2WYfp6GosgszM91c+IiCQbUtmDmxwSBcphKWZOqw09Rrt9P6ZmaEcml2xe2vDkvucWsGZsDMTLFzN3XOLhJmgDzCTDEhcCTagcDa+3zV7rXr6lbzWA4JcZ1KR/DwWm2MjhCS7dOeWysAmfrCjFGhXJjJbTfh5f1Dbn9u5iYMPOK2Ss8g4INFeyamYcNOOySY8FDPcLgwkwSXuI7TE2bM/lozJ83MT7rN1O0KLCsWZuxsRtdMhQ07dWjw0pBgwkQSXMQg0RNmTD/t4zHHmbRpwlLmGLVFhBmWmoCZEWZKFcyUmHCRDRE+FBSGmXAGR9yvLY9miRwTqlohp5ILM+nSWaQ7UHXpDC1pINHM7ExTPzczky5H9d4vUzDQm0CSzq5opq0POeOFGTvDktE6Dr+01BHIVirM9M2SVEwYSGdXNNs2nhmZP8x0Lg8J97PUy1G5e10IM8BKIcyUWnqYScpcuEiXq8YMM13nNot5w4xtrwNNo7XEpPXNzKxqmGnNzGS4vuSg4xBmCsJM6T0tri8TdjJtFhZm+BtJwCwIM8XsUowUHrxRl5kEaR25jdy/kQszBec2i/mWmex9NdJNwS19/6PtCRbariwzSfe+tAT35HT1uVJhxs1s5GY1jN1YZpLCU1uzRNbR5yLCTF8oB5BFmBnAhpVkBqMKCPVjv1wTBgkTIMI2s4YZoZ3rOwwh9hgzS0PZMJM5twx/M23fzEIutPjlIukG4Ca82DAjzsS09P+dDhM4ksE+ugHYz36EQcUEhDA8DAgzuRuD0/Ke59AedxN67HMvhBZ3/F33BWn1a5c9rpG4wT4OAvENwDY0hAHDhYcwBBWHmTCExNstP9vSMztj9hf07fbVvm/GhrHO2aeBSn+baefiU2I5sMkIM0O5AFFrzYC4G4VraXgoCzM+XERa+6q07ndJZ4bS4wkk/ZXu0w6wmYHYBxVBHEzSrz3YUiceCfrRXMBpqWdvGva+me4p+nogd9oDf3NvipWGhiFhpuIDUi2diUn3p/l9un1V2+KZGL9dCDQufNWkY6rrCO1H5wb8WjtItO5lScPBgDATLw9Z4uxNUB7WqY8lOQa/PTeL1PTVE5S6lNwvc/JlG2Z2XlZPSuXABiPMYDVlbvbN/no2f0W1kA9DJUtcWI7S9+4RdfYqYQaQEGawmlrLTj3bNfe/WwJNBzcz07ccheUp/m4mNzPD35kB2ggzWFnSbzOJy1EhfiMko1nS6roRGktm3q89QebQOXXVLC/tqJdOCuUACDMAAGDaCDMAAGDSCDMAAGDSCDMAAGDSCDMAAGDSCDMAAGDSCDMAAGDSCDMAAGDSCDMzcd+vFHyHUckXNG6G9DuXhC+anBXfKryZ9Ove8QWMAECYmUH/N1xDy35r9ixKvohvWcxXAizjixqt7BdZbgz33UUEGgAZhJnB7LdQMxPTb7ww83n1aRVk/vDqV4SyXUCY2QUr9h4AsFIIM0MdvK4eJswUGSvMmC/iW6X/lRNmdodZZuR7twC0EWaG6gozYpmdyXn49A/dY3u/jX586+nPgvtufqP21m0aZkmrrvOZunumAXSPOvF+eB/LU+q5F/a0yvW2+Msd4yBy+PVq2+v762+utvJf/CiHGXcs7x9qna9c3/6PvG95yQz47osU5aDRfNGiWOfgeXXJbDuqti8H9S6cquvE+0ikYcP0lytv9hF96aNvY+qmxxtb3Ldet/cbfzGlPXazf/cN3Fb7Oc89X9GxR31Y+S/CdMtN2W9FP6LOXtVfyPi2OntIKgewrggzRdo3/Eb8/TMDwoxp9/yVqE7zOKwXhpxq2/PD79U5/HoSOFwY2T7ttwVhpw4Z7dBhwkwScuw2efYlOzNj9p+GoCZQRXV7/zfug8Er6li47UIQHlxICAfRA2euxQNnED7qbW6gbQ2ufTMzQnl7diU9bvdYmIFZ3syMPobwefTPU3gu/rjDY28fow0yQV/Ca+C35cNL27Ov3tgxS0eYATYVYWaokWZm4uDiZmCCm4rtrM2sMzF97G8cNcEhM1uShA4xuDxySD0XBaNGfpnJ/caTnuXx28SA0zd4SYNtmxwG3KDsZ17EgdXOUrRmQTrDjO231cb0n7ZxsyDVMdjziIOEt7wwI2g9L3Loio8/eW5z2/pCoYSlJgACwsxQSwozo/7GlAsczdKQ1QozYbgI2vmgYsJMa3koDUaNfJhpl9VLWEEdre9+mf6BPhMuKmYA9m1HCzPdy0OtWQi3X7HMWWqYMecWH3N8bFJQacvNzMTn6Ppq7aMDYQaAgDAz1NTCjA8yUVDIzMyIYSaZmcmEmWEzM5UoKOk+2rMyWt/MzKqGGWl/oiA85NosLcy4Y4mOIzcz0xNm7EyNPa++89Ns+OmvZ8MMf2sIQIwwM9SSwoxdZpJvCh5EXL4pDDOmbTJ7koaZJPCEOsNMpZ6N0fsRZmWMnv+Jdy3PeHIYSAbl0cJM2WBvuH2a/jv6XFaYEZ/LmcKMfd6KZloSfefaF24BbCbCzFBdYaYVXOxjfbPv0DBTt422VW2lG4DdgCMOhslSkQ8yvctMrl24fNQOM66vTBDpCzM2LNljkWZ2rL6/L+KWdaIBsBpwwxuAhRkHO3AHz9eQMBOGkHC7J81wtLhQEBy3nZ1oB7PWsWb42Y3u/XZIA1X9vpotzAw/jr6+S3+baUe9dFIqB7CuCDNDdYaZytZv7G8qGfoGXhtehoeZoG7UX1juuMEzN+DZUGFDgw0ONry0wkxQx9aL+zFhJqkThh3DhaC0nljX77e1dBUz9810Li24QdANvOLzEAzMVt8MhNYxKNfPuZPOJqTlUR0XwFrH6be3A40PKp50TM3STvdMVZd4P/r47DENCzMV6fy14HlqjjfQ1W/B/TJPXrRhZufiU2I5gPVEmEEls8yUkO+ZmUcaqnL4669lXBhKg9WyicGw2T7bzFHhe+DQOXWVMANsHMIMKrsTZgb1Z/5XTqDp4mc6WiFi2dysTOs4ctt7lX83k52Z4e/MAJuGMIPKMsNMc8/O4L74TRZZvYQmLzPuBnEJadbj0697T5D55tm37fLSzsvqSaEcwHojzAAAgEkjzAAAgEkjzAAAgEkjzAAAgEkjzAAAgEkjzAAAgEkjzAAAgEkjzAAAgEkjzCBS/7Gzvu/ewQawf3m39VeXj39O/YE/XghghRBmFsB8Wd/Svh+n64v/0i9gTLX/Ius6hhnzJZ71l3U6yRd9DmK+TDTzpZ9rxHzBZ+Yv7/Z/+ScALA9hZgFWJ8zETFDZ7S8h3AUmzEThxX8b+W9m+2qGDQgzz756Y09Ycd+X9N7nhTIAWC7CzAIQZlZLO8xoV9SRWWdo1j3MmGWkG9Sn54SyUGk9AFgwwswgwrJNHQ5OqfPh9sSlM0ejvlpfxJeGDPMNw6+oY+k+fWipv1xQJn0zcVeYSY8nPd76eNw3H9tj8+ecLlelz9PufgGiHGb88lM4O+NnbBoPn/5hUj/jtevq1rqfysHr6uGu8hKPHFLPfbSlTjzivgjUf0Gn8IWge1/YasqTOqYs96Wepx+s6j+oDgfbzKxMwTdUa11LUZr/AsirZ4+I5QAwBsLMAKUzLr31qkAQhwUXCsLZlTo0BMHCBZg4qIw9M2OPRQ4z/rx0nWvq0mUdUtL9C+1N290LNLkwc+vpz6qg0cyw7H0+mW0xMzB/VEe2gm319o6ZGaHcHMPQQGPCjA0n26fdNhM+gscV823mUSBx30zuAowNOnFg8dpBZ+DyUc83mRNmACwDYaZYeWiYZZmp1caFhzi4SEFjuWHGHo+tY/cZ71/eh63T6rPTfvXh1vfVJ6Lj6s3bpDay0jDTZpeiwtkZozPM2NmdVhszU9O1L4ELM2Fw8UHluRf2dNSpmNCjZ3X8zz7M2Pa+vglC0UzP59WnQ5aOWGoCsAIIM0MEsyVdoaA/zLgA4PuS+iyezVhmmPHHE9aJ92/OPTynUMExLkJ3mAmWmdKlIWdYmHH34mS0Znm6lIQZYZkorGfa1stV1c9uZscHGB1m6r60oeGEMANgBRBmZhHdr6LvHYnLu8OMDzJxO3lmZqJhpncfy5ULM9HSjw8yUb1ZZmYybWYxVpgJftbLStun9WPdxt6LE4WZmWZmblS/OC6UAcCSEGbmId7D0jegy2FhXcKM2YcQ8IZb8DKTCy916BADyuzLTFJ4GmysZSYXWrZP639t8NEzMjbUpG3HvWcGAJaBMDOPTOCwA3ouiLTDhwkyVTiYLcz49v0BYhlhxpf172d5WmHGz8KEN+S6bc0yULNc1AozaRBKmbBTODtTz/IJr3VJmHFBRbwBOLgXxiwnvb/VbNNhp3pcLz/VbUv+xkyj9LeZdi4+JZYDwBgIM8XcIB3Jh406oDhROEh/rboKAq2gMSDM1IEi6HPor2anx9twIak4zDTlcT+l5zI+E2ZcMPGke1fsPTRhnczNvJoLLLX0N5XScqmOZp7XzPNTFGYs+xtNjbTc/+p205cLPNISlbsPpvU1BqmS+2VOvmzDzM7L6kmpHABGQJgB0DLeXwA+os5eJcwAWCzCDACBCyuZQFP83UxuZoa/MwNgkQgzADJsoJnpW7MPnVNXzfLSjnrppFAOACMizAAAgEkjzAAAgEkjzAAAgElb6zADAADWH2EGAABMGmEGAABMGmEGAABM2vqHmbt+qW6/pNSeyu1P/FiuM6JTB45HX4r4qwPxn5XfbV8+Y5+LPZd+r74slAMAMDWbMzPjQs0t3xbKFsJ+6/MqhZkvPvEnQgwAYO1s1DKTmZU4845YNr5VCzM/Vl/9yXJmpwAAWCbCzMIQZgAAWAbCzEAXDjf3w2gf3inX6w0zdz4Q9SP2ddsh9auwzkOH1KmwfBDCDABgPRFmiu1Rbz5UBYrD+5ttLmzIgaYjzHS2c0zYOa7evK3ZZoLUzIGGMAMAWE8bFWa+8O3fqz2X/qS+epdQ1seEiwfUhWS7CRhhwKl1hBkhqMRscGq1NSGoq10HcwP0jOcOAMAK26wwY7yjbpnhV5PTX7mOiLMlXctMbpbHtW/P0Ni20T4CnTM6Kf+r6T/5pfqiVA4AwMRtVJiZ51eTbZhpz8zk9dwz44T34DR1y9oOsvRfTQcAYDm4Z6ZU79JQalggie+HEe7PmRv3zAAA1hNhpphfGiqdnRkSZoTw4n7babzZGcIMAGA9EWYGie918cJ7WNJf3W40IUi8/0aahXGBJsJvMwEAECHMbAzCDABgPW1QmLG/xbTJg7kJc3w3EwBgzax/mAm+NXtzZ2U8OzvDt2YDANbJRi0zAQCA9UOYAQAAk0aYAQAAk0aYAQAAk7bWYYZgBADA+iPMAACASSPMAACASSPMAACASSPMLMRRtX35unrr3evq/AmpHLtjv9r+6Cl18aMtdeIRqXxNnLtJ/fl3N6k3pDLtxCvmvVm7fF4dkOphBKfUefM8X1PbB6XycgfOXLOv14VTYvlojn9O/aHr/QOsIMLMQMculFz8CTOjOf1gPnyYMh1OMl5Pv7xzmmHm8OvVMb9/SO0VylrMQHSD+vScUKYdPK8u8b5cogmGmcob793QHYiBFUOYGagszGA0XWEmYoPK9mmpbNrKw8zn1adVkPnDq18RyiwzIPL+Ra+vqF98XAWa9z4vlAGrhzAzEGFmyQgzxWHG/G/648+pZ4Uyj/cvivXN8gErhDBTxE8Vyy6dOerqNctLVntq2f/P+JifMtYDi5v6f+vdV9SxoK5fEqj7aw1C9rj0kkE9BW0k/SydX84JtJZ83CAd1AmDSFoWEQf2rjCTHs+D6nBUvkedeP8p9dwL+82/us5zL+xRe1/YsvXTY0+Xt4Rza9VJj1kKaY8cUs9Vde05CM9hQB9f3c6wszJ9A09nmDH30iTv2XRZyjzWdZL3urj0kX4eFvW+tPsxn8PofqD258+cf10eL7cN+mym9x21zi29ZgjnXvhcxp/t8HrTMOel2/Wcf+uaUpNfm76A/M2zb6udnR119ewRsRxYFsLMQMX/s5UGhkp9YdIXHncxu3RZX0jsxa++UAnt2/sOLpj1dndhXMK6uswGA3GArwl1ooE8MPLMjA0ocpjRIUG3N3Xe31LP6eNL9t9u3z4XWyc8Zt9/0K43zDSKZmbMTb83ql8cF8paA2+sHtCl96wb/OIwI7WLg0H93kzfrwt5X4ZhoBmU48+L8LlIzq34s6nLovNwfWeuC7bfXJjRx9z3XHrJcQTqkJaeb3hMbn9he9tODjJGz83khBmsCsLMQOOEGbc9uriEFyp7IWpdtNwFtunTDRjJAFF8jLX96sOt76tPRMfVm7dJbXJsqGjPHATMQJ4GCjdopyFomWHGBYYojET7z+wjOp/M+adBZeQw8+yrN/YuMWmd740BYUYKLoMGyVHJYSIKEebc2sdjjtN9fso+m3F7LxtYusoKn8uSMul1be1Xen0z16kaS02YCMLMQMVBoTPMuAtMdDELL1T2Z/s/zbbm4td/kd0NNgzomQghnKTlqZLlGNEIYcYda1Qn3L8LG+JxR3Wk47X7qEPOyGGm5H4ZbTlhRpgFWaj+/dnPXfMZirjno+yzafuzYS214mHG7a91Hl3XM8IMJoIwM9Ayw4x8QQuV1tslZsB2g30wGMuBImMFw0znPnYpzKzWzMyqhhk5bHilYcYGmfh56uo/W1b0XJaVFYUZ174kgNVMmMksXwIrhDAz0HLCTOlg0HXhG2LMZSZBOnAXB5TKKoWZ3BJSZHeWmTrvmQksJ8wM+JyMouDzkvk8hub5bE4hzJjHQ1+Tvj/ACKwIwsxA9gLRfVE05goz1WPTPndR87oufKujHSBceGiFCoEb4LsDhLaMMOPLuvdjwkcUVFz/YSBJg4t7LPVt99kX6Pr/xozWGTIywUW/D9NtvQOwbxsN+lU9IXDYz0Q7IJQrCf+uTiZwaKWfzfQ5rI8/03fUb6j0uSwoKw4zHecvKf1tpp2LT4nlwLIQZmZgLhzm4mU1Fxd7sQnLau5CW3rBNFygiUQXrK4L3y4JBuWGFFp8oImJIcEEiqCeOEvREWbEY7JsSCoPM0150pdrm62TlLfr6P3lz8EGpIYU7kr+amtnmKk0A7Om36f2PTY4zATb4/7Ccqd+nxf8J0FUOpPpA03Mn0v5ZzM5L/18mnMIzs+1D/fj1f0UPpfp9abR7K8kzOTOX4uPwSm5X+bkyzbM7LysnpTKgSUhzABro2x2ZvX0z5pgfrkga8NS+tyX/gXgI+rsVcIMdh9hBlgn5h6HiQWaoiVVzMcFxlaYkbeXzPIZbmaGvzOD3UaYAdbNZG7abJZrxGUOjCxd9nPS5TmzvNTz/jl0Tl01y0s76qWTQjmwZIQZAAAwaYQZAAAwaYQZAAAwaYQZAAAwaWsdZgAAwPojzAAAgEkjzAAAgEkjzAAAgElb/zBz1y/V7ZeU2lO5/Ykfy3UAAMBkbc7MjAs1t3xbKAMAAJO1UctMXz6j1J4z74hlAABgmggzAABg0ggzAABg0ggzAABg0jYqzHzh279Xey79SX31LqEMAABM0maFGeMddYv5Ve3fqy+L5QAAYEo2Ksx88Yk/EWIAAFgz3DMDAAAmjTADAAAmjTADAAAmjTADAAAmbYPCjP0tJr5sEgCA9bL+YSb41mxmZQAAWD8btcwEAADWD2EGAABMGmEGAABMGmEGAABM2sqFGQAAgCEIMwAAYNIIMwAAYNIIMwAAYNJWNsycvf8T9duT2s/VWaEcAABAW/mZGRNqHr2iHhXKAAAAVn+Z6fYr6uOTv1Y/u10oAwAAG48wAwAAJo0wAwAAJo0wAwAAJm31w8yXnlA/e/QT9dv7fySUAQCATTeBMGM9eu+vza9qf3zvE2I5AADYTBMIMz9S1wgxAAAgg3tmAADApBFmAADApBFmAADApBFmAADApK18mLG/xcSXTQIAANnKhpnmW7OZlQEAAHmrv8wEAADQgTADAAAmjTADAAAmjTADAAAmbbQwAwAAsBsIMwAAYNIIMwAAYNIIMwAAYNLGDTPHP6f+8Lsb1J8rf3j1K3IdAACAES1mZsaFmk/PCWUAAAAjWtgy0xvv3aD+/N7nxTIAAICxEGYAAMCkEWYAAMCkEWYAAMCkLSzMfOHcTerPv7tR/eK4UAYAADCSxYUZ4/PqU/Or2jepN8RyAACA+SwszDz76o2EGAAAsHDcMwMAACaNMAMAACaNMAMAACaNMAMAACZtQWHG/hYTXzYJAAAWbdwwE3xrNrMyAABgGRa2zAQAALAMhBkAADBphBkAADBphJkV9K++/pD61/seUX9x16PqL/7dY9NXnYc+H31e0vkCADAPwswKMkFGCgUTp89LOl9gVRz82yPidgCrjTCzgtZmRiZVnZd0vsAYdBDJkepLhtQFsDoIMytIDAJrQjpfoFQaUjxfltbv2p4qrQdg9SwuzDx+RT363keNN36qbpbqrZSn1T3meD9Q++6TypdDD/p/8+ZT6uL/eFz9myQMLFPrGM6dVBc/qrZ5b2612vSRzleT/2L0V9QvPr5BfXou3DYv26f5W0gff049K9bBFKThY0iY0dtmlfaFsf2V2nuvfa7//V9J5bttn/r31bEd2PdXQtmc/upvqvP+W7X3VqEMnRYTZu77qTpahYJ7HhfKdkPx8RBmQvljOKb+4/8YL8w8++qNVbi4Sb0hlH3h3E0meIwVaExo2vAQ89V9f5sfKMzFdEEX6pGlwSJ8nPs5p6TO7rODaPt1W+DguisKwkzJoH/rX6sDXX3MjDCzihYSZm5+5oPVmolZtXDVQw/6GxNmTFi5Uf3ieLI90Bl2BrFfszHuTM8U+cHib9RfStvv/Wv11Wj7akoDSC7AlAQVqU5Ju+XalDBTgDCDxELCzB0vrtiyEmFmJosPM6Xf4eWWhub+igzCTE2agZnYhTQNG+Hj3M+SXHlfu+UjzNQIM0gsP8yYe2mSZZw0bJjHus5jat8betnHefHppk0tqfPeFXWHKzMzRPX2VFOvWV6SykJpPek8So87Tw/6JkjosBDdp3JS/U0SDv7i322pvw/vY6n8/bmg/O8eV+c++jv1H//OBRBfTwoi6T0x2kxhJtmX2b8ti87VzMoUzrgUzOD0I8yE/vIb4eyMm5X5xr6kXjPl78WDg9zO9L2gGZ7wWDy/Pawj/ZwK20tl0vbdUxhmzICoX1e73Z+jOPi6Ad/Xab/+zbKkWMfvy/yry8P9+kHZH3dzPPoc7PsvPK70vdYe1H0bkXu/tY43kpmNrMvlICHtd9YwE/eV7C/z2uVe86afpI55XXXfyfkJr2/uOY3OL32fiJ/t9jFJ+1uU8cJMesNvog4qxWFGapfOrrhwEQWnalsaHtL+O9gAJIQZ18fRZ5oB2Yel4cfdTQ/6JsxEYcIFhChc6G1xwPk3L/9dFB5smLF91SHHhZYw9LTaVWabmbHh6tzLx5ptZn+27/A8h92/MkYQIcxE3AXKXLTE/xG6i1Nr8BIGoOSiZS6QC16u0seRe5z7OeS3h//2CdsPVg/4lZku8vb1KAszej/N62kHeGngTAatalvYvx3owgDg3hP+tfX7Mo912d+qA/cGg6g5T9fG7V/3qevo/drjSgOG7zd9Pwb6yrXemZnkedNa/brziN7LQrsiPliE51tt+0bQt38+g2Nov3a6n/g5a9UJwkd9/q7vztc3vCb4bcJz3f58h693U2+ZVnhmJg0ANriEYcLsJzuLEhghzMjn5GZgfHgqPO4+OgBIQcIGDml2JuDCSx1U0sdGGjiEAFKZJcyYY2y1sfV1/8152qWj/iUmb4SlpiEzQRvCXwQPVBei9OKcG2jiC5l8EWtf7ManL8zS49y/oXCbVN61fSbp/2wrwwdDO4iWhZl48GkP7C5gdA0+uTAQ9h8NkGGf4fsi3lc4gO5mmDH7br1H7XF3Ppfp812oFTgk0v56zsNI64ht0uOWPrvptuT58Ez/4XHO9pyMacJhJgkSXeYOM3Zfzb4bpr4/190IM9LSUGVQmKmXosI6s4UZ0yY4jkhVvznP0vtlvDnCjPuNqPnvuVlHbqDJhZboQueYC66vL10QdyfMpNtz5am+fkZhnjP9PAek57aTfa3ag1oykJQMiCUDZPQ6h4LjiPYVHkf4voiPL3xv7GaYsaEqw702cuBJnu9CRZ+Jkteurpccc1hHPPf2cdvnIHj+W+1sG2lfWti/fS1d2eD39vwIM4lJhRkXZKIZlVlmZsYOM2IbqznP2WZmyusLRrnvZv2YC5pw8clttxfS1Qwz4TapXJKrV9q+iBskdJ/e0MHQDyzxANVsr/srGRDFwS4Rvc6h4DiifYXHMZEw0/MeXckwY+ok+y96fdvHHQUQJz6vGc7VHZ+x4GtAaPrLTLn9hOYOM6u5zCTO1MwcZtI6LrAMDDPiMQXC8+SemdWQCy25gSa+KO9umPHCbdLPXXL1StsXCy/yUkjslRlYzMAVDIAlA2LJICUOiJWw/2hfYZ+rH2ay+w6IdVy/gwb4Ssn+Sl67rmOqz1U89/Q1t49zz48lf76LlLxGI1p+mMkEF+lG2t5Q4NtGszNVvdZsjW1bMouTCzP+Rt5w/7ZuEMyWHGbCG2vNYxdK9GzNoDDTCi7use5rYJjxfcvtkudgyEwJv820MLkw4y+IUZm5QMUXwDS4mMe6nRBmfNnQgcCrw0BFKss9lup7ubKuNrulPZC5wSZ8rgsGRM32lQxmVdvmses72p8dAOv3RLSvJYYZdz7d76PkWHPlwvu0lu7HfyZ69y2R9lc9T60bgHteu7ROcEx1nbSNEb8O7ccZZn/Dz7covI1o+WGmYkOADTA2ONgBf3CYCbbH/YXlThCaWvVaZY1of119BOVLCzMVU0+HB0MHGxsmhoWZZpvvS9c3+wuOwe4/3J+XLlHFfYV14nO14aL/XpYRbv41CDOSbJgx3AW4Jg0wcR190TMXMmGQ8APoPBc53X7oNqncs8dTTupjmZrn0Elfu5IBMarb0VelDqdONKhF+woHx1nCTPpeC0jvz/TYpVASDPRW+r6T9pk8d9F+dHt7bkMHd8sHxK599b928Wui69vzGBZmKulz6KXPpVQvrNN6nrXlBRltIWEG82lCwfppnW/BjAt/AXiduMFDGnhmpC+c0nYtvLhK5VpXGbC2cgHXbZ8trO0ewswKkkLAupDO19w7kws07jeRxgkgboaHL5jcNX5WoXUBBbBcbral9VnMbV9xhJkVJIWAdSGdr7a8b812S1saoWZ56mnoZAodwK5pLVlO+DNKmFlBUghYF9L5AgAwD8LMCvqLux4Vg8DkVeclnS8AAPMgzKygf73vETkMTJw+L+l8AQCYB2FmBf2rrz9kA826zNBU56HPR5+XdL4AAMxjtDDz13cfVF/5v/8fsQwAAGBRCDMAAGDSCDMAAGDSCDMAAGDSCDOj+qG6+7U/qsff8T5Tdx+U6o1lv9qOvv/oQXVYrLcgt19RH5/8tfrZ7ULZkux9vnqeX7uubhXKJueRQ+q56nXcPi2Uje2uX6rbL/1JffWuZPu3f6/2/OSX6ovhtpR53X+uzkplALALCDOLsvWbJYSZxt4XtpYcZn6krp38RH187xPRdhMu0vM+eF09rMPdLKGj53kkzMziHXXLJaVuf+LHQtmP1Vd/onoDzdn7P1G/JdAAWBGEmUVZ6zDzhPrZo9Vgdv+PWmU2zPxRPXz6h/W2W09/ZrYRZnosJcy4sHLmHaHM6wo7Xv49AADLRphZlDUOM4/e++vM/8rtMtuR09fVw3XA0Nt+o/bq54Mw020JYeaLT/xJ7bn0e/VloSyil5ukZaiQWW76RF3bJ5QBwBKtdpjxyxPe81dader/9WfqmMFObzODoq8nDY5X1JGwH621v7ROR1jpCzPR8VSEcxuiO8zsUSfeD++tkQfMw6/HdbznXtgT1LP/I0+XlywXZrb0v+7c9XnWz38VapK64XMQzub4GR5REF7k1zfcTyn7HJlzPf1gcP5b6sQjcV37XAfP0fuHov2Z5/H1/b39SK+LFr823a+dOZZq/4f9MeljcaGo/X6wszLdMy5eyQyOW2569Ip6VCjTvnn2bbWzs6Ounj0ilgPAGFY3zLjBKRzg9LYjW00dO+CFA5cLG+lgF21zg2j0v3m3rStQuGAlLZ+Ex1Qzxy+HGdtOGNjnCDT5MONuEtaDq9/mBtkwpNggE7R3A2IcZCqd/xu356GfD32O+rnSz795fpIws/f55Llxr3fruex4HrWy17dEGBqa58E8L2FYqZ67+DlpP791KKzbub6j0CO8Lq2Zmf7Xrg5Wuo5pv6Wee18fv20bHau56VepW77tHvcwszh9NwPv+3nnvTOEGQDLsKJhxoWSgnDRN/iZwS4Z2Nphwu4vCk4JqZ/OEJIdhO2+5OOeZUbByoWZ3PZ4kHaDbThoitsqnYNXcG769XmtCp96iUmX9Z5f5jUoCTO9r28JKXDkn79QGnhaAaiS9iP2m4SZktfO1nGzPlEAFcKMWToqWGLyWGoCMBGrGWZyQSWUHRzjsFA62NltVV2tFU5saJHCjmknzQLkBuF06SySH7T7dA58aSDRzP/wm/qmXti+NUtg5e+X0YTn3j+X6fOReR52PcxIz1XE1auem8jAMCO+LslzXvLaRf1G7dthpvh+GY8wA2AiCDMp068bXOt244eZznObwbxhxrav6gai/9V7pTMzaZk5b/d8+CAThcYVmZnpDDM+yMTPcxpeVjXMzDYz01PfhJnd/VtDALDSy0xSeKjlQkEy+M082BX0M88yU+e5zSAXZjpDTj3g2oEvnYURdf1PPAwsXWXiczOFMCMEhMrMYSap4++H8a9DyWs3KMzswj0zALAMK3sDsB2QkrBSDWzNYxckokHLDohhuJh1sGvVMYNqPNjaOpmBtmMQFs8t48CZa+qtd6+rty6fVweEci838PkBLhqkk0EzN0jLOv6+SGmYaQVR97olz2/TLh/+Br2+B8+rS/q5fPea2m4d44CZmaCOCRb6+R0YZlqvgXscbSt47QaFmcLfULLG/W2mnYtPieUAMIaVDTOGCxA1YQbEDGZBnXTQKxrs3IAZ9iMPhmm9tE4zKLckx+4DTVcd7dgFPfhmwowf7ATxIGYHtqZc+DXhYDCNpLMHFXvfjLC0EAaWcHtd1gSY9Pztr3NnQkv6Pghez0Fh5sQr9rmcOcxU0ue8qm8CxdAwU29z/Zj69nVqQqbW/doNCzP+vpme+2C0se6XOfmyDTM7L6snpXIAGMFqhxksRzQItre3Z2z466/Ttey/AHxEnb1KmAGwWIQZCMtOPds1979yAs0EuXtn5EDjws5Y383kZmb4OzMAFokwAyNa8qhJf7U2wG+yTNeivzX70Dl11Swv7aiXTgrlADAiwgwAAJg0wgwAAJg0wgwAAJg0wgwAAJi00cIMAADAbiDMAACASSPMAACASSPMAACASRs3zBz/nPrD725Qf6784dWvyHUAAABGtJiZGRdqPj0nlAEAAIxoYctMb7x3g/rze58XywAAAMZCmAEAAJNGmAEAAJNGmAEAAJO2sDDzhXM3qT//7kb1i+NCGQAAwEgWF2aMz6tPza9q36TeEMsBAADms7Aw8+yrNxJiAADAwnHPDAAAmDTCDAAAmDTCDAAAmDTCDAAAmLQFhRn7W0x82SQAAFi0ccNM8K3ZzMoAAIBlWNgyEwAAwDIQZgAAwKQRZgAAwKQRZgAAwKQRZgAAS3fPPd9ca9I5Y3EIMwCApZMCwDqRzhmLQ5gBACydFADWiXTOWBzCDABg6aQAsE6kc8bi7GKYuaKOvPNH9fg7n6m7D0rls9n7fNXna9fVrULZKjv8+lPq4vuH1F6hzNv7wpa6+NGD6rBQts7seVfPz+v7xfJN0vk1IdsPqf9z/T+pf3l+r1y+Yn7w/JY5Xk88bndOtde63gN71T/+k673kHpJLF+i0w9W79ktdeIRoWyl7VEn3q8+a/rzZox4DrdfUR+f/LX62e32sRn0f/C6euvd/67+67F2GFiWR5/779UxvK7+c73tv6j/9u71apsXlpVrnf8aOnv/J+rje58Qy2rnblJ//vhz6lmpbESEmRUxW5jZr7bri05oty+i7oLYET7MufScrzdOmOk/plX37Ks3qj//7ib1hlBmTCzMNParj3qP2wWVVQkzjxxSz1Xvye3TQpm2G2Gm75iMAZ+DUc/hR+rayXjgM4P+SoaZsrI+8fmP5R/Ua6f+t/qfp36rXvhLqbz6T8IDutzL1Lvrn4M6/1u9f9/J2eqYgNoXaL6ifvFx9Z+wBQeatVtm2sQw89wLe6J6u2/cMDOOiYcZ/b+b392ofnFcKPMIM4SZlQwzT6ifPfqJ+u39P4q2m0GfMFPMhpR/Vi/c99vqXzmkmDonrqoH3OMHpLompATb/vKqej8NKyV1vH0/V78NZtxki/++RsLMiiDMLNqUw0zhheDhb6l/qULBR9tC2UobK8zcql56rarzT99SPxDKRkWYKfbovb+uBrufq7PJdjPoE2aKmFDywD80P0thJg0gxkn1wokq4Li2fmYnDSW2z392n5uSOjG93PTbR6+oR4WyWsl/yOYwWpi59fRn+RCx9Rv1+Du/cQOXX17y/PbAwevqYbP89EN192tB3eevxPU003dQR0uPI60Tltf7CurX7LEe2ZLK8uplEU8atM2FIqgj1XMXp7jesDCTC0n2GJMLVXpMyQXP9KW3RfWCPsTjbYQX2ZIwkz6P2fMUnst6XwOOSTPnmC23A4E+jvjYhPuY0v22ztW+drr/3r7MRaBjealUev9JLvgk9eKQYUOF2RbV21L/+HDQRz1L0siHrPHCzKKl78lY8NqZ96R+HC8F595P2c+U09pv8NksOqaBnwPDHFNHmEk/d2JAsrMy0jKEGfRNmNFhIb5P5b/9IA0HJ9R/vRLex3JdvfrciVa53mYDiK8nBJFjL6pXg36y9Sp9YeY/X4z7CY87Pd+x5MKM2R7MyhhuRqUOIeZxJvBU9V67q7BOvd1xy03X9gllNbfclP0S6iPq7NUdtbPztjp7SCrvNm6YkYKJLxOCTraNCRg2eNRBwgWSMFjY9nEQSWdm2nV8QHL7dfsSA0tn0MmoPuDxoOsuZq2LT3yRaIUOd6EILzK2XTjYFczMCP1I/ztr992uUw/09XG6Oq2But02ZfbXE2YaHefpLtLixTjSd0xCeatvV0c/B3W99usrDQLtUBkMcunzmRyjuel33vXmwlkbf1NuWO8Hzz8UBJUwpDTLOfGMiA0nUfDoXAKbTpip9b3v6oG+eR+0P/fB+yn47KXvFfu5a3/uW5+fos9C3+cgILyPvZLrhdExyJlB34QZHQSa2RkbIOLZmv98MZm9ce2a8BCEnYv/xW1zAal+LLWbdWbG7S/s24Uk33d6vmPJhRmzxFTPwFTMTE0VYsIZG7+tbmdnYV67K5iNKalTl3n50Boy9/1lr2UrEmak2RcfEEzAEGZV+sJMHDBsnw+f/mHmsRWHGblO3H/HsUbnNLv44iQPzHEd+cKQCzP2Yhjquci0Lnq2n9ZF0FzM8hdZrX1MWv8Fc7Qw03HBjfUcU3Kunjnnuo3ch/TatY7VPOfhcbrXrrMvzf5vZu61ZhMm0tmThAs8RaEiWcqxIciGm/DnsG1+CWhdw0zyvmy1ce+nrs9Ubj9F/Uv6P5u17Ger7HphmPsp2ktMmgkA0jJTEgpkNqg0szNCuKiYmZMrL6pHO+rMFGbqGaV4u9mf6z8937HIYSZeTopmaYIwY9tKszRNUCmp0+y3sdtLTeOFmXAWwy/ruFCgA0IrUFTmCjOZWZMozGTq+NkZ21f4s91HfUz6PIQZpW7uYlF92CP+gtUa1Kx4EJMvFrkw0zkzU0nbtYKEuwi2jtlojnUlw0zyfOcv5N3HZM+j6SdSH6fch/Taif1UmuMre+3Gu3EunFHpWl7qCTwFocKEFqnc9C/dnLvhYaYrWEgBwRCuEcsKM4XXCy13v4zWhIKCMCMuDQ0NMzYApSFpljBjt8fHUnP7S893LH0zM9kZmvDn7OxLYZ16W2N9wkwww6FDypEt/ViHgjAsxG1WI8y4Njp46frVv/qxP49hYcYPrPHFJxrszIVguWEm7s8eY9Sm6CK4qmGmYY6vqqe163Yfk3weKbkP6bUrfU366400MxMwYcOFmihAEGbK9X1mNiDM9F0vjDFmZnyQiYLKLDMzY4cZuY2Xnu9YcmHGbu+5cdffQ5O5t6a5Z6anTrjdMWEm+Y21lrHu/xOMGGZsQDiypf+1AcWGgibkpG3mDzNpHXsMw5aZ3HFUIcaGsGqbnpFxoaZecioiD1DtMJNeCNwFpmdAtIP1LGHGtdUXMLP/9OJY1k88aFurFGY86Th7jyl34Y7IfcT7Kx0sys9plHtmBK1ln6L7avpDBctMlbHCTG4/Rf1LSt+flexnYsDnseiemZ4wI9WZI8w0bYI6A8OMfEyx9HzHkgsz4XJSs305v800zj0z8xkxzNjw8vBrNhiYbWaZ5rPM7MicYaYVXNzjqk44m2ICSbT/tF2lPk5/LHpf1eOqXisIfemUOl99IPR04vkT4XatfaGwAaSSDnbp46iOb9eEhLqfGcOMvTA9qE7oECFcyGwo6b4QSiEhN6ORHn9qcWEmf7HuPib/OuSPOdd363kxz3Xf8Q44p4VMzcrhwM7axLMz4g3AXaHChaKojpmVyQWlZYYZ//m9praFa1I5+/plQ8FYYUZ8X+b23XNMTt9ns5YNM2XXC0v+GzOaGfQHzMw0Myo2lOhr8LAw0w4u9nG8LZSfgXH7y7TTwnM9dsHu59KZo9H2WWTDjA8uPX9nprXNzbiE4aWkTmTU32baUS+dlMq7jRpmbDgJQ4gNIFFgcUHFhI5E96yLNMvi+7d0fXMMydKQP65aOtvijynYbkNQegy67nl1yX2Q2mGm4i5YNnjYC0t74HYXHUdfENp1/EXMMoOeCySti1qLdAHy/ckXJ81foCLBhXFImEmPXwsvfOK+tHR/Up1gf33HHOs+Jqk8ruPKk/6l58UHmojwHigLaPa+mfxFoF/61QFGJhikdeOQURoqbEBp+mkvX4XLXbFmVkc8bqNvOSznqNq+7AawC6eE8gHSz3r4ORgtzFjpZyH7vuk6plrX5yB3Takkx1n62bP3zbT/qJoZ9EvCTMWGCve6mTIbJoaGmSaEWKa9OYYglPhlLUE8qxP35fnjDs/1wJlrrvwVdSzYXswv/UjC+2OCX6G25JkUG1aaetLSUUkdb6z7ZZ68aMPMzsWnxPIuo4YZAAuywBvnNs6JV8zAMsb/klGi4y8Ar7HwXOsZwcvn1YFo+xoY8y8AHzqnrhJmgPVm7p0h0MzJz8zM+D9kzMYtQ4SBRgoA6yQ8fz8zI87mT5l7Xcf6biY7M7Pbf2cGwMJ1fms2OtVT/ev4v+MpMANf8q3Za8ycc31bwrz3aK0mvbzUd9OvmVXuCTLfPPu2XV7aeVk9KZSXIMwAAJZOCgDrRDpnLA5hBgCwdFIAWCfSOWNxCDMAgKWTAsA6kc4Zi0OYAQAsnRQA1ol0zlicG6SNAAAAU0GYAQAAk0aYAQAAE3ar+v8BX98uU59A3nwAAAAASUVORK5CYII=;" vertex="1" parent="1">
                    <mxGeometry x="120" y="510" width="563" height="603" as="geometry"/>
                </mxCell>
            </root>
        </mxGraphModel>
    </diagram>
</mxfile>